<svg width="218" height="133" viewBox="0 0 218 133" fill="none" xmlns="http://www.w3.org/2000/svg">
<path opacity="0.1" d="M131.382 44.909C130.207 44.6861 128.993 44.8186 127.894 45.2898C127.231 45.5838 126.513 45.7342 125.788 45.7309C125.063 45.7277 124.347 45.571 123.687 45.2711C122.908 44.9296 122.064 44.7613 121.214 44.7778C120.364 44.7944 119.527 44.9953 118.762 45.3668C118.325 45.5989 117.838 45.721 117.344 45.7226C115.347 45.7226 113.686 43.7105 113.34 41.0554C113.739 40.7633 114.078 40.3974 114.339 39.9776C115.509 38.0903 117.323 36.8793 119.359 36.8793C121.395 36.8793 123.186 38.0757 124.35 39.9443C124.701 40.5094 125.191 40.9743 125.774 41.2937C126.357 41.6131 127.013 41.7761 127.678 41.767H127.73C129.325 41.7753 130.701 43.0509 131.382 44.909Z" fill="#080B24"/>
<path opacity="0.1" d="M137.455 36.5754L134.227 38.625L136.186 35.0586C135.631 34.616 134.944 34.3708 134.233 34.3615H134.181C133.957 34.3655 133.733 34.3495 133.512 34.3136L132.422 35.0065L132.892 34.1534C132.116 33.8825 131.447 33.3726 130.979 32.6969L129.02 33.9453L130.268 31.696C129.122 30.3206 127.579 29.4758 125.881 29.4758C123.845 29.4758 122.032 30.6889 120.861 32.5762C120.515 33.1429 120.024 33.6072 119.44 33.9217C118.855 34.2361 118.197 34.3894 117.534 34.3657H117.423C115.175 34.3657 113.354 36.9167 113.354 40.0608C113.354 43.2048 115.175 45.7558 117.423 45.7558C117.918 45.7543 118.404 45.6329 118.842 45.4021C119.607 45.0298 120.443 44.8282 121.293 44.8113C122.144 44.7944 122.988 44.9626 123.766 45.3043C124.425 45.6002 125.138 45.7541 125.86 45.7558C126.581 45.7576 127.295 45.6073 127.955 45.3147C128.728 44.9796 129.564 44.8145 130.407 44.8306C131.249 44.8468 132.078 45.0438 132.838 45.4084C133.271 45.6349 133.751 45.7541 134.24 45.7558C136.488 45.7558 138.31 43.2069 138.31 40.0608C138.322 38.8456 138.028 37.6469 137.455 36.5754Z" fill="#080B24"/>
<path d="M104.236 58.3489C104.363 58.3301 104.49 58.3052 104.615 58.2739C104.599 58.3995 104.563 58.5217 104.508 58.636C104.359 58.8571 104.156 59.0362 103.918 59.1562C103.887 59.1277 103.848 59.1107 103.806 59.108C103.764 59.1054 103.723 59.1173 103.689 59.1416C103.421 59.2998 103.207 59.5328 102.922 59.6702C102.822 59.7201 102.714 59.7596 102.62 59.8137C102.387 59.9589 102.194 60.1599 102.059 60.3984C102.011 60.4556 101.98 60.5243 101.969 60.5975C101.957 60.6706 101.965 60.7456 101.992 60.8146C102.022 60.8569 102.061 60.8918 102.106 60.9165C102.222 60.9971 102.361 61.0386 102.502 61.0351C102.587 61.0351 102.668 60.9977 102.751 60.9831C102.834 60.9686 102.976 60.9831 103.088 60.9623C103.251 60.9421 103.41 60.9008 103.562 60.8396L104.117 60.646C104.276 60.5955 104.429 60.5322 104.577 60.4567C104.664 60.4109 104.748 60.3547 104.839 60.311C104.94 60.2659 105.044 60.2291 105.151 60.2008L105.467 60.1071C105.513 60.0906 105.562 60.0842 105.611 60.0884C105.654 60.0884 105.692 60.1238 105.735 60.1362C105.805 60.15 105.877 60.1435 105.943 60.1175L106.312 60.0114C106.389 59.9943 106.463 59.964 106.53 59.9219C106.604 59.8494 106.66 59.7608 106.694 59.663C106.728 59.5651 106.739 59.4608 106.725 59.358C106.724 59.0436 106.688 58.7303 106.617 58.4238C106.571 58.443 106.53 58.4738 106.499 58.5132C106.461 58.4591 106.418 58.4092 106.378 58.3613C106.209 58.1654 106.084 57.9355 106.012 57.6872C106.146 57.589 106.257 57.4643 106.341 57.321C106.147 56.5823 105.948 55.8311 105.555 55.1777C105.426 54.9697 105.278 54.7616 105.139 54.5535C104.756 53.9459 104.677 53.1781 104.24 52.6101C104.198 52.5524 104.175 52.4828 104.175 52.4114C104.175 52.3399 104.198 52.2703 104.24 52.2126C104.29 52.1481 104.371 52.0836 104.355 52.0046C104.338 51.9255 104.284 51.8901 104.307 51.836C104.33 51.7819 104.344 51.7944 104.367 51.7736C104.44 51.7049 104.432 51.5863 104.438 51.4844C104.479 51.2288 104.589 50.9893 104.756 50.7915C104.785 50.7412 104.825 50.6979 104.872 50.6645C104.912 50.6396 104.958 50.6292 104.997 50.6042C105.139 50.5168 105.128 50.3108 105.195 50.1589C105.282 49.9508 105.503 49.8551 105.648 49.6928C105.831 49.4847 105.877 49.1955 106.064 49.0145C106.083 48.9955 106.104 48.9781 106.126 48.9625C106.043 49.2716 106.006 49.5912 106.014 49.9113C105.995 51.0079 106.266 52.144 106.139 53.2405C106.039 54.1041 106.567 54.9676 107.314 55.3983C107.607 55.5548 107.913 55.685 108.229 55.7874C108.699 55.956 109.165 56.1287 109.624 56.3201C109.949 56.4588 110.269 56.6052 110.585 56.7591C110.974 56.9506 111.352 57.1625 111.719 57.3938C112.185 57.6546 112.599 57.9988 112.942 58.4092C113.139 58.396 113.327 58.3234 113.482 58.2011C113.605 58.2989 113.755 58.3717 113.871 58.4799C114.03 58.6477 114.136 58.8581 114.177 59.0855H114.129L114.146 59.4101C114.15 59.4377 114.146 59.4661 114.133 59.4912C114.121 59.507 114.106 59.5204 114.09 59.5307L113.84 59.6993C113.659 59.822 113.459 59.976 113.449 60.1966C113.443 60.261 113.462 60.3252 113.503 60.3755C113.564 60.4321 113.643 60.4671 113.726 60.4754C114.155 60.5909 114.601 60.6317 115.044 60.5961C115.257 60.5822 115.457 60.4903 115.606 60.3381C115.721 60.18 115.793 59.9941 115.814 59.7992C115.868 59.4725 115.913 59.1437 115.949 58.8129C115.959 58.5895 116.004 58.3691 116.082 58.1595C116.088 58.141 116.1 58.1254 116.117 58.1158C116.136 58.1158 116.159 58.1158 116.178 58.1158C116.188 58.1089 116.197 58.0998 116.204 58.089C116.211 58.0782 116.215 58.066 116.217 58.0534C116.296 57.7328 116.335 57.4036 116.334 57.0733C116.336 56.9877 116.323 56.9023 116.294 56.8216C116.26 56.7535 116.211 56.694 116.151 56.6475C116.091 56.601 116.021 56.5687 115.947 56.5531C115.799 56.5233 115.65 56.5059 115.5 56.5011C115.374 56.4892 115.249 56.4655 115.127 56.4304C115.078 56.413 115.025 56.4066 114.973 56.4117C114.947 56.4152 114.923 56.428 114.905 56.4479C114.888 56.4678 114.878 56.4933 114.878 56.5198C114.881 56.5385 114.888 56.5563 114.899 56.5719L114.772 56.5469C114.67 56.5282 114.524 56.4824 114.374 56.447V56.368C114.374 56.3389 114.366 56.3104 114.351 56.2858C114.335 56.2612 114.313 56.2413 114.287 56.2285L112.147 55.0841L111.746 54.876C110.868 54.4058 109.961 53.973 109.084 53.5027C109.023 53.5214 108.976 53.4528 108.959 53.3945C108.942 53.3363 108.93 53.2614 108.874 53.2364C108.818 53.2114 108.809 53.2218 108.788 53.1989C108.781 53.1887 108.776 53.1772 108.774 53.1651C108.771 53.1529 108.771 53.1403 108.774 53.1282C108.803 52.6995 109.109 52.3063 109.046 51.8797C108.988 51.7069 108.962 51.525 108.969 51.3429C109.014 51.2254 109.068 51.1119 109.132 51.0037C109.236 50.7436 109.132 50.4294 109.246 50.1714C109.323 50.0035 109.375 49.8255 109.402 49.6429C109.458 49.2816 109.568 48.9308 109.728 48.6025C109.806 48.435 109.907 48.28 110.03 48.1426C110.094 48.0719 110.167 48.0095 110.228 47.9346C110.398 47.6973 110.504 47.4198 110.535 47.1293C110.658 46.6128 110.673 46.0766 110.579 45.5541C110.524 45.382 110.491 45.2038 110.479 45.0235C110.479 44.8155 110.564 44.5616 110.46 44.3889C110.571 44.3034 110.645 44.1793 110.668 44.0414C110.669 43.9929 110.679 43.9449 110.698 43.8999C110.732 43.8482 110.778 43.806 110.833 43.7772C110.916 43.7129 110.98 43.6266 111.016 43.528C111.053 43.4295 111.061 43.3226 111.041 43.2195C111.151 43.2695 111.267 43.1571 111.319 43.0468C111.371 42.9365 111.413 42.7992 111.527 42.7534C111.607 42.7354 111.689 42.7236 111.771 42.718C111.9 42.6848 111.979 42.5599 112.07 42.4621C112.272 42.2801 112.506 42.1357 112.759 42.0355C113.476 41.6714 114.062 41.093 114.63 40.5228C114.928 40.2449 115.198 39.939 115.437 39.6094C115.502 39.5151 115.561 39.4171 115.614 39.316H115.628V39.3326C115.628 39.368 115.647 39.4034 115.658 39.4387C115.683 39.524 115.714 39.6073 115.743 39.6905C115.813 39.9423 115.935 40.1764 116.103 40.3772C116.128 40.403 116.155 40.4273 116.184 40.45C116.217 40.4762 116.251 40.4998 116.288 40.5207C116.436 40.5993 116.597 40.648 116.764 40.6643C116.826 40.6643 116.891 40.6768 116.955 40.6789H117.147L118.457 40.7143C118.008 40.0588 117.972 39.2098 118.001 38.4129C118.076 36.3696 118.473 34.3075 118.105 32.2975C118.075 32.0536 117.989 31.82 117.854 31.615C117.637 31.3731 117.343 31.2136 117.022 31.1635C116.706 31.1142 116.395 31.0347 116.094 30.9263C115.864 30.7851 115.619 30.6686 115.364 30.5788C115.172 30.5434 114.975 30.5434 114.782 30.5788C114.545 30.6141 114.31 30.6558 114.075 30.7036L114.019 30.7161H113.981H113.971H113.936H113.923H113.89H113.875H113.844H113.827H113.8H113.782H113.757H113.738L113.715 30.7265L113.694 30.7369L113.674 30.7473L113.653 30.7577L113.632 30.7702L113.613 30.7827L113.595 30.7952L113.576 30.8097L113.559 30.8222L113.54 30.8389L113.526 30.8514L113.507 30.8701L113.495 30.8846C113.487 30.8913 113.481 30.899 113.476 30.9075V30.92L113.453 30.9533C113.435 30.9845 113.42 31.0172 113.407 31.0511C113.402 31.0675 113.397 31.0841 113.393 31.101C113.385 31.136 113.378 31.1715 113.374 31.2072C113.374 31.2259 113.374 31.2425 113.374 31.2613C113.374 31.28 113.374 31.3341 113.374 31.3695C113.374 31.4048 113.374 31.4964 113.393 31.5505C113.105 31.7206 112.866 31.9608 112.696 32.2486C112.527 32.5365 112.433 32.8626 112.424 33.1966C112.414 33.5305 112.49 33.8614 112.643 34.1583C112.796 34.4552 113.022 34.7084 113.299 34.8943C113.301 34.9269 113.301 34.9595 113.299 34.9921V35.0129C113.295 35.1273 113.283 35.2413 113.264 35.3542C112.943 35.2915 112.616 35.2629 112.289 35.2688C112.093 35.2688 111.898 35.2855 111.7 35.3021C111.492 35.0524 111.301 34.7778 111.114 34.5073L110.681 33.8726C110.529 33.6641 110.39 33.4466 110.265 33.2214C110.159 33.0133 110.076 32.8052 109.959 32.5971C109.716 32.181 109.317 31.8356 109.269 31.3591L109.154 31.384C109.092 31.28 109.013 31.176 108.984 31.1135C108.827 30.7749 108.706 30.4206 108.624 30.0565C108.599 29.8653 108.541 29.6801 108.452 29.5093C108.381 29.4083 108.297 29.3185 108.2 29.2429C108.043 29.0953 107.86 28.9794 107.659 28.9017C107.57 28.8689 107.475 28.8548 107.38 28.8601C107.286 28.8655 107.193 28.8903 107.108 28.9329C107.079 28.9225 107.052 28.91 107.023 28.9017C106.923 28.8637 106.815 28.8503 106.708 28.8626C106.602 28.8749 106.5 28.9126 106.411 28.9724C106.25 29.1191 106.153 29.323 106.141 29.5405C106.097 29.8358 106.148 30.1375 106.287 30.4019C106.451 30.6932 106.738 30.8888 106.979 31.1198C107.146 31.2814 107.292 31.4631 107.414 31.6608C107.452 32.099 107.44 32.5401 107.38 32.9758C107.349 33.1631 107.301 33.3462 107.285 33.5335C107.225 34.2139 107.578 34.8943 107.453 35.5643C107.432 35.6647 107.442 35.7692 107.483 35.8633C107.524 35.9573 107.594 36.0361 107.682 36.0887C107.873 36.166 108.071 36.2205 108.275 36.251C108.666 36.3509 109.007 36.6026 109.4 36.6963C109.583 36.74 109.772 36.7483 109.953 36.7961H109.982C109.842 36.9546 109.742 37.1444 109.691 37.3496C109.612 37.6909 109.691 38.055 109.606 38.39C109.521 38.6667 109.386 38.9255 109.209 39.1537L108.256 40.5311C108.043 40.8533 107.809 41.1612 107.555 41.4529C107.118 41.9294 106.364 42.3081 106.143 42.8824L106.124 42.8408C105.81 43.0718 105.694 43.5025 105.442 43.8021C105.322 43.9478 105.17 44.0664 105.037 44.1996C104.871 44.4046 104.723 44.6239 104.596 44.855C104.207 45.3603 103.867 45.9017 103.581 46.4718C103.442 46.7735 103.333 47.096 103.223 47.3998C102.786 48.6295 102.075 49.7969 101.78 51.0703C101.707 51.3803 101.518 51.6612 101.489 51.9796C101.489 52.3215 101.588 52.6562 101.774 52.943C102.019 53.4008 102.287 53.8461 102.506 54.3163C102.635 54.591 102.745 54.874 102.886 55.1486C103.028 55.4233 103.232 55.7104 103.392 55.9997C103.772 56.7435 104.056 57.533 104.236 58.3489ZM109.597 35.1086L109.56 35.0899C109.414 35.0275 109.28 34.9394 109.165 34.8298C108.818 34.4553 108.666 33.8935 108.558 33.392C108.545 33.3337 108.533 33.2734 108.522 33.213C108.96 33.7962 109.322 34.4333 109.597 35.1086Z" fill="url(#paint0_linear)"/>
<path d="M108.006 30.2374C107.982 30.0475 107.923 29.8636 107.834 29.6943C107.763 29.5933 107.677 29.5035 107.58 29.428C107.423 29.2818 107.24 29.1673 107.039 29.0909C106.937 29.0511 106.827 29.0368 106.719 29.0491C106.61 29.0614 106.506 29.1 106.415 29.1616C106.254 29.3064 106.157 29.5092 106.145 29.7255C106.101 30.0188 106.152 30.3184 106.291 30.5807C106.457 30.8699 106.744 31.0634 106.983 31.2944C107.159 31.4612 107.311 31.6509 107.437 31.8583C107.494 31.9666 107.564 32.0679 107.645 32.16C107.685 32.2056 107.736 32.2411 107.792 32.2635C107.849 32.2859 107.91 32.2946 107.971 32.289C108.073 32.2628 108.165 32.2087 108.237 32.133C108.335 32.0477 108.601 31.8916 108.61 31.7543C108.618 31.6169 108.402 31.3922 108.358 31.2882C108.204 30.9512 108.086 30.599 108.006 30.2374Z" fill="#FBBEBE"/>
<path d="M113.613 35.5767C113.185 35.4617 112.744 35.4071 112.301 35.4144C111.563 35.4248 110.801 35.6038 110.099 35.377C109.917 35.3141 109.74 35.2376 109.57 35.1481C109.425 35.0857 109.292 34.9983 109.177 34.8901C108.828 34.5176 108.676 33.96 108.568 33.4627C108.471 32.9618 108.415 32.4537 108.402 31.9437C108.225 32.0422 108.027 32.0945 107.825 32.0956C107.725 32.0926 107.629 32.0532 107.555 31.9848C107.481 31.9163 107.435 31.8233 107.424 31.7231C107.469 32.1943 107.46 32.669 107.397 33.1381C107.366 33.3233 107.318 33.5043 107.301 33.6916C107.241 34.3657 107.597 35.042 107.47 35.7078C107.449 35.8076 107.459 35.9115 107.5 36.0048C107.542 36.0981 107.611 36.1762 107.699 36.228C107.89 36.3056 108.089 36.3601 108.293 36.3903C108.684 36.4902 109.028 36.7378 109.421 36.8315C109.604 36.8751 109.793 36.8835 109.974 36.9313C110.234 37 110.469 37.1394 110.733 37.1956C110.93 37.231 111.134 37.206 111.336 37.2226C111.538 37.2393 111.681 37.283 111.854 37.2892C112.069 37.2821 112.279 37.229 112.472 37.1335C112.665 37.038 112.835 36.9024 112.971 36.7357C113.237 36.381 113.454 35.9909 113.613 35.5767Z" fill="#F86D70"/>
<path opacity="0.1" d="M113.613 35.5767C113.185 35.4617 112.744 35.4071 112.301 35.4144C111.563 35.4248 110.801 35.6038 110.099 35.377C109.917 35.3141 109.74 35.2376 109.57 35.1481C109.425 35.0857 109.292 34.9983 109.177 34.8901C108.828 34.5176 108.676 33.96 108.568 33.4627C108.471 32.9618 108.415 32.4537 108.402 31.9437C108.225 32.0422 108.027 32.0945 107.825 32.0956C107.725 32.0926 107.629 32.0532 107.555 31.9848C107.481 31.9163 107.435 31.8233 107.424 31.7231C107.469 32.1943 107.46 32.669 107.397 33.1381C107.366 33.3233 107.318 33.5043 107.301 33.6916C107.241 34.3657 107.597 35.042 107.47 35.7078C107.449 35.8076 107.459 35.9115 107.5 36.0048C107.542 36.0981 107.611 36.1762 107.699 36.228C107.89 36.3056 108.089 36.3601 108.293 36.3903C108.684 36.4902 109.028 36.7378 109.421 36.8315C109.604 36.8751 109.793 36.8835 109.974 36.9313C110.234 37 110.469 37.1394 110.733 37.1956C110.93 37.231 111.134 37.206 111.336 37.2226C111.538 37.2393 111.681 37.283 111.854 37.2892C112.069 37.2821 112.279 37.229 112.472 37.1335C112.665 37.038 112.835 36.9024 112.971 36.7357C113.237 36.381 113.454 35.9909 113.613 35.5767Z" fill="black"/>
<g opacity="0.1">
<path opacity="0.1" d="M84.5183 111.604V112.676C84.5183 113.741 84.0954 114.762 83.3427 115.515C82.5899 116.269 81.569 116.692 80.5045 116.692C79.44 116.692 78.4191 116.269 77.6663 115.515C76.9136 114.762 76.4907 113.741 76.4907 112.676V111.604C76.4907 110.539 76.9136 109.518 77.6663 108.764C78.4191 108.011 79.44 107.588 80.5045 107.588C81.569 107.588 82.5899 108.011 83.3427 108.764C84.0954 109.518 84.5183 110.539 84.5183 111.604Z" fill="#3F3D56"/>
<path opacity="0.1" d="M76.4907 94.4669V93.3974C76.4907 92.3323 76.9136 91.3108 77.6663 90.5577C78.4191 89.8046 79.44 89.3815 80.5045 89.3815C81.569 89.3815 82.59 89.8046 83.3427 90.5577C84.0954 91.3108 84.5183 92.3323 84.5183 93.3974V94.4669C84.5186 94.8603 84.4604 95.2516 84.3457 95.628C84.0692 96.5521 83.4694 97.3457 82.656 97.8636C81.8425 98.3814 80.8699 98.5888 79.9161 98.4478C78.9623 98.3068 78.0912 97.8269 77.4622 97.0958C76.8331 96.3648 76.4883 95.4315 76.4907 94.4669Z" fill="#3F3D56"/>
<path opacity="0.1" d="M84.5183 102.492V103.564C84.5183 104.629 84.0954 105.65 83.3427 106.404C82.5899 107.157 81.569 107.58 80.5045 107.58C79.44 107.58 78.4191 107.157 77.6663 106.404C76.9136 105.65 76.4907 104.629 76.4907 103.564V102.492C76.4907 101.427 76.9136 100.406 77.6663 99.6527C78.4191 98.8995 79.44 98.4764 80.5045 98.4764C81.569 98.4764 82.5899 98.8995 83.3427 99.6527C84.0954 100.406 84.5183 101.427 84.5183 102.492Z" fill="#3F3D56"/>
<path opacity="0.1" d="M80.5045 116.692C81.5684 116.695 82.5877 117.119 83.3398 117.872C84.0918 118.625 84.5155 119.645 84.5183 120.71V121.779C84.5183 122.844 84.0954 123.866 83.3427 124.619C82.5899 125.372 81.569 125.795 80.5045 125.795C79.44 125.795 78.4191 125.372 77.6663 124.619C76.9136 123.866 76.4907 122.844 76.4907 121.779V120.71C76.4935 119.645 76.9172 118.625 77.6692 117.872C78.4213 117.119 79.4406 116.695 80.5045 116.692Z" fill="#3F3D56"/>
<path opacity="0.1" d="M76.4907 93.4993V94.4668C76.4888 95.4313 76.834 96.3642 77.4632 97.0949C78.0924 97.8255 78.9635 98.3051 79.9171 98.4458C80.8708 98.5865 81.8432 98.379 82.6564 97.8611C83.4696 97.3433 84.0693 96.5498 84.3457 95.6258L76.4907 93.4993Z" fill="black"/>
<path opacity="0.1" d="M76.4907 102.603V103.572C76.4917 104.535 76.8382 105.465 77.4673 106.194C78.0963 106.922 78.966 107.401 79.9179 107.541C80.8698 107.682 81.8405 107.476 82.6532 106.96C83.4659 106.445 84.0665 105.655 84.3457 104.733L76.4907 102.603Z" fill="black"/>
<path opacity="0.1" d="M76.4907 111.708V112.676C76.4917 113.638 76.8382 114.569 77.4673 115.297C78.0963 116.026 78.966 116.504 79.9179 116.645C80.8698 116.785 81.8405 116.579 82.6532 116.064C83.4659 115.548 84.0665 114.758 84.3457 113.837L76.4907 111.708Z" fill="black"/>
<path opacity="0.1" d="M76.4907 120.803V121.771C76.4883 122.736 76.8331 123.669 77.4622 124.4C78.0912 125.131 78.9623 125.611 79.9161 125.752C80.8699 125.893 81.8425 125.685 82.656 125.168C83.4694 124.65 84.0692 123.856 84.3457 122.932L76.4907 120.803Z" fill="black"/>
<path opacity="0.1" d="M68.1099 103.641L68.4302 103.887C68.7181 104.107 69.0755 104.217 69.4373 104.196C69.7992 104.175 70.1417 104.026 70.4028 103.774C70.6638 103.522 70.8261 103.185 70.8603 102.824C70.8944 102.463 70.7981 102.102 70.5889 101.806C70.5036 101.684 70.4005 101.576 70.2832 101.485L69.9629 101.244C69.6444 100.998 69.2413 100.889 68.8423 100.94C68.4433 100.992 68.0811 101.2 67.8354 101.519C67.5897 101.837 67.4805 102.241 67.532 102.64C67.5835 103.039 67.7914 103.401 68.1099 103.647V103.641Z" fill="#3F3D56"/>
<path opacity="0.1" d="M72.6846 103.337L73.0048 103.585C73.3234 103.831 73.5312 104.193 73.5827 104.592C73.6342 104.991 73.5251 105.395 73.2794 105.713C73.0336 106.032 72.6714 106.24 72.2725 106.292C71.8735 106.343 71.4704 106.234 71.1518 105.988L70.8316 105.741C70.513 105.495 70.3052 105.132 70.2537 104.733C70.2022 104.334 70.3113 103.931 70.5571 103.612C70.8028 103.293 71.165 103.085 71.564 103.034C71.9629 102.982 72.366 103.091 72.6846 103.337Z" fill="#3F3D56"/>
<path opacity="0.1" d="M75.4048 105.439L75.725 105.686C76.0436 105.932 76.2514 106.295 76.3029 106.694C76.3544 107.093 76.2453 107.496 75.9996 107.815C75.7538 108.134 75.3916 108.342 74.9927 108.393C74.5937 108.445 74.1906 108.336 73.8721 108.09L73.5518 107.842C73.2333 107.596 73.0254 107.234 72.9739 106.835C72.9224 106.435 73.0315 106.032 73.2773 105.713C73.523 105.395 73.8852 105.187 74.2842 105.135C74.6832 105.084 75.0862 105.193 75.4048 105.439Z" fill="#3F3D56"/>
<path opacity="0.1" d="M78.1272 107.54L78.4475 107.788C78.6052 107.91 78.7374 108.061 78.8366 108.234C78.9357 108.407 78.9999 108.598 79.0253 108.795C79.0508 108.993 79.0372 109.194 78.9851 109.386C78.9331 109.579 78.8437 109.759 78.722 109.917C78.6003 110.074 78.4488 110.207 78.276 110.306C78.1032 110.405 77.9126 110.469 77.7151 110.495C77.5175 110.52 77.3169 110.507 77.1246 110.455C76.9323 110.402 76.7522 110.313 76.5945 110.191L76.27 109.944C76.1123 109.822 75.9801 109.67 75.881 109.497C75.7818 109.325 75.7177 109.134 75.6922 108.936C75.6667 108.739 75.6803 108.538 75.7324 108.345C75.7844 108.153 75.8739 107.973 75.9955 107.815C76.1172 107.657 76.2687 107.525 76.4415 107.426C76.6143 107.327 76.8049 107.262 77.0024 107.237C77.2 107.211 77.4006 107.225 77.5929 107.277C77.7852 107.329 77.9653 107.419 78.123 107.54H78.1272Z" fill="#3F3D56"/>
<path opacity="0.1" d="M68.1382 103.664L68.4293 103.887C68.7173 104.107 69.0746 104.217 69.4365 104.196C69.7984 104.175 70.1409 104.026 70.402 103.774C70.663 103.522 70.8253 103.185 70.8594 102.824C70.8936 102.463 70.7973 102.102 70.588 101.806L68.1382 103.664Z" fill="black"/>
<path opacity="0.1" d="M70.8633 105.766L71.1544 105.988C71.4424 106.209 71.7997 106.318 72.1616 106.298C72.5235 106.277 72.866 106.127 73.1271 105.876C73.3881 105.624 73.5504 105.287 73.5845 104.926C73.6187 104.565 73.5224 104.204 73.3131 103.907L70.8633 105.766Z" fill="black"/>
<path opacity="0.1" d="M73.5835 107.867L73.8726 108.09C74.1604 108.312 74.5183 108.423 74.8811 108.403C75.2439 108.383 75.5874 108.233 75.8492 107.981C76.111 107.729 76.2736 107.391 76.3074 107.029C76.3412 106.667 76.244 106.305 76.0334 106.009L73.5835 107.867Z" fill="black"/>
<path opacity="0.1" d="M69.5329 53.7669C68.9273 53.7539 68.3252 53.8621 67.7619 54.085C67.1986 54.3079 66.6855 54.6411 66.2526 55.0651C65.8197 55.489 65.4758 55.9952 65.241 56.5539C65.0062 57.1126 64.8853 57.7125 64.8853 58.3186C64.8853 58.9247 65.0062 59.5246 65.241 60.0833C65.4758 60.642 65.8197 61.1482 66.2526 61.5721C66.6855 61.9961 67.1986 62.3293 67.7619 62.5522C68.3252 62.7751 68.9273 62.8833 69.5329 62.8703C68.9273 62.8573 68.3252 62.9655 67.7619 63.1884C67.1986 63.4114 66.6855 63.7446 66.2526 64.1685C65.8197 64.5925 65.4758 65.0986 65.241 65.6573C65.0062 66.216 64.8853 66.8159 64.8853 67.422C64.8853 68.0281 65.0062 68.628 65.241 69.1867C65.4758 69.7454 65.8197 70.2516 66.2526 70.6755C66.6855 71.0995 67.1986 71.4327 67.7619 71.6556C68.3252 71.8785 68.9273 71.9867 69.5329 71.9737C68.3261 71.9737 67.1687 72.4534 66.3153 73.3072C65.462 74.161 64.9825 75.319 64.9825 76.5265C64.9825 77.7339 65.462 78.8919 66.3153 79.7457C67.1687 80.5995 68.3261 81.0792 69.5329 81.0792C68.9273 81.0663 68.3252 81.1744 67.7619 81.3973C67.1986 81.6203 66.6855 81.9535 66.2526 82.3774C65.8197 82.8013 65.4758 83.3075 65.241 83.8662C65.0062 84.4249 64.8853 85.0249 64.8853 85.6309C64.8853 86.237 65.0062 86.8369 65.241 87.3956C65.4758 87.9543 65.8197 88.4605 66.2526 88.8844C66.6855 89.3084 67.1986 89.6416 67.7619 89.8645C68.3252 90.0874 68.9273 90.1956 69.5329 90.1826H91.4776C92.0832 90.1956 92.6853 90.0874 93.2486 89.8645C93.8119 89.6416 94.325 89.3084 94.7579 88.8844C95.1908 88.4605 95.5347 87.9543 95.7695 87.3956C96.0043 86.8369 96.1252 86.237 96.1252 85.6309C96.1252 85.0249 96.0043 84.4249 95.7695 83.8662C95.5347 83.3075 95.1908 82.8013 94.7579 82.3774C94.325 81.9535 93.8119 81.6203 93.2486 81.3973C92.6853 81.1744 92.0832 81.0663 91.4776 81.0792C92.6845 81.0792 93.8418 80.5995 94.6952 79.7457C95.5486 78.8919 96.028 77.7339 96.028 76.5265C96.028 75.319 95.5486 74.161 94.6952 73.3072C93.8418 72.4534 92.6845 71.9737 91.4776 71.9737C92.0832 71.9867 92.6853 71.8785 93.2486 71.6556C93.8119 71.4327 94.325 71.0995 94.7579 70.6755C95.1908 70.2516 95.5347 69.7454 95.7695 69.1867C96.0043 68.628 96.1252 68.0281 96.1252 67.422C96.1252 66.8159 96.0043 66.216 95.7695 65.6573C95.5347 65.0986 95.1908 64.5925 94.7579 64.1685C94.325 63.7446 93.8119 63.4114 93.2486 63.1884C92.6853 62.9655 92.0832 62.8573 91.4776 62.8703C92.0832 62.8833 92.6853 62.7751 93.2486 62.5522C93.8119 62.3293 94.325 61.9961 94.7579 61.5721C95.1908 61.1482 95.5347 60.642 95.7695 60.0833C96.0043 59.5246 96.1252 58.9247 96.1252 58.3186C96.1252 57.7125 96.0043 57.1126 95.7695 56.5539C95.5347 55.9952 95.1908 55.489 94.7579 55.0651C94.325 54.6411 93.8119 54.3079 93.2486 54.085C92.6853 53.8621 92.0832 53.7539 91.4776 53.7669C92.6845 53.7669 93.8418 53.2872 94.6952 52.4334C95.5486 51.5796 96.028 50.4216 96.028 49.2142C96.028 48.0067 95.5486 46.8487 94.6952 45.9949C93.8418 45.1411 92.6845 44.6614 91.4776 44.6614C92.0832 44.6744 92.6853 44.5662 93.2486 44.3433C93.8119 44.1204 94.325 43.7872 94.7579 43.3632C95.1908 42.9393 95.5347 42.4331 95.7695 41.8744C96.0043 41.3157 96.1252 40.7158 96.1252 40.1097C96.1252 39.5036 96.0043 38.9037 95.7695 38.345C95.5347 37.7863 95.1908 37.2801 94.7579 36.8562C94.325 36.4322 93.8119 36.099 93.2486 35.8761C92.6853 35.6532 92.0832 35.545 91.4776 35.558H90.4752C89.8991 31.642 85.484 28.5957 80.1039 28.5957C74.7237 28.5957 70.3086 31.642 69.7325 35.558H69.5246C68.919 35.545 68.3169 35.6532 67.7536 35.8761C67.1903 36.099 66.6772 36.4322 66.2443 36.8562C65.8114 37.2801 65.4675 37.7863 65.2327 38.345C64.9979 38.9037 64.877 39.5036 64.877 40.1097C64.877 40.7158 64.9979 41.3157 65.2327 41.8744C65.4675 42.4331 65.8114 42.9393 66.2443 43.3632C66.6772 43.7872 67.1903 44.1204 67.7536 44.3433C68.3169 44.5662 68.919 44.6744 69.5246 44.6614C68.3177 44.6614 67.1603 45.1411 66.307 45.9949C65.4536 46.8487 64.9742 48.0067 64.9742 49.2142C64.9742 50.4216 65.4536 51.5796 66.307 52.4334C67.1603 53.2872 68.3177 53.7669 69.5246 53.7669H69.5329Z" fill="#080B24"/>
<path opacity="0.1" d="M64.9819 40.1085C64.9852 41.315 65.4657 42.4711 66.3183 43.3242C67.171 44.1773 68.3265 44.658 69.5323 44.6613H91.477L69.6654 35.5579H69.5323C68.3268 35.5612 67.1716 36.0416 66.3191 36.8942C65.4665 37.7469 64.9858 38.9024 64.9819 40.1085Z" fill="black"/>
<path opacity="0.1" d="M95.8945 49.2244C95.8879 50.4298 95.4064 51.584 94.5545 52.4364C93.7025 53.2888 92.5489 53.7706 91.3441 53.7771H69.4077L91.2214 44.6716H91.3546C92.5575 44.6809 93.7085 45.1639 94.5582 46.016C95.4079 46.8681 95.888 48.0207 95.8945 49.2244Z" fill="black"/>
<path opacity="0.1" d="M95.8945 67.423C95.8906 68.6291 95.4099 69.7846 94.5573 70.6373C93.7048 71.4899 92.5496 71.9703 91.3441 71.9736H69.4077L91.2214 62.8702H91.3546C92.5586 62.8763 93.7114 63.3582 94.5618 64.211C95.4122 65.0638 95.8912 66.2183 95.8945 67.423Z" fill="black"/>
<path opacity="0.1" d="M95.8945 85.638C95.8906 86.844 95.4099 87.9996 94.5573 88.8523C93.7048 89.7049 92.5496 90.1853 91.3441 90.1886H69.4077L91.2214 81.0852H91.3546C92.5586 81.0912 93.7114 81.5732 94.5618 82.426C95.4122 83.2788 95.8912 84.4333 95.8945 85.638Z" fill="black"/>
<path opacity="0.1" d="M64.9819 58.3174C64.9852 59.5238 65.4657 60.6799 66.3183 61.533C67.171 62.3861 68.3265 62.8668 69.5323 62.8701H91.477L69.6654 53.7667H69.5323C68.3268 53.77 67.1716 54.2505 66.3191 55.1031C65.4665 55.9557 64.9858 57.1113 64.9819 58.3174Z" fill="black"/>
<path opacity="0.1" d="M64.9819 76.5264C64.9885 77.7318 65.47 78.886 66.3219 79.7384C67.1739 80.5908 68.3275 81.0726 69.5323 81.0791H91.477L69.6654 71.9736H69.5323C68.3275 71.9802 67.1739 72.462 66.3219 73.3143C65.47 74.1667 64.9885 75.3209 64.9819 76.5264Z" fill="black"/>
<path opacity="0.1" d="M67.4961 108.339L74.7229 104.446C75.1026 104.223 75.381 103.861 75.4995 103.437C75.6181 103.013 75.5675 102.559 75.3585 102.171C75.1494 101.783 74.7982 101.492 74.3787 101.357C73.9592 101.223 73.5041 101.257 73.1091 101.452C73.3059 101.346 73.4799 101.203 73.6212 101.029C73.7625 100.856 73.8683 100.657 73.9326 100.443C73.9969 100.229 74.0185 100.004 73.996 99.7817C73.9735 99.5593 73.9075 99.3435 73.8017 99.1466C73.6958 98.9497 73.5523 98.7756 73.3792 98.6343C73.2061 98.4929 73.0069 98.387 72.7929 98.3227C72.579 98.2583 72.3544 98.2368 72.1321 98.2593C71.9098 98.2818 71.6941 98.3478 71.4974 98.4537L71.1667 98.6327C70.2828 97.4445 68.2863 97.2261 66.5165 98.179C64.7467 99.132 63.8317 100.919 64.335 102.311L64.2705 102.347C64.0737 102.453 63.8997 102.596 63.7584 102.77C63.6171 102.943 63.5113 103.142 63.447 103.356C63.3827 103.57 63.3612 103.795 63.3836 104.017C63.4061 104.24 63.4721 104.455 63.578 104.652C63.6838 104.849 63.8273 105.023 64.0004 105.165C64.1735 105.306 64.3727 105.412 64.5867 105.476C64.8006 105.541 65.0252 105.562 65.2475 105.54C65.4698 105.517 65.6855 105.451 65.8822 105.345C65.4848 105.559 65.1887 105.923 65.0591 106.355C64.9294 106.788 64.9767 107.254 65.1908 107.652C65.4048 108.049 65.7679 108.346 66.2002 108.475C66.6325 108.605 67.0987 108.558 67.4961 108.344V108.339Z" fill="#080B24"/>
<path opacity="0.1" d="M63.5838 104.648C63.7987 105.045 64.1616 105.34 64.5933 105.47C65.0249 105.599 65.4904 105.553 65.8881 105.341L73.1087 101.452L64.3138 102.324L64.2701 102.347C63.8761 102.563 63.5831 102.926 63.4546 103.356C63.3261 103.787 63.3725 104.251 63.5838 104.648Z" fill="black"/>
<path opacity="0.1" d="M75.37 102.164C75.5828 102.561 75.6296 103.027 75.5003 103.459C75.3709 103.891 75.0758 104.254 74.6795 104.469L67.4526 108.362L73.022 101.496L73.0657 101.471C73.4634 101.259 73.9289 101.212 74.3606 101.342C74.7922 101.472 75.1551 101.767 75.37 102.164Z" fill="black"/>
</g>
<g opacity="0.1">
<path opacity="0.1" d="M45.5205 121.392V121.698C45.5079 121.995 45.3811 122.276 45.1666 122.482C44.9521 122.687 44.6665 122.802 44.3694 122.802C44.0723 122.802 43.7867 122.687 43.5722 122.482C43.3577 122.276 43.2309 121.995 43.2183 121.698V121.392C43.2117 121.237 43.2366 121.082 43.2915 120.936C43.3463 120.791 43.4301 120.658 43.5376 120.546C43.6452 120.434 43.7743 120.344 43.9172 120.283C44.0602 120.222 44.214 120.191 44.3694 120.191C44.5249 120.191 44.6787 120.222 44.8216 120.283C44.9646 120.344 45.0937 120.434 45.2012 120.546C45.3088 120.658 45.3925 120.791 45.4474 120.936C45.5022 121.082 45.5271 121.237 45.5205 121.392Z" fill="#3F3D56"/>
<path opacity="0.1" d="M43.2183 116.48V116.172C43.2309 115.875 43.3577 115.594 43.5722 115.388C43.7867 115.183 44.0723 115.068 44.3694 115.068C44.6665 115.068 44.9521 115.183 45.1666 115.388C45.3811 115.594 45.5079 115.875 45.5205 116.172V116.48C45.5208 116.592 45.504 116.705 45.4706 116.813C45.3916 117.078 45.2197 117.306 44.9864 117.455C44.7531 117.603 44.4739 117.663 44.2002 117.622C43.9265 117.582 43.6766 117.444 43.4962 117.234C43.3159 117.024 43.2172 116.756 43.2183 116.48Z" fill="#3F3D56"/>
<path opacity="0.1" d="M45.5205 118.783V119.089C45.5079 119.386 45.3811 119.667 45.1666 119.872C44.9521 120.078 44.6665 120.193 44.3694 120.193C44.0723 120.193 43.7867 120.078 43.5722 119.872C43.3577 119.667 43.2309 119.386 43.2183 119.089V118.783C43.2117 118.628 43.2366 118.473 43.2915 118.327C43.3463 118.182 43.4301 118.049 43.5376 117.937C43.6452 117.824 43.7743 117.735 43.9172 117.674C44.0602 117.613 44.214 117.581 44.3694 117.581C44.5249 117.581 44.6787 117.613 44.8216 117.674C44.9646 117.735 45.0937 117.824 45.2012 117.937C45.3088 118.049 45.3925 118.182 45.4474 118.327C45.5022 118.473 45.5271 118.628 45.5205 118.783Z" fill="#3F3D56"/>
<path opacity="0.1" d="M44.3705 122.849C44.6755 122.85 44.9677 122.972 45.1832 123.188C45.3987 123.404 45.52 123.696 45.5205 124.002V124.308C45.5271 124.463 45.5022 124.618 45.4474 124.763C45.3925 124.909 45.3088 125.042 45.2012 125.154C45.0937 125.266 44.9646 125.356 44.8216 125.417C44.6787 125.478 44.5249 125.509 44.3694 125.509C44.214 125.509 44.0602 125.478 43.9172 125.417C43.7743 125.356 43.6452 125.266 43.5376 125.154C43.4301 125.042 43.3463 124.909 43.2915 124.763C43.2366 124.618 43.2117 124.463 43.2183 124.308V124.002C43.2189 123.696 43.3404 123.403 43.5564 123.187C43.7723 122.971 44.0651 122.849 44.3705 122.849Z" fill="#3F3D56"/>
<path opacity="0.1" d="M43.2183 116.203V116.48C43.2172 116.757 43.3159 117.024 43.4962 117.234C43.6766 117.444 43.9265 117.582 44.2002 117.623C44.4739 117.663 44.7531 117.603 44.9864 117.455C45.2197 117.306 45.3916 117.078 45.4706 116.813L43.2183 116.203Z" fill="black"/>
<path opacity="0.1" d="M43.2183 118.812V119.089C43.2172 119.366 43.3159 119.634 43.4962 119.844C43.6766 120.054 43.9265 120.191 44.2002 120.232C44.4739 120.272 44.7531 120.213 44.9864 120.064C45.2197 119.915 45.3916 119.687 45.4706 119.422L43.2183 118.812Z" fill="black"/>
<path opacity="0.1" d="M43.2183 121.428V121.704C43.2172 121.981 43.3159 122.249 43.4962 122.459C43.6766 122.669 43.9265 122.807 44.2002 122.847C44.4739 122.888 44.7531 122.828 44.9864 122.679C45.2197 122.531 45.3916 122.303 45.4706 122.037L43.2183 121.428Z" fill="black"/>
<path opacity="0.1" d="M43.2183 124.031V124.308C43.2172 124.584 43.3159 124.852 43.4962 125.062C43.6766 125.272 43.9265 125.41 44.2002 125.45C44.4739 125.491 44.7531 125.431 44.9864 125.282C45.2197 125.134 45.3916 124.906 45.4706 124.64L43.2183 124.031Z" fill="black"/>
<path opacity="0.1" d="M40.8161 119.108L40.9076 119.181C40.9897 119.248 41.0939 119.284 41.2004 119.28C41.3068 119.276 41.4082 119.233 41.4852 119.16C41.5622 119.086 41.6094 118.987 41.618 118.88C41.6265 118.774 41.5957 118.668 41.5315 118.583C41.5074 118.548 41.478 118.516 41.4442 118.49L41.3527 118.419C41.3075 118.384 41.2558 118.358 41.2007 118.343C41.1456 118.328 41.088 118.324 41.0313 118.332C40.9747 118.339 40.92 118.357 40.8704 118.386C40.8208 118.414 40.7773 118.452 40.7423 118.497C40.7073 118.542 40.6816 118.594 40.6666 118.649C40.6516 118.704 40.6476 118.762 40.6549 118.819C40.6621 118.875 40.6805 118.93 40.7088 118.98C40.7372 119.029 40.7751 119.073 40.8203 119.108H40.8161Z" fill="#3F3D56"/>
<path opacity="0.1" d="M42.1281 119.022L42.2196 119.093C42.2666 119.127 42.3063 119.171 42.3363 119.22C42.3663 119.27 42.386 119.325 42.3943 119.383C42.4026 119.44 42.3993 119.499 42.3845 119.555C42.3698 119.612 42.3439 119.664 42.3084 119.71C42.273 119.756 42.2286 119.795 42.1781 119.823C42.1275 119.852 42.0717 119.87 42.0139 119.877C41.9562 119.884 41.8977 119.879 41.842 119.862C41.7862 119.846 41.7343 119.819 41.6893 119.782L41.5957 119.711C41.5044 119.64 41.4449 119.536 41.4303 119.422C41.4156 119.307 41.4471 119.192 41.5177 119.1C41.5883 119.009 41.6923 118.95 41.8067 118.935C41.9212 118.92 42.0368 118.952 42.1281 119.022Z" fill="#3F3D56"/>
<path opacity="0.1" d="M42.9079 119.624L42.9994 119.694C43.0903 119.765 43.1496 119.869 43.1644 119.984C43.1792 120.098 43.1483 120.214 43.0784 120.306C43.0078 120.397 42.9039 120.456 42.7897 120.471C42.6754 120.485 42.5601 120.454 42.4691 120.383L42.3776 120.312C42.2899 120.241 42.2336 120.138 42.2206 120.025C42.2077 119.913 42.239 119.8 42.3081 119.71C42.3772 119.62 42.4785 119.561 42.5905 119.545C42.7025 119.529 42.8163 119.557 42.9079 119.624Z" fill="#3F3D56"/>
<path opacity="0.1" d="M43.6877 120.227L43.7792 120.298C43.8262 120.332 43.8659 120.375 43.8959 120.425C43.9259 120.475 43.9457 120.53 43.9539 120.588C43.9622 120.645 43.9589 120.704 43.9441 120.76C43.9294 120.816 43.9035 120.869 43.868 120.915C43.8326 120.961 43.7883 121 43.7377 121.028C43.6871 121.057 43.6313 121.075 43.5736 121.082C43.5158 121.088 43.4574 121.083 43.4016 121.067C43.3458 121.051 43.2939 121.023 43.2489 120.987L43.1574 120.916C43.0697 120.844 43.0134 120.741 43.0004 120.629C42.9875 120.516 43.0188 120.403 43.0879 120.314C43.1569 120.224 43.2583 120.165 43.3703 120.148C43.4823 120.132 43.5961 120.161 43.6877 120.227Z" fill="#3F3D56"/>
<path opacity="0.1" d="M40.8242 119.116L40.9074 119.181C40.9895 119.249 41.0937 119.284 41.2001 119.28C41.3066 119.276 41.408 119.233 41.4849 119.16C41.5619 119.086 41.6092 118.987 41.6177 118.88C41.6263 118.774 41.5955 118.668 41.5313 118.583L40.8242 119.116Z" fill="black"/>
<path opacity="0.1" d="M41.606 119.717L41.6891 119.782C41.7712 119.85 41.8754 119.885 41.9819 119.881C42.0883 119.878 42.1897 119.835 42.2667 119.761C42.3437 119.687 42.3909 119.588 42.3995 119.482C42.408 119.375 42.3773 119.27 42.313 119.185L41.606 119.717Z" fill="black"/>
<path opacity="0.1" d="M42.3862 120.321L42.4694 120.383C42.5605 120.454 42.6758 120.485 42.79 120.471C42.9043 120.456 43.0081 120.397 43.0788 120.306C43.1339 120.231 43.1636 120.139 43.1636 120.046C43.1636 119.952 43.1339 119.861 43.0788 119.786L42.3862 120.321Z" fill="black"/>
<path opacity="0.1" d="M41.2249 104.813C40.879 104.813 40.5474 104.95 40.3028 105.195C40.0583 105.439 39.9209 105.771 39.9209 106.117C39.9209 106.463 40.0583 106.795 40.3028 107.04C40.5474 107.284 40.879 107.422 41.2249 107.422C40.8878 107.435 40.569 107.579 40.3352 107.822C40.1015 108.066 39.9709 108.39 39.9709 108.728C39.9709 109.065 40.1015 109.39 40.3352 109.633C40.569 109.876 40.8878 110.02 41.2249 110.033C40.879 110.033 40.5474 110.171 40.3028 110.415C40.0583 110.66 39.9209 110.992 39.9209 111.338C39.9209 111.684 40.0583 112.016 40.3028 112.26C40.5474 112.505 40.879 112.643 41.2249 112.643C40.879 112.643 40.5474 112.78 40.3028 113.025C40.0583 113.269 39.9209 113.601 39.9209 113.947C39.9209 114.293 40.0583 114.625 40.3028 114.87C40.5474 115.114 40.879 115.252 41.2249 115.252H47.5159C47.8617 115.252 48.1934 115.114 48.4379 114.87C48.6825 114.625 48.8198 114.293 48.8198 113.947C48.8198 113.601 48.6825 113.269 48.4379 113.025C48.1934 112.78 47.8617 112.643 47.5159 112.643C47.8617 112.643 48.1934 112.505 48.4379 112.26C48.6825 112.016 48.8198 111.684 48.8198 111.338C48.8198 110.992 48.6825 110.66 48.4379 110.415C48.1934 110.171 47.8617 110.033 47.5159 110.033C47.853 110.02 48.1718 109.876 48.4055 109.633C48.6393 109.39 48.7698 109.065 48.7698 108.728C48.7698 108.39 48.6393 108.066 48.4055 107.822C48.1718 107.579 47.853 107.435 47.5159 107.422C47.8617 107.422 48.1934 107.284 48.4379 107.04C48.6825 106.795 48.8198 106.463 48.8198 106.117C48.8198 105.771 48.6825 105.439 48.4379 105.195C48.1934 104.95 47.8617 104.813 47.5159 104.813C47.8617 104.813 48.1934 104.675 48.4379 104.43C48.6825 104.186 48.8198 103.854 48.8198 103.508C48.8198 103.162 48.6825 102.83 48.4379 102.585C48.1934 102.341 47.8617 102.203 47.5159 102.203C47.8617 102.203 48.1934 102.066 48.4379 101.821C48.6825 101.576 48.8198 101.245 48.8198 100.899C48.8198 100.553 48.6825 100.221 48.4379 99.9761C48.1934 99.7314 47.8617 99.594 47.5159 99.594H47.2289C47.0625 98.4724 45.796 97.5985 44.2549 97.5985C42.7139 97.5985 41.4474 98.4724 41.2831 99.594H41.2249C40.879 99.594 40.5474 99.7314 40.3028 99.9761C40.0583 100.221 39.9209 100.553 39.9209 100.899C39.9209 101.245 40.0583 101.576 40.3028 101.821C40.5474 102.066 40.879 102.203 41.2249 102.203C40.879 102.203 40.5474 102.341 40.3028 102.585C40.0583 102.83 39.9209 103.162 39.9209 103.508C39.9209 103.854 40.0583 104.186 40.3028 104.43C40.5474 104.675 40.879 104.813 41.2249 104.813Z" fill="#080B24"/>
<path opacity="0.1" d="M39.9199 100.899C39.921 101.244 40.0588 101.576 40.3031 101.82C40.5474 102.065 40.8784 102.202 41.2239 102.203H47.5149L41.2634 99.5941H41.2239C40.8784 99.5952 40.5474 99.733 40.3031 99.9775C40.0588 100.222 39.921 100.553 39.9199 100.899Z" fill="black"/>
<path opacity="0.1" d="M48.781 103.508C48.7799 103.854 48.6422 104.185 48.3979 104.429C48.1536 104.674 47.8226 104.812 47.4771 104.813H41.186L47.4375 102.203H47.4771C47.8226 102.204 48.1536 102.342 48.3979 102.587C48.6422 102.831 48.7799 103.162 48.781 103.508Z" fill="black"/>
<path opacity="0.1" d="M48.781 108.735C48.7794 109.08 48.6415 109.411 48.3973 109.656C48.1531 109.9 47.8224 110.038 47.4771 110.04H41.186L47.4375 107.428H47.4771C47.8227 107.43 48.1538 107.568 48.398 107.813C48.6423 108.058 48.7799 108.389 48.781 108.735Z" fill="black"/>
<path opacity="0.1" d="M48.781 113.947C48.7799 114.293 48.6422 114.624 48.3979 114.869C48.1536 115.113 47.8226 115.251 47.4771 115.252H41.186L47.4375 112.643H47.4771C47.8226 112.644 48.1536 112.781 48.3979 113.026C48.6422 113.27 48.7799 113.602 48.781 113.947Z" fill="black"/>
<path opacity="0.1" d="M39.9199 106.117C39.921 106.463 40.0588 106.794 40.3031 107.039C40.5474 107.283 40.8784 107.421 41.2239 107.422H47.5149L41.2634 104.813H41.2239C40.8784 104.814 40.5474 104.952 40.3031 105.196C40.0588 105.44 39.921 105.772 39.9199 106.117Z" fill="black"/>
<path opacity="0.1" d="M39.9199 111.338C39.921 111.684 40.0588 112.015 40.3031 112.259C40.5474 112.504 40.8784 112.642 41.2239 112.643H47.5149L41.2634 110.033H41.2239C40.8784 110.034 40.5474 110.172 40.3031 110.417C40.0588 110.661 39.921 110.992 39.9199 111.338Z" fill="black"/>
<path opacity="0.1" d="M40.6409 120.456L42.7206 119.339C42.6031 119.257 42.503 119.152 42.4261 119.031C42.3492 118.91 42.297 118.776 42.2724 118.634C42.2479 118.493 42.2515 118.348 42.2831 118.209C42.3146 118.069 42.3736 117.937 42.4564 117.82C42.4261 117.763 42.3849 117.713 42.3352 117.673C42.2855 117.632 42.2283 117.602 42.1669 117.583C42.1054 117.565 42.0409 117.559 41.9771 117.566C41.9133 117.572 41.8515 117.591 41.7951 117.622L41.7015 117.672C41.4478 117.333 40.8696 117.268 40.3684 117.543C39.8672 117.818 39.599 118.328 39.7445 118.727L39.7258 118.737C39.8433 118.819 39.9433 118.924 40.0202 119.045C40.0972 119.166 40.1494 119.301 40.174 119.442C40.1985 119.583 40.1949 119.728 40.1633 119.868C40.1317 120.007 40.0728 120.14 39.9899 120.256C40.0512 120.368 40.1534 120.451 40.2749 120.488C40.3964 120.526 40.5277 120.514 40.6409 120.456Z" fill="#080B24"/>
<path opacity="0.1" d="M39.5183 119.397C39.5479 119.454 39.5885 119.505 39.6379 119.546C39.6872 119.588 39.7442 119.619 39.8057 119.639C39.8672 119.658 39.9318 119.665 39.996 119.659C40.0602 119.653 40.1226 119.635 40.1796 119.605L42.2593 118.49L39.7283 118.723H39.7159C39.6579 118.753 39.6066 118.795 39.5651 118.846C39.5236 118.897 39.4928 118.955 39.4743 119.018C39.4559 119.081 39.4503 119.147 39.4578 119.212C39.4654 119.277 39.486 119.34 39.5183 119.397Z" fill="black"/>
<path opacity="0.1" d="M42.8979 118.685C42.9586 118.799 42.9719 118.933 42.935 119.057C42.898 119.18 42.8136 119.285 42.7003 119.347L40.6206 120.462L42.2157 118.494H42.2282C42.2847 118.462 42.3469 118.442 42.4112 118.434C42.4755 118.427 42.5406 118.432 42.6028 118.45C42.6651 118.468 42.7232 118.498 42.7738 118.538C42.8245 118.578 42.8666 118.628 42.8979 118.685Z" fill="black"/>
</g>
<g opacity="0.1">
<path opacity="0.1" d="M157.432 109.151V110.456C157.432 111.754 157.947 112.999 158.865 113.918C159.783 114.836 161.027 115.352 162.325 115.352C163.623 115.352 164.868 114.836 165.785 113.918C166.703 112.999 167.219 111.754 167.219 110.456V109.151C167.219 107.852 166.703 106.607 165.785 105.689C164.868 104.771 163.623 104.255 162.325 104.255C161.027 104.255 159.783 104.771 158.865 105.689C157.947 106.607 157.432 107.852 157.432 109.151Z" fill="#3F3D56"/>
<path opacity="0.1" d="M167.219 88.26V86.9554C167.219 85.6569 166.703 84.4115 165.785 83.4934C164.868 82.5752 163.623 82.0593 162.325 82.0593C161.027 82.0593 159.783 82.5752 158.865 83.4934C157.947 84.4115 157.432 85.6569 157.432 86.9554V88.26C157.43 88.7394 157.5 89.2163 157.64 89.675C157.983 90.7931 158.716 91.751 159.705 92.3752C160.694 92.9993 161.873 93.2484 163.03 93.0773C164.187 92.9063 165.244 92.3263 166.01 91.4426C166.776 90.5589 167.2 89.4298 167.206 88.26H167.219Z" fill="#3F3D56"/>
<path opacity="0.1" d="M157.432 98.0523V99.359C157.432 100.658 157.947 101.903 158.865 102.821C159.783 103.739 161.027 104.255 162.325 104.255C163.623 104.255 164.868 103.739 165.785 102.821C166.703 101.903 167.219 100.658 167.219 99.359V98.0523C167.219 96.7538 166.703 95.5085 165.785 94.5903C164.868 93.6721 163.623 93.1562 162.325 93.1562C161.027 93.1562 159.783 93.6721 158.865 94.5903C157.947 95.5085 157.432 96.7538 157.432 98.0523Z" fill="#3F3D56"/>
<path opacity="0.1" d="M162.325 115.352C161.028 115.356 159.786 115.873 158.869 116.79C157.952 117.707 157.435 118.95 157.432 120.248V121.552C157.432 122.851 157.947 124.096 158.865 125.014C159.783 125.933 161.027 126.448 162.325 126.448C163.623 126.448 164.868 125.933 165.785 125.014C166.703 124.096 167.219 122.851 167.219 121.552V120.248C167.215 118.95 166.699 117.707 165.782 116.789C164.865 115.872 163.622 115.355 162.325 115.352Z" fill="#3F3D56"/>
<path opacity="0.1" d="M167.219 87.0803V88.2601C167.213 89.4299 166.789 90.559 166.023 91.4427C165.257 92.3264 164.199 92.9064 163.043 93.0774C161.886 93.2485 160.707 92.9994 159.718 92.3752C158.729 91.7511 157.996 90.7932 157.652 89.6751L167.219 87.0803Z" fill="black"/>
<path opacity="0.1" d="M167.219 98.1791V99.3589C167.213 100.529 166.789 101.658 166.023 102.541C165.257 103.425 164.199 104.005 163.043 104.176C161.886 104.347 160.707 104.098 159.718 103.474C158.729 102.85 157.996 101.892 157.652 100.774L167.219 98.1791Z" fill="black"/>
<path opacity="0.1" d="M167.219 109.276V110.456C167.213 111.626 166.789 112.755 166.023 113.638C165.257 114.522 164.199 115.102 163.043 115.273C161.886 115.444 160.707 115.195 159.718 114.571C158.729 113.947 157.996 112.989 157.652 111.871L167.219 109.276Z" fill="black"/>
<path opacity="0.1" d="M167.219 120.373V121.552C167.213 122.722 166.789 123.851 166.023 124.735C165.257 125.619 164.199 126.199 163.043 126.37C161.886 126.541 160.707 126.292 159.718 125.668C158.729 125.043 157.996 124.086 157.652 122.967L167.219 120.373Z" fill="black"/>
<path opacity="0.1" d="M177.436 99.4423L177.045 99.744C176.694 100.015 176.257 100.15 175.814 100.126C175.372 100.101 174.952 99.9183 174.633 99.6103C174.314 99.3023 174.116 98.8898 174.076 98.4479C174.035 98.0061 174.155 97.5644 174.412 97.2034C174.517 97.0555 174.643 96.9243 174.787 96.8143L175.178 96.5126C175.566 96.2129 176.057 96.0799 176.544 96.1427C177.03 96.2055 177.472 96.4591 177.771 96.8476C178.071 97.2361 178.204 97.7277 178.141 98.2143C178.078 98.7009 177.825 99.1426 177.436 99.4423Z" fill="#3F3D56"/>
<path opacity="0.1" d="M171.858 99.0738L171.469 99.3714C171.27 99.5171 171.101 99.7013 170.974 99.9131C170.847 100.125 170.764 100.36 170.729 100.605C170.694 100.849 170.709 101.098 170.772 101.337C170.835 101.576 170.945 101.8 171.096 101.996C171.247 102.191 171.435 102.355 171.65 102.476C171.865 102.597 172.102 102.675 172.348 102.703C172.593 102.731 172.841 102.71 173.078 102.641C173.315 102.571 173.536 102.455 173.727 102.299L174.116 101.999C174.309 101.851 174.47 101.666 174.591 101.456C174.712 101.245 174.79 101.012 174.821 100.771C174.852 100.53 174.835 100.286 174.772 100.051C174.708 99.8168 174.599 99.597 174.451 99.4047C174.303 99.2123 174.118 99.0511 173.908 98.9301C173.697 98.8092 173.465 98.7309 173.224 98.6998C172.983 98.6687 172.738 98.6853 172.504 98.7488C172.27 98.8123 172.05 98.9213 171.858 99.0697V99.0738Z" fill="#3F3D56"/>
<path opacity="0.1" d="M168.541 101.635L168.15 101.937C167.951 102.083 167.782 102.267 167.655 102.479C167.528 102.691 167.445 102.926 167.41 103.17C167.375 103.415 167.39 103.664 167.453 103.903C167.516 104.142 167.626 104.366 167.777 104.561C167.928 104.757 168.116 104.92 168.331 105.042C168.546 105.163 168.783 105.24 169.029 105.269C169.274 105.297 169.523 105.276 169.76 105.206C169.997 105.137 170.217 105.021 170.409 104.865L170.8 104.565C170.992 104.417 171.153 104.232 171.274 104.021C171.395 103.811 171.473 103.578 171.504 103.337C171.535 103.096 171.519 102.851 171.455 102.617C171.392 102.382 171.283 102.163 171.134 101.97C170.986 101.778 170.801 101.617 170.591 101.496C170.38 101.375 170.148 101.297 169.907 101.265C169.666 101.234 169.422 101.251 169.187 101.314C168.953 101.378 168.733 101.487 168.541 101.635Z" fill="#3F3D56"/>
<path opacity="0.1" d="M165.222 104.197L164.833 104.496C164.445 104.796 164.191 105.238 164.129 105.724C164.066 106.211 164.199 106.702 164.498 107.091C164.798 107.479 165.239 107.733 165.726 107.796C166.212 107.859 166.703 107.726 167.092 107.426L167.481 107.124C167.68 106.979 167.848 106.794 167.975 106.583C168.102 106.371 168.186 106.136 168.221 105.891C168.255 105.646 168.241 105.397 168.178 105.158C168.115 104.919 168.005 104.696 167.854 104.5C167.703 104.304 167.514 104.141 167.299 104.02C167.084 103.898 166.847 103.821 166.602 103.793C166.357 103.764 166.108 103.786 165.871 103.855C165.634 103.924 165.413 104.04 165.222 104.197Z" fill="#3F3D56"/>
<path opacity="0.1" d="M177.399 99.4712L177.045 99.7437C176.694 100.015 176.257 100.15 175.814 100.126C175.372 100.101 174.952 99.9181 174.633 99.6101C174.314 99.3021 174.116 98.8895 174.076 98.4477C174.035 98.0058 174.155 97.5641 174.412 97.2031L177.399 99.4712Z" fill="black"/>
<path opacity="0.1" d="M174.079 102.033L173.727 102.303C173.376 102.566 172.942 102.696 172.503 102.668C172.065 102.64 171.651 102.457 171.335 102.152C171.019 101.847 170.822 101.438 170.78 101.001C170.737 100.564 170.852 100.125 171.103 99.7646L174.079 102.033Z" fill="black"/>
<path opacity="0.1" d="M170.762 104.592L170.409 104.865C170.058 105.134 169.621 105.269 169.179 105.244C168.738 105.219 168.319 105.036 168 104.729C167.682 104.422 167.484 104.01 167.443 103.569C167.401 103.128 167.52 102.687 167.776 102.326L170.762 104.592Z" fill="black"/>
<path opacity="0.1" d="M175.702 38.648C177.173 38.648 178.583 39.2327 179.624 40.2734C180.664 41.3141 181.248 42.7256 181.248 44.1974C181.248 45.6692 180.664 47.0808 179.624 48.1215C178.583 49.1622 177.173 49.7469 175.702 49.7469C177.154 49.775 178.537 50.3719 179.554 51.4094C180.571 52.4469 181.141 53.8421 181.141 55.2953C181.141 56.7485 180.571 58.1437 179.554 59.1811C178.537 60.2186 177.154 60.8155 175.702 60.8437C177.154 60.8718 178.537 61.4687 179.554 62.5062C180.571 63.5437 181.141 64.9389 181.141 66.3921C181.141 67.8452 180.571 69.2405 179.554 70.2779C178.537 71.3154 177.154 71.9123 175.702 71.9405C177.173 71.9405 178.583 72.5251 179.624 73.5658C180.664 74.6066 181.248 76.0181 181.248 77.4899C181.248 78.9617 180.664 80.3732 179.624 81.4139C178.583 82.4547 177.173 83.0393 175.702 83.0393H148.951C147.48 83.0393 146.069 82.4547 145.029 81.4139C143.989 80.3732 143.404 78.9617 143.404 77.4899C143.404 76.0181 143.989 74.6066 145.029 73.5658C146.069 72.5251 147.48 71.9405 148.951 71.9405C148.213 71.9547 147.481 71.8218 146.795 71.5494C146.11 71.277 145.486 70.8705 144.96 70.3539C144.433 69.8373 144.015 69.2208 143.729 68.5405C143.444 67.8603 143.297 67.1299 143.297 66.3921C143.297 65.6543 143.444 64.9239 143.729 64.2436C144.015 63.5633 144.433 62.9468 144.96 62.4302C145.486 61.9136 146.11 61.5072 146.795 61.2347C147.481 60.9623 148.213 60.8294 148.951 60.8437C148.213 60.8579 147.481 60.725 146.795 60.4526C146.11 60.1802 145.486 59.7738 144.96 59.2571C144.433 58.7405 144.015 58.124 143.729 57.4437C143.444 56.7635 143.297 56.0331 143.297 55.2953C143.297 54.5575 143.444 53.8271 143.729 53.1468C144.015 52.4665 144.433 51.85 144.96 51.3334C145.486 50.8168 146.11 50.4104 146.795 50.138C147.481 49.8655 148.213 49.7326 148.951 49.7469C147.48 49.7469 146.069 49.1622 145.029 48.1215C143.989 47.0808 143.404 45.6692 143.404 44.1974C143.404 42.7256 143.989 41.3141 145.029 40.2734C146.069 39.2327 147.48 38.648 148.951 38.648C148.213 38.6623 147.481 38.5293 146.795 38.2569C146.11 37.9845 145.486 37.5781 144.96 37.0615C144.433 36.5448 144.015 35.9283 143.729 35.2481C143.444 34.5678 143.297 33.8374 143.297 33.0996C143.297 32.3618 143.444 31.6314 143.729 30.9511C144.015 30.2709 144.433 29.6544 144.96 29.1377C145.486 28.6211 146.11 28.2147 146.795 27.9423C147.481 27.6699 148.213 27.5369 148.951 27.5512C148.213 27.5655 147.481 27.4325 146.795 27.1601C146.11 26.8877 145.486 26.4813 144.96 25.9647C144.433 25.448 144.015 24.8316 143.729 24.1513C143.444 23.471 143.297 22.7406 143.297 22.0028C143.297 21.265 143.444 20.5346 143.729 19.8543C144.015 19.1741 144.433 18.5576 144.96 18.041C145.486 17.5243 146.11 17.1179 146.795 16.8455C147.481 16.5731 148.213 16.4401 148.951 16.4544H150.174C150.877 11.6811 156.267 7.96692 162.816 7.96692C169.365 7.96692 174.755 11.6811 175.458 16.4544H175.702C177.154 16.4826 178.537 17.0795 179.554 18.1169C180.571 19.1544 181.141 20.5496 181.141 22.0028C181.141 23.456 180.571 24.8512 179.554 25.8887C178.537 26.9261 177.154 27.5231 175.702 27.5512C177.154 27.5793 178.537 28.1763 179.554 29.2137C180.571 30.2512 181.141 31.6464 181.141 33.0996C181.141 34.5528 180.571 35.948 179.554 36.9855C178.537 38.0229 177.154 38.6199 175.702 38.648Z" fill="#080B24"/>
<path opacity="0.1" d="M181.246 22.0039C181.242 23.4738 180.657 24.8822 179.618 25.9216C178.579 26.961 177.171 27.5469 175.702 27.5513H148.951L175.538 16.4545H175.702C177.172 16.4589 178.58 17.045 179.618 18.0848C180.657 19.1247 181.243 20.5336 181.246 22.0039Z" fill="black"/>
<path opacity="0.1" d="M143.568 33.1007C143.573 34.571 144.159 35.9797 145.198 37.0192C146.237 38.0586 147.645 38.6442 149.115 38.6481H175.864L149.277 27.5513H149.115C147.645 27.5557 146.237 28.1417 145.198 29.1815C144.159 30.2213 143.573 31.6303 143.568 33.1007Z" fill="black"/>
<path opacity="0.1" d="M143.568 55.2942C143.573 56.7646 144.159 58.1736 145.198 59.2134C146.237 60.2531 147.645 60.8392 149.115 60.8436H175.864L149.277 49.7468H149.115C147.645 49.7507 146.237 50.3363 145.198 51.3757C144.159 52.4152 143.573 53.8239 143.568 55.2942Z" fill="black"/>
<path opacity="0.1" d="M143.568 77.49C143.573 78.9604 144.159 80.3694 145.198 81.4092C146.237 82.4489 147.645 83.035 149.115 83.0394H175.864L149.277 71.9406H149.115C147.645 71.9449 146.237 72.531 145.198 73.5708C144.159 74.6106 143.573 76.0195 143.568 77.49Z" fill="black"/>
<path opacity="0.1" d="M181.246 44.1976C181.243 45.6679 180.657 47.0769 179.618 48.1167C178.58 49.1565 177.172 49.7427 175.702 49.7471H148.951L175.538 38.6482H175.702C177.172 38.6526 178.58 39.2387 179.618 40.2786C180.657 41.3184 181.243 42.7274 181.246 44.1976Z" fill="black"/>
<path opacity="0.1" d="M181.246 66.3931C181.242 67.863 180.657 69.2714 179.618 70.3108C178.579 71.3502 177.171 71.936 175.702 71.9404H148.951L175.538 60.8436H175.702C177.172 60.848 178.58 61.4342 179.618 62.474C180.657 63.5138 181.243 64.9228 181.246 66.3931Z" fill="black"/>
<path opacity="0.1" d="M178.174 105.168L169.364 100.424C168.922 100.142 168.602 99.7021 168.47 99.1936C168.338 98.6851 168.403 98.1454 168.652 97.6828C168.901 97.2203 169.315 96.8691 169.813 96.6998C170.31 96.5306 170.852 96.5558 171.332 96.7703C171.07 96.6542 170.835 96.4852 170.641 96.2738C170.448 96.0625 170.3 95.8134 170.207 95.5422C170.114 95.271 170.078 94.9835 170.102 94.6978C170.125 94.4121 170.207 94.1343 170.343 93.8819C170.479 93.6294 170.665 93.4078 170.891 93.2308C171.116 93.0539 171.376 92.9254 171.653 92.8536C171.93 92.7817 172.22 92.768 172.502 92.8132C172.785 92.8585 173.056 92.9617 173.297 93.1165L173.701 93.3246C174.778 91.868 177.209 91.61 179.366 92.7711C181.522 93.9322 182.641 96.1128 182.026 97.8086L182.107 97.8523C182.368 97.9692 182.602 98.1386 182.794 98.3501C182.987 98.5616 183.134 98.8105 183.226 99.0814C183.318 99.3523 183.354 99.6392 183.33 99.9244C183.306 100.21 183.224 100.487 183.088 100.739C182.953 100.99 182.766 101.212 182.542 101.388C182.317 101.565 182.058 101.693 181.781 101.765C181.504 101.837 181.216 101.852 180.933 101.807C180.651 101.762 180.38 101.66 180.139 101.506C180.393 101.627 180.621 101.799 180.807 102.01C180.993 102.222 181.134 102.469 181.221 102.737C181.309 103.004 181.342 103.287 181.317 103.568C181.292 103.848 181.211 104.121 181.078 104.369C180.944 104.617 180.762 104.836 180.542 105.012C180.322 105.187 180.068 105.316 179.797 105.391C179.525 105.466 179.242 105.485 178.963 105.446C178.684 105.408 178.415 105.313 178.174 105.168Z" fill="#080B24"/>
<path opacity="0.1" d="M182.958 100.672C182.694 101.154 182.251 101.511 181.724 101.667C181.198 101.823 180.632 101.765 180.148 101.504L171.341 96.7601L182.062 97.8213L182.116 97.8505C182.356 97.9802 182.569 98.1562 182.742 98.3683C182.914 98.5804 183.043 98.8245 183.121 99.0865C183.2 99.3486 183.225 99.6235 183.197 99.8955C183.169 100.168 183.088 100.431 182.958 100.672Z" fill="black"/>
<path opacity="0.1" d="M168.585 97.6422C168.325 98.127 168.268 98.6949 168.426 99.2216C168.584 99.7484 168.944 100.191 169.427 100.453L178.236 105.198L171.446 96.8286L171.394 96.7995C170.91 96.54 170.342 96.4829 169.816 96.6409C169.289 96.7988 168.846 97.1588 168.585 97.6422Z" fill="black"/>
</g>
<path d="M108.713 132.938C168.669 132.938 217.273 130.796 217.273 128.153C217.273 125.509 168.669 123.367 108.713 123.367C48.7579 123.367 0.154297 125.509 0.154297 128.153C0.154297 130.796 48.7579 132.938 108.713 132.938Z" fill="#3F3D56"/>
<path opacity="0.1" d="M104.555 131.08C117.533 131.08 128.055 129.676 128.055 127.944C128.055 126.213 117.533 124.809 104.555 124.809C91.5757 124.809 81.0542 126.213 81.0542 127.944C81.0542 129.676 91.5757 131.08 104.555 131.08Z" fill="black"/>
<path d="M106.183 127.957C105.447 128.1 104.687 128.069 103.966 127.865C103.245 127.66 102.581 127.289 102.03 126.781C101.478 126.274 101.053 125.643 100.79 124.941C100.526 124.238 100.432 123.484 100.513 122.738C101.058 117.919 102.753 110.156 107.389 98.5015C112.763 84.9889 110.824 81.7242 105.066 72.034C103.207 68.9024 101.098 65.3547 98.8268 60.7978C92.9704 49.0913 95.1957 40.0691 98.0864 34.5779C101.16 28.733 105.557 25.6722 106.047 25.3413L110.585 32.8529L110.169 33.2691C110.159 33.2691 110.377 33.2691 110.693 33.8455C108.917 35.3854 107.457 37.256 106.395 39.3533C103.878 44.395 104.211 50.1733 107.383 56.5135C109.506 60.7624 111.519 64.152 113.295 67.1421C116.485 72.5105 119.004 76.7511 119.838 82.105C120.701 87.6461 119.63 93.6075 116.284 102.039C111.873 113.127 110.46 120.067 110.03 123.791C109.914 124.803 109.48 125.752 108.789 126.5C108.098 127.248 107.188 127.757 106.189 127.953L106.183 127.957Z" fill="#3F3D56"/>
<path d="M85.2129 19.3091L104.46 0.0515137L123.895 19.3091H110.687V34.0348H98.4209V19.4028L85.2129 19.3091Z" fill="#080B24"/>
<path opacity="0.1" d="M146.564 127.863C153.34 127.863 158.834 127.13 158.834 126.226C158.834 125.321 153.34 124.588 146.564 124.588C139.787 124.588 134.293 125.321 134.293 126.226C134.293 127.13 139.787 127.863 146.564 127.863Z" fill="black"/>
<path d="M147.414 126.232C147.03 126.307 146.634 126.291 146.257 126.184C145.88 126.078 145.534 125.884 145.246 125.619C144.958 125.354 144.736 125.025 144.599 124.658C144.461 124.291 144.412 123.898 144.455 123.508C144.738 120.993 145.624 116.939 148.044 110.855C150.85 103.799 149.837 102.095 146.832 97.0345C145.861 95.4011 144.752 93.5472 143.569 91.1667C140.516 85.0555 141.676 80.3467 143.186 77.4794C144.181 75.5715 145.605 73.9205 147.346 72.6561L149.714 76.5784L149.494 76.7865C149.494 76.7865 149.606 76.7865 149.768 77.0882C148.84 77.8918 148.077 78.8685 147.522 79.9638C146.21 82.596 146.385 85.6111 148.04 88.9237C149.149 91.1418 150.199 92.9125 151.126 94.4731C152.79 97.2759 154.107 99.4899 154.543 102.286C154.992 105.179 154.437 108.292 152.686 112.69C150.384 118.479 149.646 122.102 149.421 124.047C149.362 124.576 149.136 125.072 148.775 125.463C148.414 125.855 147.938 126.12 147.416 126.222L147.414 126.232Z" fill="#3F3D56"/>
<path d="M136.464 69.5038L146.513 59.4495L156.662 69.5038H149.766V77.1923H143.361V69.5537L136.464 69.5038Z" fill="#080B24"/>
<path opacity="0.1" d="M62.5445 127.863C69.3211 127.863 74.8146 127.13 74.8146 126.226C74.8146 125.321 69.3211 124.588 62.5445 124.588C55.7679 124.588 50.2744 125.321 50.2744 126.226C50.2744 127.13 55.7679 127.863 62.5445 127.863Z" fill="black"/>
<path d="M61.6937 126.232C62.0779 126.307 62.4743 126.291 62.851 126.184C63.2276 126.078 63.574 125.884 63.8621 125.619C64.1501 125.354 64.3718 125.025 64.5092 124.658C64.6467 124.291 64.696 123.898 64.6531 123.508C64.3703 120.993 63.4843 116.939 61.0636 110.855C58.2581 103.799 59.2709 102.095 62.2761 97.0345C63.2473 95.4011 64.3557 93.5472 65.5391 91.1667C68.592 85.0555 67.4316 80.3467 65.9217 77.4794C64.9267 75.5715 63.5029 73.9205 61.7624 72.6561L59.3936 76.5784L59.6141 76.7865C59.6141 76.7865 59.5018 76.7865 59.3395 77.0882C60.2676 77.8918 61.0305 78.8685 61.5856 79.9638C62.8979 82.596 62.7232 85.6111 61.0678 88.9237C59.9593 91.1418 58.9091 92.9125 57.9815 94.4731C56.3178 97.2759 55.0013 99.4899 54.5646 102.286C54.1154 105.179 54.6707 108.292 56.4218 112.69C58.724 118.479 59.4623 122.102 59.6869 124.047C59.7458 124.576 59.9721 125.072 60.3328 125.463C60.6934 125.855 61.1695 126.12 61.6917 126.222L61.6937 126.232Z" fill="#3F3D56"/>
<path d="M72.6436 69.5038L62.5946 59.4495L52.4458 69.5038H59.342V77.1923H65.7474V69.5537L72.6436 69.5038Z" fill="#080B24"/>
<path opacity="0.1" d="M104.556 60.9382C106.869 60.2532 108.678 59.4746 108.596 59.1991C108.515 58.9236 106.574 59.2556 104.261 59.9406C101.948 60.6256 100.139 61.4042 100.221 61.6797C100.302 61.9552 102.243 61.6232 104.556 60.9382Z" fill="black"/>
<path opacity="0.1" d="M106.427 65.1003C108.74 64.4153 110.549 63.6367 110.467 63.3612C110.386 63.0857 108.445 63.4177 106.132 64.1027C103.819 64.7877 102.01 65.5663 102.092 65.8418C102.173 66.1173 104.114 65.7853 106.427 65.1003Z" fill="black"/>
<path opacity="0.1" d="M108.506 68.2202C110.819 67.5352 112.628 66.7565 112.546 66.4811C112.465 66.2056 110.524 66.5376 108.211 67.2226C105.898 67.9076 104.09 68.6862 104.171 68.9617C104.253 69.2372 106.193 68.9052 108.506 68.2202Z" fill="black"/>
<path opacity="0.1" d="M110.171 71.3419C112.484 70.6569 114.293 69.8782 114.211 69.6028C114.13 69.3273 112.189 69.6593 109.876 70.3443C107.563 71.0293 105.755 71.8079 105.836 72.0834C105.918 72.3589 107.859 72.0269 110.171 71.3419Z" fill="black"/>
<path d="M183.415 126.571H174.581C174.095 126.571 173.629 126.378 173.285 126.034C172.942 125.69 172.749 125.224 172.749 124.738C172.749 124.252 172.942 123.786 173.285 123.442C173.629 123.098 174.095 122.905 174.581 122.905C174.335 122.913 174.09 122.872 173.861 122.784C173.632 122.695 173.422 122.562 173.246 122.391C173.069 122.22 172.928 122.015 172.832 121.788C172.736 121.562 172.687 121.319 172.687 121.073C172.687 120.827 172.736 120.583 172.832 120.357C172.928 120.131 173.069 119.926 173.246 119.755C173.422 119.584 173.632 119.45 173.861 119.362C174.09 119.274 174.335 119.232 174.581 119.241H174.984C175.215 117.663 176.993 116.436 179.156 116.434C181.319 116.432 183.108 117.657 183.334 119.232H183.415C183.661 119.224 183.906 119.265 184.135 119.354C184.365 119.442 184.574 119.576 184.751 119.746C184.927 119.917 185.068 120.122 185.164 120.349C185.26 120.575 185.309 120.818 185.309 121.064C185.309 121.31 185.26 121.554 185.164 121.78C185.068 122.007 184.927 122.211 184.751 122.382C184.574 122.553 184.365 122.687 184.135 122.775C183.906 122.864 183.661 122.905 183.415 122.897C183.901 122.897 184.367 123.09 184.711 123.433C185.055 123.777 185.248 124.243 185.248 124.73C185.248 125.216 185.055 125.682 184.711 126.026C184.367 126.37 183.901 126.563 183.415 126.563V126.571Z" fill="#080B24"/>
<path opacity="0.1" d="M185.246 121.072C185.245 121.557 185.052 122.023 184.709 122.367C184.366 122.71 183.901 122.904 183.415 122.905H174.583L183.359 119.232H183.413C183.9 119.234 184.366 119.428 184.71 119.773C185.053 120.118 185.246 120.585 185.246 121.072Z" fill="black"/>
<path opacity="0.1" d="M172.803 124.757C172.805 125.242 172.999 125.707 173.342 126.05C173.685 126.394 174.15 126.587 174.635 126.588H183.47L174.687 122.932H174.64C174.155 122.932 173.69 123.124 173.346 123.466C173.002 123.808 172.807 124.272 172.803 124.757Z" fill="black"/>
<path d="M129.718 124.382H124.704C124.428 124.382 124.164 124.273 123.969 124.078C123.774 123.882 123.664 123.618 123.664 123.342C123.664 123.066 123.774 122.801 123.969 122.606C124.164 122.411 124.428 122.301 124.704 122.301C124.428 122.301 124.164 122.192 123.969 121.997C123.774 121.802 123.664 121.537 123.664 121.261C123.664 120.985 123.774 120.721 123.969 120.525C124.164 120.33 124.428 120.221 124.704 120.221H124.935C125.064 119.326 126.074 118.629 127.301 118.629C128.528 118.629 129.539 119.322 129.672 120.217H129.718C129.994 120.217 130.258 120.326 130.453 120.521C130.648 120.716 130.758 120.981 130.758 121.257C130.758 121.533 130.648 121.797 130.453 121.993C130.258 122.188 129.994 122.297 129.718 122.297C129.994 122.297 130.258 122.407 130.453 122.602C130.648 122.797 130.758 123.062 130.758 123.338C130.758 123.614 130.648 123.878 130.453 124.073C130.258 124.268 129.994 124.378 129.718 124.378V124.382Z" fill="#080B24"/>
<path opacity="0.1" d="M130.758 121.261C130.758 121.537 130.648 121.802 130.453 121.997C130.258 122.192 129.994 122.301 129.718 122.301H124.704L129.695 120.221H129.718C129.994 120.221 130.258 120.33 130.453 120.525C130.648 120.721 130.758 120.985 130.758 121.261Z" fill="black"/>
<path opacity="0.1" d="M123.697 123.348C123.697 123.624 123.807 123.889 124.002 124.084C124.197 124.279 124.461 124.389 124.737 124.389H129.749L124.758 122.308H124.727C124.453 122.31 124.191 122.421 123.998 122.616C123.805 122.811 123.697 123.074 123.697 123.348Z" fill="black"/>
<path d="M35.8102 130.285H25.2038C24.9096 130.295 24.6165 130.244 24.3421 130.138C24.0676 130.032 23.8172 129.871 23.6059 129.666C23.3946 129.461 23.2266 129.216 23.1118 128.944C22.9971 128.673 22.938 128.382 22.938 128.087C22.938 127.793 22.9971 127.501 23.1118 127.23C23.2266 126.959 23.3946 126.713 23.6059 126.508C23.8172 126.303 24.0676 126.143 24.3421 126.036C24.6165 125.93 24.9096 125.88 25.2038 125.889C24.9096 125.898 24.6165 125.848 24.3421 125.741C24.0676 125.635 23.8172 125.474 23.6059 125.269C23.3946 125.064 23.2266 124.819 23.1118 124.548C22.9971 124.276 22.938 123.985 22.938 123.69C22.938 123.396 22.9971 123.104 23.1118 122.833C23.2266 122.562 23.3946 122.317 23.6059 122.111C23.8172 121.906 24.0676 121.746 24.3421 121.64C24.6165 121.533 24.9096 121.483 25.2038 121.492H25.6863C25.9629 119.601 28.0987 118.127 30.6921 118.125C33.2854 118.123 35.4234 119.592 35.7041 121.482H35.7998C36.3708 121.499 36.9126 121.739 37.3103 122.149C37.708 122.559 37.9304 123.108 37.9304 123.68C37.9304 124.252 37.708 124.801 37.3103 125.211C36.9126 125.621 36.3708 125.861 35.7998 125.878C36.3708 125.896 36.9126 126.135 37.3103 126.546C37.708 126.956 37.9304 127.505 37.9304 128.077C37.9304 128.648 37.708 129.197 37.3103 129.608C36.9126 130.018 36.3708 130.257 35.7998 130.275L35.8102 130.285Z" fill="#080B24"/>
<path opacity="0.1" d="M38.004 123.689C38.0029 124.272 37.7716 124.83 37.3604 125.242C36.9493 125.654 36.3919 125.886 35.81 125.889H25.2036L35.7309 121.482H35.7954C36.0854 121.481 36.3725 121.538 36.6405 121.649C36.9084 121.76 37.1519 121.922 37.357 122.127C37.5621 122.332 37.7248 122.576 37.8359 122.844C37.9469 123.112 38.004 123.399 38.004 123.689Z" fill="black"/>
<path opacity="0.1" d="M23.0762 128.1C23.0789 128.683 23.3118 129.241 23.724 129.652C24.1363 130.063 24.6943 130.295 25.2765 130.296H35.8828L25.3451 125.909H25.2806C24.6987 125.91 24.1404 126.141 23.7276 126.551C23.3147 126.961 23.0806 127.518 23.0762 128.1Z" fill="black"/>
<path opacity="0.1" d="M57.553 31.8999C56.7278 31.7415 55.8741 31.8328 55.101 32.1621C54.6398 32.3685 54.1401 32.4752 53.6349 32.4752C53.1296 32.4752 52.63 32.3685 52.1687 32.1621C51.6233 31.9232 51.0326 31.8053 50.4373 31.8168C49.842 31.8283 49.2563 31.9689 48.7206 32.2287C48.4149 32.391 48.0746 32.4766 47.7286 32.4784C46.331 32.4784 45.1685 31.0697 44.9272 29.2095C45.2063 29.0056 45.4436 28.7499 45.626 28.4563C46.4454 27.135 47.7057 26.2881 49.1386 26.2881C50.5715 26.2881 51.8193 27.1204 52.6387 28.4334C52.8837 28.8273 53.2259 29.1515 53.6324 29.3749C54.0388 29.5983 54.4959 29.7133 54.9596 29.7089H54.997C56.1097 29.7068 57.0726 30.5995 57.553 31.8999Z" fill="#080B24"/>
<path opacity="0.1" d="M61.8 26.0674L59.5415 27.5011L60.912 25.0041C60.524 24.6928 60.0429 24.5207 59.5457 24.5152H59.5103C59.3536 24.5188 59.197 24.5076 59.0424 24.4819L58.275 24.9667L58.6036 24.3695C58.0613 24.1797 57.5926 23.8237 57.2643 23.352L55.8896 24.2238L56.7547 22.6487C55.9541 21.6874 54.8726 21.0964 53.6851 21.0964C52.2605 21.0964 50.9815 21.9433 50.1705 23.2646C49.9273 23.6588 49.5845 23.9819 49.1766 24.2011C48.7687 24.4203 48.3102 24.5279 47.8475 24.5131H47.7788C46.2066 24.5131 44.9297 26.2984 44.9297 28.4998C44.9297 30.7013 46.2066 32.4866 47.7788 32.4866C48.125 32.4859 48.4656 32.4001 48.7709 32.2369C49.3066 31.9771 49.8923 31.8366 50.4876 31.8251C51.0829 31.8136 51.6736 31.9314 52.219 32.1703C52.683 32.3776 53.1853 32.4853 53.6934 32.4866C54.195 32.486 54.6909 32.3804 55.1492 32.1766C55.6903 31.9421 56.2754 31.8268 56.8649 31.8382C57.4544 31.8497 58.0346 31.9878 58.5661 32.2432C58.869 32.402 59.2057 32.4855 59.5477 32.4866C61.1221 32.4866 62.3969 30.7013 62.3969 28.4998C62.4045 27.6518 62.1993 26.8155 61.8 26.0674Z" fill="#080B24"/>
<path opacity="0.1" d="M27.7349 54.7885C28.5567 54.6322 29.4064 54.7234 30.1764 55.0507C30.6373 55.2571 31.1366 55.3639 31.6415 55.3639C32.1465 55.3639 32.6458 55.2571 33.1067 55.0507C33.6521 54.8117 34.2427 54.6939 34.838 54.7054C35.4333 54.7169 36.019 54.8574 36.5548 55.1173C36.8605 55.2793 37.2008 55.3649 37.5468 55.367C38.9443 55.367 40.1089 53.9583 40.3502 52.0981C40.0706 51.8948 39.8332 51.6389 39.6514 51.3448C38.832 50.0235 37.5613 49.1766 36.1368 49.1766C34.7122 49.1766 33.4581 50.0089 32.6387 51.3219C32.3927 51.7167 32.0491 52.0412 31.6411 52.2643C31.233 52.4874 30.7744 52.6014 30.3095 52.5954H30.2742C29.1678 52.5954 28.2028 53.488 27.7349 54.7885Z" fill="#080B24"/>
<path opacity="0.1" d="M23.4764 48.9561L25.7349 50.3898L24.3623 47.8928C24.7504 47.5818 25.2314 47.4097 25.7286 47.4038H25.7661C25.9228 47.4075 26.0794 47.3963 26.234 47.3705L26.9993 47.8554L26.6707 47.2582C27.2137 47.0686 27.683 46.7125 28.0121 46.2407L29.3826 47.1104L28.5154 45.5353C29.3182 44.574 30.3975 43.983 31.5871 43.983C33.0117 43.983 34.2803 44.8299 35.1018 46.1512C35.3448 46.5456 35.6876 46.8687 36.0955 47.088C36.5034 47.3072 36.962 47.4147 37.4248 47.3997H37.4996C39.0739 47.3997 40.3488 49.185 40.3488 51.3864C40.3488 53.5879 39.0739 55.3732 37.4996 55.3732C37.1536 55.3719 36.8131 55.2862 36.5076 55.1235C35.9719 54.8637 35.3861 54.7232 34.7909 54.7117C34.1956 54.7002 33.6049 54.818 33.0595 55.0569C32.5962 55.2642 32.0946 55.372 31.5871 55.3732C31.0855 55.373 30.5895 55.2674 30.1313 55.0632C29.5899 54.8287 29.0045 54.7133 28.4146 54.7248C27.8247 54.7363 27.2442 54.8744 26.7123 55.1298C26.4095 55.2888 26.0728 55.3723 25.7307 55.3732C24.1585 55.3732 22.8816 53.5879 22.8816 51.3864C22.8736 50.5393 23.0781 49.7037 23.4764 48.9561Z" fill="#080B24"/>
<path d="M114.784 56.4553C114.916 56.4713 115.045 56.5115 115.163 56.5739C115.317 56.6831 115.432 56.8382 115.493 57.0171C115.65 57.4626 115.725 57.9328 115.714 58.405C115.738 58.7859 115.69 59.1681 115.57 59.5307C115.533 59.6426 115.469 59.7435 115.383 59.8241C115.307 59.8844 115.219 59.927 115.125 59.9489C115.025 59.9838 114.919 59.9952 114.814 59.9822C114.709 59.9692 114.608 59.9322 114.52 59.874C114.358 59.7055 114.262 59.4836 114.252 59.2498C114.23 58.9282 114.104 58.6227 113.892 58.38C113.719 58.2198 113.476 58.1386 113.349 57.941C113.199 57.7038 113.278 57.3958 113.374 57.1336C113.455 56.9047 113.582 56.4428 113.815 56.3263C114.048 56.2097 114.537 56.4095 114.784 56.4553Z" fill="#FBBEBE"/>
<path d="M106.01 57.5746C106.081 57.829 106.208 58.0643 106.382 58.2633C106.488 58.3861 106.619 58.5338 106.563 58.6795C106.541 58.7319 106.507 58.7783 106.463 58.8147C105.681 59.5805 104.591 59.9529 103.5 60.0882C103.482 60.0923 103.465 60.0923 103.448 60.0882C103.416 60.0736 103.408 60.0341 103.404 59.9987C103.386 59.8856 103.386 59.7705 103.404 59.6575C103.445 59.5283 103.512 59.4088 103.6 59.3058C103.688 59.2029 103.796 59.1187 103.918 59.0582C104.159 58.9356 104.366 58.7546 104.521 58.5318C104.679 58.2342 104.612 57.8472 104.799 57.5683C104.886 57.4629 104.994 57.3762 105.116 57.3136C105.237 57.251 105.37 57.2138 105.506 57.2042C105.598 57.1896 105.798 57.0856 105.877 57.1335C105.956 57.1813 105.979 57.481 106.01 57.5746Z" fill="#FBBEBE"/>
<path d="M114.89 56.4281C114.89 56.4016 114.9 56.3761 114.918 56.3562C114.935 56.3363 114.959 56.3234 114.986 56.3199C115.038 56.3144 115.091 56.3215 115.14 56.3408C115.262 56.3739 115.386 56.3969 115.512 56.4094C115.663 56.4142 115.813 56.4316 115.961 56.4614C116.035 56.4771 116.105 56.5091 116.165 56.5552C116.225 56.6013 116.274 56.6603 116.308 56.7278C116.337 56.8077 116.351 56.8925 116.348 56.9775C116.35 57.3056 116.31 57.6328 116.231 57.9513C116.231 57.9742 116.215 58.0033 116.192 58.0116C116.169 58.0199 116.15 58.0116 116.132 58.0116C116.115 58.0208 116.103 58.0356 116.096 58.0532C116.018 58.2621 115.973 58.4818 115.963 58.7045C115.926 59.0312 115.882 59.3579 115.828 59.6825C115.808 59.8761 115.736 60.0608 115.62 60.2172C115.47 60.368 115.271 60.4596 115.058 60.4752C114.614 60.51 114.167 60.4692 113.736 60.3546C113.653 60.3463 113.575 60.3112 113.513 60.2547C113.474 60.2045 113.455 60.1415 113.459 60.0778C113.459 59.8697 113.667 59.7054 113.85 59.5847L114.121 59.4203C114.138 59.4105 114.153 59.397 114.164 59.3808C114.176 59.3554 114.18 59.3273 114.177 59.2996L114.16 58.9792C114.325 58.9837 114.486 59.0329 114.626 59.1215C114.765 59.2102 114.878 59.335 114.952 59.4827C114.988 59.5514 115.021 59.6325 115.092 59.6596C115.138 59.6698 115.187 59.6616 115.228 59.6368C115.268 59.612 115.298 59.5725 115.31 59.5264C115.334 59.4343 115.334 59.3376 115.31 59.2455C115.165 58.4611 115.2 57.6537 115.102 56.8609C115.096 56.7722 115.069 56.6863 115.021 56.6112C114.979 56.553 114.9 56.5072 114.89 56.4281Z" fill="#F86D70"/>
<path d="M103.989 59.4682C103.951 59.5285 103.893 59.5743 103.86 59.6388C103.84 59.6681 103.832 59.7037 103.837 59.7386C103.842 59.7735 103.86 59.8054 103.887 59.8281C103.923 59.8448 103.964 59.8492 104.003 59.8406C104.787 59.7425 105.523 59.4096 106.114 58.8855C106.212 58.8023 106.299 58.7065 106.372 58.6005C106.44 58.4964 106.499 58.3695 106.615 58.3258C106.686 58.6301 106.723 58.9414 106.725 59.2538C106.737 59.3569 106.724 59.4613 106.688 59.5586C106.652 59.6559 106.594 59.7432 106.517 59.8136C106.454 59.8549 106.383 59.8852 106.309 59.903L105.941 60.0071C105.875 60.033 105.803 60.0395 105.733 60.0258C105.692 60.0075 105.65 59.9922 105.606 59.98C105.559 59.9741 105.51 59.9798 105.465 59.9967L105.149 60.0903C105.041 60.1166 104.936 60.1529 104.835 60.1985C104.743 60.2422 104.66 60.2984 104.573 60.3462C104.425 60.4195 104.271 60.4814 104.113 60.5314L103.556 60.7249C103.404 60.7855 103.244 60.8267 103.082 60.8477C102.969 60.8477 102.857 60.8477 102.745 60.8664C102.633 60.8852 102.581 60.9101 102.493 60.9185C102.353 60.9217 102.214 60.881 102.098 60.8019C102.053 60.7752 102.015 60.7399 101.984 60.6979C101.905 60.5751 101.984 60.4108 102.052 60.2817C102.187 60.0426 102.381 59.8421 102.616 59.6991C102.714 59.645 102.824 59.6055 102.917 59.5576C103.202 59.4203 103.417 59.1893 103.685 59.0312C103.953 58.8731 104.107 59.2726 103.989 59.4682Z" fill="#F86D70"/>
<path d="M111.816 37.0124C112.111 37.2148 112.448 37.3465 112.802 37.3973C112.987 37.4195 113.173 37.4292 113.359 37.4265C114.137 37.4246 114.913 37.3599 115.68 37.2329C115.35 36.9176 115.1 36.5282 114.95 36.0968C114.894 35.864 114.882 35.6225 114.915 35.3852C114.959 35.0811 115.029 34.7811 115.123 34.4884C114.795 34.5071 114.467 34.4988 114.141 34.4634C113.956 34.4447 113.5 34.2762 113.338 34.4052C113.176 34.5342 113.301 34.9441 113.305 35.1397C113.306 35.1466 113.306 35.1536 113.305 35.1605C113.297 35.4555 113.234 35.7464 113.118 36.0178C113.009 36.2848 112.832 36.518 112.603 36.6929C112.374 36.8678 112.102 36.9781 111.816 37.0124Z" fill="#FBBEBE"/>
<path opacity="0.1" d="M113.316 35.1397C113.55 35.2922 113.813 35.393 114.089 35.4354C114.365 35.4777 114.647 35.4606 114.915 35.3852C114.96 35.0811 115.029 34.7811 115.123 34.4884C114.796 34.5071 114.468 34.4988 114.142 34.4634C113.957 34.4447 113.501 34.2762 113.339 34.4052C113.177 34.5342 113.312 34.9441 113.316 35.1397Z" fill="black"/>
<path d="M114.385 35.3687C115.464 35.3687 116.339 34.493 116.339 33.4127C116.339 32.3325 115.464 31.4568 114.385 31.4568C113.305 31.4568 112.43 32.3325 112.43 33.4127C112.43 34.493 113.305 35.3687 114.385 35.3687Z" fill="#FBBEBE"/>
<path d="M106.093 43.3046C106.093 43.4623 106.133 43.6175 106.21 43.7549C106.288 43.8924 106.399 44.0075 106.534 44.0891C106.684 44.1691 106.845 44.226 107.012 44.2576C107.901 44.5031 108.82 44.6167 109.741 44.5947C109.94 44.5926 110.136 44.5516 110.319 44.474C110.41 44.4334 110.49 44.3717 110.552 44.2938C110.615 44.216 110.657 44.1244 110.677 44.0267C110.671 43.9712 110.684 43.9155 110.714 43.8681C110.743 43.8207 110.787 43.7843 110.839 43.7645C110.923 43.7013 110.986 43.6158 111.023 43.5178C111.06 43.4199 111.068 43.3135 111.047 43.211C111.159 43.2609 111.276 43.1486 111.328 43.0383C111.38 42.928 111.421 42.7928 111.536 42.747C111.616 42.7288 111.697 42.717 111.779 42.7116C111.908 42.6783 111.987 42.5535 112.079 42.4577C112.282 42.2786 112.516 42.1376 112.769 42.0416C113.489 41.6775 114.073 41.1032 114.641 40.5372C114.938 40.2622 115.208 39.9591 115.448 39.6321C115.512 39.5363 115.572 39.4385 115.627 39.3387C115.8 39.006 115.951 38.6619 116.078 38.3087C116.166 38.1246 116.205 37.9212 116.192 37.7177C116.193 37.6997 116.193 37.6817 116.192 37.6636C116.155 37.5348 116.095 37.4136 116.015 37.3057C115.836 36.9975 115.552 36.7635 115.215 36.6461C114.878 36.5567 114.533 36.6649 114.175 36.7377C114.06 36.7638 113.943 36.7819 113.826 36.7918C113.456 36.7972 113.088 36.7395 112.738 36.6212L112.349 36.515C112.156 36.4609 112.058 36.2258 111.862 36.1842C111.774 36.1724 111.685 36.1774 111.598 36.1988C111.196 36.2581 110.806 36.3854 110.446 36.5754C110.368 36.6202 110.294 36.671 110.224 36.7273C109.969 36.918 109.786 37.1883 109.704 37.4951C109.622 37.8343 109.704 38.1942 109.616 38.5355C109.532 38.8106 109.398 39.0675 109.219 39.2929L108.267 40.662C108.054 40.9824 107.819 41.2876 107.564 41.5755C107.05 42.1248 106.108 42.5472 106.093 43.3046Z" fill="#F86D70"/>
<path d="M108.643 30.2374C108.618 30.0475 108.559 29.8636 108.47 29.6943C108.399 29.5933 108.314 29.5035 108.216 29.428C108.059 29.2818 107.876 29.1673 107.676 29.0909C107.574 29.0511 107.464 29.0368 107.355 29.0491C107.246 29.0614 107.142 29.1 107.052 29.1616C106.891 29.3064 106.793 29.5092 106.781 29.7255C106.738 30.0188 106.789 30.3184 106.927 30.5807C107.093 30.8699 107.38 31.0634 107.619 31.2944C107.795 31.4612 107.948 31.6509 108.073 31.8583C108.13 31.9666 108.2 32.0679 108.281 32.16C108.321 32.2056 108.372 32.2411 108.429 32.2635C108.485 32.2859 108.547 32.2946 108.607 32.289C108.709 32.2628 108.801 32.2087 108.874 32.133C108.971 32.0477 109.237 31.8916 109.246 31.7543C109.254 31.6169 109.038 31.3922 108.994 31.2882C108.84 30.9512 108.723 30.599 108.643 30.2374Z" fill="#FBBEBE"/>
<path d="M101.773 52.8846C102.019 53.3382 102.289 53.7793 102.508 54.2475C102.634 54.5201 102.747 54.801 102.888 55.0653C103.03 55.3295 103.233 55.625 103.396 55.9101C103.775 56.6507 104.059 57.4366 104.24 58.2489C104.826 58.1606 105.391 57.9622 105.904 57.6642C105.937 57.6433 105.97 57.6225 106.001 57.5996C106.139 57.5013 106.253 57.3751 106.338 57.2293C106.145 56.4948 105.945 55.7498 105.55 55.1027C105.423 54.8946 105.276 54.6866 105.134 54.4785C104.749 53.8751 104.67 53.1135 104.234 52.5475C104.192 52.4906 104.169 52.4217 104.169 52.3509C104.169 52.2801 104.192 52.2112 104.234 52.1542C104.284 52.0897 104.365 52.0273 104.348 51.9462C104.331 51.865 104.275 51.8317 104.3 51.7776C104.325 51.7235 104.338 51.736 104.361 51.7173C104.433 51.6486 104.425 51.53 104.431 51.4301C104.473 51.1752 104.583 50.9364 104.75 50.7393C104.78 50.6906 104.819 50.6482 104.866 50.6145C104.905 50.5895 104.953 50.5791 104.993 50.5541C105.132 50.4667 105.122 50.2628 105.188 50.1109C105.278 49.9029 105.498 49.8113 105.642 49.649C105.827 49.4409 105.873 49.1558 106.058 48.9769C106.078 48.9579 106.099 48.9405 106.122 48.9249C106.037 49.2316 105.999 49.5493 106.008 49.8675C105.989 50.9557 106.261 52.0835 106.132 53.1655C106.033 54.0249 106.561 54.8822 107.31 55.3108C107.603 55.4659 107.91 55.5948 108.227 55.6957C108.697 55.8622 109.165 56.0349 109.624 56.2263C109.949 56.3651 110.269 56.51 110.585 56.6612C110.975 56.8484 111.354 57.0568 111.721 57.2854C112.187 57.5436 112.602 57.8849 112.945 58.2925C113.101 58.2804 113.251 58.2354 113.388 58.1604C113.524 58.0854 113.643 57.9822 113.736 57.8577C113.922 57.6083 114.068 57.3318 114.17 57.0378C114.285 56.7949 114.355 56.5335 114.378 56.2659C114.379 56.2368 114.372 56.2081 114.357 56.1833C114.342 56.1585 114.319 56.1387 114.293 56.1265L112.149 54.9883L111.748 54.7802C110.87 54.3141 109.959 53.8834 109.081 53.4173C109.023 53.4339 108.973 53.3673 108.957 53.3091C108.94 53.2508 108.928 53.178 108.871 53.1509C108.815 53.1239 108.807 53.1385 108.786 53.1156C108.779 53.1054 108.774 53.0939 108.772 53.0817C108.769 53.0695 108.769 53.057 108.772 53.0448C108.801 52.6287 109.106 52.2292 109.044 51.8068C108.986 51.6354 108.96 51.4549 108.967 51.2741C109.013 51.1578 109.067 51.0451 109.129 50.937C109.235 50.679 109.129 50.3669 109.246 50.1047C109.323 49.9377 109.374 49.7603 109.4 49.5782C109.456 49.2167 109.566 48.8659 109.728 48.5379C109.806 48.3713 109.907 48.217 110.03 48.0801C110.094 48.0114 110.167 47.949 110.238 47.872C110.408 47.6371 110.514 47.3616 110.546 47.073C110.668 46.56 110.683 46.0273 110.589 45.5082C110.536 45.3372 110.502 45.1606 110.489 44.9818C110.489 44.7446 110.595 44.4679 110.431 44.2972C110.363 44.2363 110.281 44.194 110.192 44.1745C109.81 44.075 109.422 44.0054 109.029 43.9664L107.237 43.7333C107.03 43.7197 106.828 43.6674 106.64 43.5794C106.403 43.4306 106.225 43.203 106.139 42.9364C105.823 43.1653 105.706 43.5939 105.455 43.8894C105.332 44.035 105.182 44.1516 105.039 44.2847C104.875 44.4578 104.725 44.6428 104.589 44.8382C104.2 45.3396 103.86 45.8775 103.574 46.4446C103.435 46.7442 103.327 47.0563 103.215 47.3664C102.778 48.5878 102.065 49.7468 101.759 51.0098C101.686 51.3199 101.497 51.5987 101.468 51.9129C101.471 52.26 101.578 52.5982 101.773 52.8846Z" fill="#434175"/>
<path opacity="0.1" d="M111.156 42.7396C111.2 42.8208 111.222 42.9121 111.221 43.0045C111.181 42.7959 110.908 42.6958 110.891 42.4996C110.891 42.4099 110.891 42.4141 110.956 42.4621C111.02 42.5101 111.077 42.6624 111.156 42.7396Z" fill="black"/>
<path opacity="0.1" d="M110.328 43.3381C110.385 43.3871 110.427 43.4505 110.451 43.5217C110.497 43.6223 110.506 43.7363 110.476 43.8429C110.436 43.8242 110.424 43.7741 110.411 43.7324C110.391 43.6655 110.363 43.6017 110.326 43.5425C110.295 43.4904 110.144 43.3694 110.147 43.313C110.149 43.2567 110.288 43.3088 110.328 43.3381Z" fill="black"/>
<path opacity="0.1" d="M110.232 36.7212C110.359 36.8291 110.499 36.9213 110.648 36.9958C111.035 37.1914 111.463 37.2955 111.854 37.4848C112.047 37.5805 112.231 37.6929 112.414 37.8115L113.572 38.546C113.664 38.6004 113.75 38.6653 113.828 38.7395C113.965 38.8893 113.965 39.1557 114.092 39.3097C114.163 39.3897 114.249 39.4541 114.346 39.4989C114.443 39.5437 114.549 39.5678 114.655 39.5698C114.868 39.5705 115.079 39.5346 115.279 39.4636C115.401 39.4271 115.52 39.3833 115.637 39.3326C115.759 39.2809 115.874 39.2153 115.98 39.137C116.089 39.0632 116.181 38.9685 116.253 38.8585C116.324 38.7484 116.373 38.6252 116.396 38.4961C116.409 38.3191 116.386 38.1413 116.327 37.9738C116.295 37.865 116.253 37.7591 116.203 37.6575C116.175 37.5991 116.143 37.5434 116.105 37.4911C115.839 37.1144 115.371 36.9376 114.917 36.8481C114.678 36.8023 114.435 36.7732 114.196 36.7316C114.081 36.7577 113.964 36.7758 113.846 36.7857C113.477 36.7911 113.109 36.7334 112.759 36.6151L112.37 36.5089C112.176 36.4548 112.079 36.2197 111.883 36.1781C111.795 36.1663 111.705 36.1713 111.619 36.1927C111.216 36.252 110.827 36.3793 110.467 36.5693C110.385 36.6136 110.306 36.6644 110.232 36.7212Z" fill="black"/>
<path d="M109.288 31.538C109.338 32.0103 109.735 32.3578 109.978 32.7656C110.097 32.9737 110.186 33.1818 110.286 33.3899C110.411 33.6131 110.55 33.8285 110.702 34.0349L111.137 34.6591C111.377 35.0385 111.656 35.392 111.969 35.7141C112.538 35.8119 113.008 36.2343 113.553 36.4382C113.996 36.5686 114.45 36.6605 114.909 36.7129C115.363 36.8023 115.83 36.9792 116.097 37.3558C116.195 37.5053 116.27 37.6687 116.319 37.8407C116.378 38.0081 116.401 38.1859 116.388 38.3629C116.364 38.4917 116.315 38.6145 116.244 38.7242C116.173 38.8338 116.08 38.9282 115.972 39.0017C115.76 39.1519 115.522 39.2626 115.271 39.3284C115.071 39.4003 114.86 39.4363 114.647 39.4345C114.54 39.4331 114.435 39.4092 114.338 39.3644C114.241 39.3196 114.154 39.2549 114.084 39.1744C113.957 39.0163 113.959 38.7583 113.819 38.6064C113.743 38.5313 113.657 38.4663 113.564 38.4129L112.405 37.6783C112.225 37.5587 112.038 37.4497 111.846 37.3517C111.455 37.1602 111.026 37.0583 110.64 36.8606C110.253 36.6629 109.891 36.3425 109.808 35.9138C109.573 34.6009 108.664 33.4939 107.888 32.4098C107.913 32.4098 107.905 32.3474 107.915 32.3224C108.027 32.0672 108.229 31.8625 108.483 31.7481C108.741 31.6447 109.012 31.5741 109.288 31.538Z" fill="#F86D70"/>
<path d="M113.383 31.538C113.366 31.3942 113.394 31.2489 113.464 31.1218C113.542 31.0245 113.639 30.9442 113.75 30.8859C113.86 30.8276 113.982 30.7924 114.106 30.7827C114.341 30.7327 114.576 30.6932 114.813 30.6578C115.006 30.619 115.204 30.6155 115.398 30.6474C115.652 30.7373 115.897 30.8531 116.128 30.9928C116.429 31.1011 116.739 31.1805 117.055 31.23C117.376 31.2786 117.67 31.4366 117.887 31.6774C118.024 31.8853 118.109 32.1229 118.135 32.3703C118.505 34.3679 118.105 36.4153 118.031 38.4462C118.001 39.2348 118.031 40.0796 118.488 40.735L117.174 40.7017C116.839 40.6913 116.477 40.6747 116.211 40.4666C115.996 40.2615 115.843 39.9997 115.77 39.7113C115.68 39.4956 115.624 39.2676 115.602 39.035C115.581 38.5565 115.851 38.0883 115.764 37.6201C115.671 37.2655 115.458 36.9543 115.161 36.7399C114.873 36.5297 114.606 36.2921 114.364 36.0304C113.971 35.531 113.896 34.8506 113.948 34.216C114.001 33.8425 114.022 33.4652 114.013 33.0882C113.996 32.7999 113.892 32.5234 113.715 32.2954C113.51 32.096 113.391 31.8242 113.383 31.538Z" fill="#434175"/>
<path opacity="0.1" d="M113.464 31.1218C113.539 31.0262 113.634 30.9471 113.741 30.8892C113.848 30.8312 113.966 30.7957 114.088 30.7847C113.959 30.8295 113.849 30.9159 113.776 31.0302C113.706 31.1572 113.678 31.3026 113.695 31.4464C113.703 31.7334 113.824 32.0055 114.031 32.2038C114.208 32.4311 114.312 32.7068 114.329 32.9945C114.338 33.3722 114.317 33.7501 114.264 34.1243C114.217 34.7485 114.291 35.4373 114.68 35.9367C114.922 36.1984 115.189 36.436 115.477 36.6462C115.767 36.8581 115.977 37.1627 116.072 37.5097C116.159 37.98 115.889 38.4482 115.909 38.9247C115.931 39.1573 115.988 39.3853 116.078 39.6009C116.151 39.8893 116.303 40.1512 116.519 40.3562C116.785 40.5643 117.143 40.5831 117.482 40.5914L118.413 40.6163C118.434 40.6496 118.455 40.6829 118.478 40.7162L117.163 40.6829C116.829 40.6725 116.467 40.6559 116.201 40.4478C115.985 40.2427 115.832 39.9809 115.76 39.6925C115.67 39.4768 115.613 39.2488 115.591 39.0162C115.57 38.5376 115.841 38.0695 115.753 37.6013C115.659 37.2551 115.45 36.9512 115.161 36.7399C114.873 36.5296 114.606 36.292 114.364 36.0303C113.971 35.5309 113.896 34.8505 113.948 34.2159C114.001 33.8424 114.022 33.4652 114.013 33.0881C113.996 32.7998 113.893 32.5233 113.715 32.2953C113.508 32.0966 113.388 31.8247 113.378 31.5379C113.363 31.3937 113.393 31.2483 113.464 31.1218Z" fill="black"/>
<path opacity="0.1" d="M103.591 51.7216L106.01 57.5998C106.147 57.5014 106.262 57.3752 106.347 57.2294C106.153 56.4949 105.954 55.75 105.559 55.1028C105.432 54.8948 105.284 54.6867 105.143 54.4786C104.758 53.8752 104.679 53.1136 104.242 52.5477C104.2 52.4907 104.178 52.4218 104.178 52.351C104.178 52.2802 104.2 52.2113 104.242 52.1544C104.292 52.0899 104.373 52.0275 104.357 51.9463C104.34 51.8652 104.284 51.8319 104.309 51.7778C104.334 51.7237 104.346 51.7362 104.369 51.7174C104.442 51.6488 104.434 51.5302 104.44 51.4303C104.481 51.1754 104.591 50.9365 104.758 50.7395C104.788 50.6907 104.828 50.6483 104.874 50.6146C104.914 50.5896 104.962 50.5792 105.001 50.5543C105.141 50.4669 105.13 50.263 105.197 50.1111C105.286 49.903 105.507 49.8114 105.65 49.6491C105.835 49.4411 105.881 49.156 106.066 48.977L106.083 48.9354L105.9 47.7993L103.591 51.7216Z" fill="black"/>
<defs>
<linearGradient id="paint0_linear" x1="109.974" y1="61.0372" x2="109.974" y2="28.9495" gradientUnits="userSpaceOnUse">
<stop stop-color="#808080" stop-opacity="0.25"/>
<stop offset="0.54" stop-color="#808080" stop-opacity="0.12"/>
<stop offset="1" stop-color="#808080" stop-opacity="0.1"/>
</linearGradient>
</defs>
</svg>
