<svg width="54" height="64" viewBox="0 0 54 64" fill="none" xmlns="http://www.w3.org/2000/svg">
<path d="M35.363 58.144C37.9346 60.0332 37.7723 61.6972 35.363 62.9078C16.0129 63.8427 1.31594 52.5819 1 32.0834C1.8755 2.22287 32.054 -5.098 49.6323 5.74246C51.2455 8.70526 49.5039 10.3129 46.429 9.38535C3.47663 -8.3272 -11.9515 55.9716 35.363 58.144Z" fill="#080B24" stroke="#080B24"/>
<path d="M24.5875 21.1552L11.7742 42.1719L17.016 41.3312L24.5875 28.1607L27.7908 32.6443L29.8293 28.7212L24.5875 21.1552Z" fill="#F9B43A"/>
<path d="M30.703 40.2103H26.3348L39.1481 18.9134L53.9999 43.573L49.6317 42.7323L39.1481 26.4794L30.703 40.2103Z" fill="#F9B43A"/>
</svg>
