<svg width="351" height="227" viewBox="0 0 351 227" fill="none" xmlns="http://www.w3.org/2000/svg">
<path d="M31.2522 180.91C33.5176 180.91 35.354 179.07 35.354 176.8C35.354 174.53 33.5176 172.69 31.2522 172.69C28.9868 172.69 27.1504 174.53 27.1504 176.8C27.1504 179.07 28.9868 180.91 31.2522 180.91Z" fill="#D0CDE1"/>
<path d="M20.9975 197.007C24.7731 197.007 27.8339 193.941 27.8339 190.157C27.8339 186.374 24.7731 183.307 20.9975 183.307C17.2219 183.307 14.1611 186.374 14.1611 190.157C14.1611 193.941 17.2219 197.007 20.9975 197.007Z" fill="#080B24"/>
<path d="M101.157 49.2521C108.747 49.2521 114.901 43.0862 114.901 35.4802C114.901 27.8741 108.747 21.7083 101.157 21.7083C93.5657 21.7083 87.4121 27.8741 87.4121 35.4802C87.4121 43.0862 93.5657 49.2521 101.157 49.2521Z" fill="#2F2E41"/>
<path d="M120.693 118.904L122.777 123.08C122.777 123.08 129.445 133.937 124.861 135.19C120.277 136.443 118.818 127.047 118.818 127.047L117.984 122.036L120.693 118.904Z" fill="#A0616A"/>
<path d="M112.358 97.6064L117.568 111.387L122.777 120.992L116.318 125.168L111.108 115.981L104.857 101.574L112.358 97.6064Z" fill="#D0CDE1"/>
<path d="M97.5628 162.125L87.1438 173.191L68.8062 204.302L60.8877 201.796L70.2649 183.213C70.2649 183.213 75.6828 169.015 78.3917 167.136C81.1007 165.257 85.6851 152.938 85.6851 152.938L90.6862 148.97L97.5628 162.125Z" fill="#A0616A"/>
<path d="M119.026 168.18L119.86 171.73C119.86 171.73 122.569 182.796 126.736 187.807L136.739 205.137L144.241 202.632L129.445 167.554L119.026 168.18Z" fill="#A0616A"/>
<path d="M103.502 51.5667C109.717 51.5667 114.755 46.5187 114.755 40.2917C114.755 34.0646 109.717 29.0166 103.502 29.0166C97.2875 29.0166 92.2495 34.0646 92.2495 40.2917C92.2495 46.5187 97.2875 51.5667 103.502 51.5667Z" fill="#A0616A"/>
<path d="M94.6457 45.8247L93.187 57.935L102.564 62.5285C102.564 62.5285 102.564 52.0886 105.065 49.3743L94.6457 45.8247Z" fill="#A0616A"/>
<path d="M65.264 123.915L64.2221 127.464C64.2221 127.464 57.3455 141.036 63.1802 141.036C69.0149 141.036 70.0568 128.508 70.0568 128.508L70.6819 125.376L65.264 123.915Z" fill="#A0616A"/>
<path d="M113.191 109.717L111.733 119.948L129.445 157.323L130.487 168.18L97.3543 172.356L90.061 152.103L78.3916 167.136L85.0598 151.685C85.0598 151.685 87.1436 141.245 86.5185 138.531C85.8933 135.816 86.9352 122.245 88.8107 118.904C90.6861 115.563 113.191 109.717 113.191 109.717Z" fill="#2F2E41"/>
<path d="M70.0564 204.302L60.0541 200.961L56.9284 205.973C56.9284 205.973 50.8853 207.643 51.0937 212.028C51.3021 216.412 50.0518 223.929 50.0518 223.929L54.4278 224.347L56.0948 215.786L64.6385 226.017C64.6385 226.017 79.8503 226.852 80.4755 224.347C81.1006 221.841 69.6396 219.127 69.6396 219.127L67.7642 210.148L70.0564 204.302Z" fill="#2F2E41"/>
<path d="M144.866 201.379L135.697 204.302V206.39C135.697 206.39 132.988 210.566 133.405 214.115C133.822 217.665 135.697 226.226 135.697 226.226H140.49L140.281 218.291L149.867 226.226C149.867 226.226 166.954 224.973 166.954 222.258C166.954 219.544 153.826 217.665 153.826 217.665L144.866 201.379Z" fill="#2F2E41"/>
<path d="M103.189 60.023C103.189 60.023 94.6454 51.4623 90.6861 53.5503V57.3086C90.6861 57.3086 84.8514 60.023 84.6431 64.1989C84.4347 68.3749 78.3916 106.376 78.3916 106.376L64.2217 155.861C64.2217 155.861 68.5977 162.751 84.6431 155.026L94.6454 120.992C94.6454 120.992 84.0179 159.41 89.2275 158.784C94.437 158.158 114.858 110.552 114.858 110.552L113.4 88.0018C113.4 88.0018 116.734 78.1883 110.066 71.5068L103.189 60.023Z" fill="#D0CDE1"/>
<path d="M88.6023 61.2756C88.6023 61.2756 85.0598 62.5284 82.5592 67.9571C80.0587 73.3859 67.5558 111.596 67.5558 111.596L64.2217 125.168L73.5989 127.464L78.1833 113.475L95.2705 81.7378C95.2705 81.7378 97.9795 65.034 88.6023 61.2756Z" fill="#D0CDE1"/>
<path d="M89.4261 31.297C89.6368 28.7197 90.8683 26.0779 93.1457 24.8615C92.0021 22.5599 90.9801 19.9329 91.7339 17.4753C92.0398 16.5218 92.5936 15.6672 93.3385 14.9993C94.0834 14.3315 94.9924 13.8745 95.972 13.6755C97.0655 13.5248 98.1754 13.5392 99.2647 13.7182L104.399 14.3018C106.065 14.4911 107.795 14.7023 109.212 15.6003C109.95 16.0678 110.567 16.7022 111.015 17.4525C111.463 18.2027 111.73 19.048 111.792 19.9201C111.855 20.7922 111.712 21.6669 111.376 22.4738C111.04 23.2806 110.519 23.9971 109.856 24.5655C113.448 27.4448 115.849 29.6305 117.484 33.9392C114.488 31.523 111.622 30.6673 107.782 30.459C105.378 30.3286 103.018 31.1427 101.204 32.7281C99.3892 34.3136 98.2633 36.5455 98.0653 38.9495C97.9662 40.1519 98.0986 41.3899 97.7494 42.5445C97.4002 43.6991 96.3481 44.7808 95.1559 44.6121C95.3212 44.6355 96.3391 41.5728 95.6225 40.1592L95.6113 40.1364C95.4537 39.8442 95.1937 39.6207 94.8816 39.509C94.6031 39.402 94.3052 39.3557 94.0075 39.373C93.7098 39.3903 93.4191 39.4708 93.1549 39.6094C92.8907 39.7479 92.6589 39.9412 92.475 40.1764C92.291 40.4116 92.1592 40.6833 92.0881 40.9735C91.6895 42.5074 91.0517 44.4648 90.4946 43.9452C89.7649 43.2648 90.0719 37.2654 89.875 36.3354C89.4821 34.6867 89.3309 32.9894 89.4261 31.297Z" fill="#2F2E41"/>
<path d="M93.2021 24.8202C93.2021 24.8202 104.496 25.5582 109.897 24.5742L93.2021 24.8202Z" fill="#D0CDE1"/>
<path d="M93.8429 23.3058C92.6993 21.0042 91.6772 18.3772 92.4311 15.9196C92.7832 14.8117 93.472 13.8416 94.4011 13.145C93.6914 13.4719 93.0571 13.9431 92.5386 14.5285C92.0201 15.114 91.6287 15.801 91.3892 16.546C90.6353 19.0036 91.6573 21.6306 92.801 23.9322C93.7081 23.7965 91.5654 24.5222 93.8429 23.3058Z" fill="#2F2E41"/>
<path opacity="0.2" d="M97.459 81.842L81.2051 110.656L74.9536 126.316L83.7059 111.283L97.459 81.842Z" fill="black"/>
<path d="M23.1856 194.268H22.502V226.12H23.1856V194.268Z" fill="#3F3D56"/>
<path d="M23.0483 194.952C21.6286 194.952 20.2408 194.531 19.0603 193.74C17.8799 192.95 16.9598 191.827 16.4165 190.512C15.8732 189.198 15.7311 187.752 16.008 186.357C16.285 184.962 16.9687 183.68 17.9726 182.674C18.9765 181.668 20.2555 180.983 21.6479 180.706C23.0404 180.428 24.4837 180.571 25.7953 181.115C27.1069 181.659 28.228 182.581 29.0168 183.764C29.8055 184.947 30.2265 186.337 30.2265 187.76C30.2244 189.667 29.4674 191.495 28.1217 192.843C26.776 194.192 24.9514 194.95 23.0483 194.952ZM23.0483 181.252C21.7638 181.252 20.5082 181.634 19.4401 182.349C18.3721 183.064 17.5397 184.081 17.0481 185.27C16.5566 186.459 16.428 187.767 16.6786 189.029C16.9291 190.292 17.5477 191.451 18.456 192.361C19.3643 193.272 20.5215 193.891 21.7813 194.142C23.0411 194.393 24.347 194.265 25.5337 193.772C26.7204 193.28 27.7347 192.445 28.4483 191.375C29.162 190.305 29.5429 189.047 29.5429 187.76C29.5409 186.035 28.856 184.381 27.6385 183.161C26.421 181.941 24.7702 181.254 23.0483 181.252Z" fill="#3F3D56"/>
<path d="M28.8592 182.623C27.9803 182.623 27.1212 182.361 26.3904 181.872C25.6597 181.383 25.0901 180.688 24.7538 179.874C24.4175 179.06 24.3295 178.165 24.5009 177.301C24.6724 176.438 25.0956 175.644 25.717 175.022C26.3385 174.399 27.1303 173.975 27.9923 173.803C28.8542 173.631 29.7477 173.719 30.5597 174.056C31.3717 174.393 32.0657 174.964 32.5539 175.696C33.0422 176.429 33.3028 177.289 33.3028 178.17C33.3015 179.351 32.8329 180.482 31.9998 181.317C31.1668 182.152 30.0373 182.621 28.8592 182.623ZM28.8592 174.403C28.1155 174.403 27.3886 174.624 26.7702 175.037C26.1519 175.451 25.67 176.04 25.3854 176.728C25.1008 177.417 25.0263 178.174 25.1714 178.905C25.3165 179.636 25.6746 180.307 26.2005 180.834C26.7263 181.361 27.3963 181.72 28.1256 181.865C28.855 182.011 29.611 181.936 30.2981 181.651C30.9851 181.366 31.5724 180.883 31.9855 180.263C32.3987 179.644 32.6192 178.915 32.6192 178.17C32.6181 177.171 32.2216 176.214 31.5167 175.507C30.8118 174.801 29.856 174.404 28.8592 174.403Z" fill="#3F3D56"/>
<path d="M169.323 95.3558C171.589 95.3558 173.425 93.5156 173.425 91.2457C173.425 88.9759 171.589 87.1357 169.323 87.1357C167.058 87.1357 165.222 88.9759 165.222 91.2457C165.222 93.5156 167.058 95.3558 169.323 95.3558Z" fill="#D0CDE1"/>
<path d="M154.155 90.8175C157.93 90.8175 160.991 87.7506 160.991 83.9674C160.991 80.1843 157.93 77.1174 154.155 77.1174C150.379 77.1174 147.318 80.1843 147.318 83.9674C147.318 87.7506 150.379 90.8175 154.155 90.8175Z" fill="#080B24"/>
<path d="M156.906 92.6749C155.062 92.6749 153.287 91.9657 151.949 90.6937C150.611 89.4216 149.811 87.6836 149.714 85.838C149.617 83.9924 150.23 82.1798 151.428 80.774C152.625 79.3682 154.315 78.4762 156.15 78.2821C157.984 78.088 159.823 78.6065 161.287 79.7307C162.751 80.8549 163.729 82.4991 164.018 84.3243C164.308 86.1495 163.888 88.0166 162.845 89.5407C161.802 91.0647 160.214 92.1296 158.411 92.5157C157.916 92.6212 157.412 92.6746 156.906 92.6749ZM156.934 78.9703C156.476 78.9705 156.02 79.0187 155.572 79.1141C153.887 79.4724 152.413 80.4867 151.475 81.9338C150.536 83.381 150.21 85.1425 150.567 86.8308C150.925 88.5191 151.937 89.9959 153.381 90.9364C154.826 91.8769 156.584 92.204 158.269 91.8457C159.837 91.5113 161.227 90.6073 162.17 89.3078C163.114 88.0082 163.544 86.4049 163.378 84.8066C163.212 83.2082 162.462 81.7278 161.273 80.6503C160.083 79.5728 158.537 78.9744 156.934 78.9703Z" fill="#3F3D56"/>
<path d="M167.48 93.6391C166.338 93.639 165.24 93.2 164.412 92.4126C163.584 91.6251 163.089 90.5493 163.029 89.4068C162.969 88.2644 163.348 87.1425 164.09 86.2723C164.831 85.4021 165.877 84.8501 167.012 84.73C168.148 84.6099 169.286 84.9309 170.192 85.6268C171.098 86.3227 171.704 87.3405 171.883 88.4703C172.062 89.6001 171.802 90.7559 171.156 91.6992C170.511 92.6426 169.528 93.3017 168.411 93.5406C168.105 93.6059 167.793 93.6389 167.48 93.6391ZM167.49 85.4171C166.713 85.4168 165.954 85.6579 165.319 86.1072C164.684 86.5564 164.204 87.1918 163.944 87.9259C163.684 88.66 163.658 89.4567 163.869 90.2064C164.08 90.9561 164.517 91.6219 165.121 92.1123C165.725 92.6027 166.466 92.8935 167.241 92.9447C168.017 92.996 168.789 92.8051 169.452 92.3984C170.115 91.9917 170.636 91.3892 170.943 90.6737C171.25 89.9582 171.328 89.165 171.167 88.4031C170.989 87.5584 170.526 86.8009 169.856 86.2573C169.187 85.7137 168.352 85.4171 167.49 85.4171H167.49Z" fill="#3F3D56"/>
<path d="M270.683 23.2559C272.949 23.2559 274.785 21.4158 274.785 19.1459C274.785 16.876 272.949 15.0359 270.683 15.0359C268.418 15.0359 266.582 16.876 266.582 19.1459C266.582 21.4158 268.418 23.2559 270.683 23.2559Z" fill="#D0CDE1"/>
<path d="M282.381 13.8875C286.156 13.8875 289.217 10.8207 289.217 7.03752C289.217 3.25436 286.156 0.1875 282.381 0.1875C278.605 0.1875 275.544 3.25436 275.544 7.03752C275.544 10.8207 278.605 13.8875 282.381 13.8875Z" fill="#080B24"/>
<path d="M280.077 16.38C279.066 16.3802 278.066 16.1663 277.142 15.7522C276.219 15.3382 275.394 14.7334 274.72 13.9774C274.046 13.2215 273.539 12.3314 273.232 11.3655C272.926 10.3997 272.826 9.3798 272.94 8.37271C273.097 6.99409 273.649 5.69037 274.528 4.61873C275.408 3.54709 276.578 2.75327 277.898 2.33299C279.218 1.91271 280.631 1.8839 281.966 2.25004C283.302 2.61618 284.504 3.36163 285.426 4.39653C286.348 5.43143 286.952 6.71159 287.165 8.08267C287.378 9.45376 287.19 10.8572 286.625 12.1239C286.06 13.3905 285.141 14.4663 283.979 15.2215C282.817 15.9767 281.462 16.379 280.077 16.38ZM273.619 8.45031C273.449 9.9462 273.802 11.4549 274.617 12.7194C275.433 13.9839 276.661 14.9259 278.092 15.385C279.523 15.844 281.069 15.7917 282.465 15.2369C283.862 14.6821 285.024 13.6592 285.752 12.3424C286.481 11.0256 286.731 9.49649 286.461 8.01553C286.19 6.53456 285.416 5.1934 284.269 4.22057C283.122 3.24774 281.674 2.70342 280.172 2.68037C278.669 2.65731 277.205 3.15694 276.029 4.09413C274.682 5.16905 273.815 6.73573 273.619 8.45031Z" fill="#3F3D56"/>
<path d="M273.224 22.5093C273.053 22.5093 272.882 22.4996 272.712 22.4802C271.542 22.3451 270.472 21.7505 269.739 20.8266C269.006 19.9027 268.668 18.7251 268.8 17.552C268.897 16.699 269.239 15.8923 269.783 15.2292C270.327 14.5661 271.051 14.0748 271.868 13.8146C272.684 13.5544 273.559 13.5363 274.385 13.7626C275.212 13.9888 275.956 14.4497 276.527 15.0898C277.098 15.7298 277.472 16.5217 277.604 17.37C277.737 18.2183 277.621 19.0868 277.272 19.8709C276.923 20.655 276.355 21.3213 275.637 21.7894C274.919 22.2575 274.081 22.5075 273.224 22.5093V22.5093ZM269.479 17.6296C269.395 18.3701 269.531 19.1189 269.872 19.7815C270.212 20.444 270.741 20.9905 271.392 21.3519C272.042 21.7132 272.785 21.8732 273.526 21.8115C274.267 21.7498 274.974 21.4693 275.556 21.0054C276.138 20.5415 276.57 19.9151 276.796 19.2053C277.023 18.4956 277.035 17.7344 276.83 17.018C276.625 16.3017 276.212 15.6623 275.645 15.1808C275.077 14.6993 274.38 14.3973 273.641 14.313C272.65 14.2011 271.656 14.4875 270.875 15.1092C270.095 15.731 269.593 16.6374 269.479 17.6296Z" fill="#3F3D56"/>
<path d="M270.525 46.9922H200.794V126.452H270.525V46.9922Z" fill="#D0CDE1"/>
<path d="M340.257 46.9922H268.816V126.452H340.257V46.9922Z" fill="#3F3D56"/>
<path d="M270.525 57.9521H200.794V70.9672H270.525V57.9521Z" fill="#080B24"/>
<path d="M340.256 57.9521H270.525V70.9672H340.256V57.9521Z" fill="#D0CDE1"/>
<path d="M270.525 101.449H200.794V114.465H270.525V101.449Z" fill="#3F3D56"/>
<path d="M340.256 101.449H270.525V114.465H340.256V101.449Z" fill="#080B24"/>
<path d="M268.816 51.1021V122.342C278.245 122.342 287.287 118.589 293.953 111.909C300.62 105.229 304.366 96.1692 304.366 86.7221C304.366 77.2751 300.62 68.215 293.953 61.5349C287.287 54.8549 278.245 51.1021 268.816 51.1021Z" fill="#D0CDE1"/>
<path d="M233.267 86.7221C233.267 91.3998 234.187 96.0317 235.973 100.353C237.76 104.675 240.378 108.602 243.679 111.909C250.346 118.589 259.388 122.342 268.816 122.342V51.1021C259.388 51.1021 250.346 54.8549 243.679 61.5349C237.012 68.215 233.267 77.2751 233.267 86.7221Z" fill="#080B24"/>
<path d="M250.358 86.7223C250.358 91.6275 252.303 96.3318 255.764 99.8003C259.226 103.269 263.921 105.217 268.816 105.217V68.2273C263.921 68.2273 259.226 70.1759 255.764 73.6444C252.303 77.1129 250.358 81.8171 250.358 86.7223Z" fill="#3F3D56"/>
<path d="M287.275 86.7223C287.275 91.6275 285.33 96.3318 281.868 99.8003C278.407 103.269 273.712 105.217 268.816 105.217V68.2273C273.712 68.2273 278.407 70.1759 281.868 73.6444C285.33 77.1129 287.275 81.8171 287.275 86.7223Z" fill="#080B24"/>
<path d="M350.853 140.495H190.198V32.9497H350.853V140.495ZM190.881 139.81H350.169V33.6347H190.881V139.81Z" fill="#3F3D56"/>
<path d="M198.914 225.777H0.317383V226.462H198.914V225.777Z" fill="#3F3D56"/>
</svg>
