<svg width="190" height="227" viewBox="0 0 190 227" fill="none" xmlns="http://www.w3.org/2000/svg">
<path d="M2.79648 127.703L0.538086 140.858C0.538086 140.858 1.05926 153.147 5.22864 152.801C9.39801 152.455 5.22864 139.992 5.22864 139.992L9.22428 129.088L2.79648 127.703Z" fill="#FFB9B9"/>
<path d="M10.788 108.144L9.22452 127.703L1.75439 126.664L4.36025 110.394V96.3735L7.31356 93.4309L10.788 108.144Z" fill="#E6E6E6"/>
<path d="M2.10136 129.087L9.74532 130.472L10.0929 126.837L1.40674 126.491L2.10136 129.087Z" fill="#3F3D56"/>
<path d="M14.1753 75.3425L14.9573 81.3142L15.739 87.2859L26.3362 85.7283L25.2936 75.3425H14.1753Z" fill="#FFB9B9"/>
<path d="M41.1897 124.76L38.7575 134.107L36.6729 137.396C36.6729 137.396 38.2364 143.627 39.7999 143.454C41.3634 143.281 42.4057 137.396 42.4057 137.396L48.3123 124.76H41.1897Z" fill="#FFB9B9"/>
<path d="M12.1777 131.857C12.1777 131.857 10.9617 137.742 8.18208 140.339C5.4025 142.935 14.6099 211.825 14.6099 211.825C14.6099 211.825 21.0376 213.902 24.1647 214.248C27.2917 214.595 25.3807 177.726 25.3807 177.726V167.687C25.3807 167.687 31.6348 207.325 31.6348 207.844V210.44L34.7618 213.729C34.7618 213.729 40.1472 212.344 41.0158 213.729C41.8845 215.114 44.1429 215.287 44.8378 215.806C45.5326 216.326 40.8421 143.8 40.8421 143.8L35.9779 136.184L12.1777 131.857Z" fill="#2F2E41"/>
<path d="M19.474 78.7183C24.0793 78.7183 27.8127 74.9985 27.8127 70.4099C27.8127 65.8213 24.0793 62.1016 19.474 62.1016C14.8686 62.1016 11.1353 65.8213 11.1353 70.4099C11.1353 74.9985 14.8686 78.7183 19.474 78.7183Z" fill="#FFB9B9"/>
<path d="M35.2827 98.6237C35.2827 98.9699 40.3207 113.163 39.9733 113.683C39.6258 114.202 40.3207 123.203 40.3207 123.203H49.3543C49.5895 122.535 49.7071 121.833 49.7018 121.126C49.7018 119.914 48.1382 106.586 46.401 98.4506C44.6638 90.3153 39.2783 86.6804 39.2783 86.6804L38.0623 87.3728C38.0623 87.3728 35.2827 98.2775 35.2827 98.6237Z" fill="#E6E6E6"/>
<path d="M40.3209 125.972L47.9649 125.799L50.7446 123.202L39.7998 122.51L40.3209 125.972Z" fill="#3F3D56"/>
<path d="M19.4741 137.396L21.0376 143.454C21.0376 143.454 27.2917 142.242 29.7238 141.377C32.1559 140.512 38.9312 139.646 38.9312 139.646L36.6727 135.492L19.4741 137.396Z" fill="#3F3D56"/>
<path d="M8.18222 136.184L7.31348 141.55L14.9574 143.108L16.8684 137.396L8.18222 136.184Z" fill="#3F3D56"/>
<path d="M14.957 84.4304C14.957 84.4304 14.2621 85.9882 9.74531 87.546C5.22848 89.1038 4.35986 96.3736 4.35986 96.3736C4.35986 96.3736 9.74529 110.913 9.57157 111.952C9.39785 112.99 10.2665 115.414 10.2665 115.414L9.39785 130.126L7.66061 136.704C23.122 142.416 37.8885 135.838 37.8885 135.838C37.8885 135.838 37.1936 129.434 37.5411 127.703C37.8885 125.972 38.4097 110.048 38.4097 110.048L39.2783 86.6805L29.0286 83.0456L27.2914 81.6609C27.2914 81.6609 26.9439 77.6798 26.4228 77.3336C25.9016 76.9875 24.5118 78.7184 22.6008 80.7955C20.6899 82.8725 16.6942 82.5264 15.4782 81.834C14.2621 81.1416 13.7409 81.4878 13.7409 81.4878C12.8723 82.1802 14.957 84.4304 14.957 84.4304Z" fill="#E6E6E6"/>
<path d="M25.6556 66.9112C24.6232 64.0574 20.3601 66.2807 16.3968 67.044C12.4335 67.8072 12.6118 75.3428 12.6118 75.3428C12.6118 75.3428 10.1797 71.3412 10.1797 66.8613C10.1797 62.3815 12.317 63.4435 12.6167 62.7799C12.9164 62.1162 13.7158 62.5808 13.7158 62.5808C13.7158 62.5808 14.1487 60.9216 15.3477 61.1538C15.6748 61.2293 16.0171 61.2066 16.3312 61.0885C16.6454 60.9704 16.9174 60.7622 17.1129 60.4902C22.908 57.4041 22.0087 60.2579 24.2069 60.6561C26.4051 61.0543 26.072 61.5852 26.7714 62.8462C27.3299 63.9802 27.7977 65.1563 28.1702 66.3637C28.1258 67.1783 28.2044 67.9948 28.4034 68.7861C28.7364 70.1799 27.8705 71.474 27.8705 71.474C26.9563 70.0443 26.213 68.5129 25.6556 66.9112Z" fill="#2F2E41"/>
<path d="M12.5249 73.2658C12.9567 73.2658 13.3067 72.8008 13.3067 72.2273C13.3067 71.6537 12.9567 71.1887 12.5249 71.1887C12.0932 71.1887 11.7432 71.6537 11.7432 72.2273C11.7432 72.8008 12.0932 73.2658 12.5249 73.2658Z" fill="#FFB9B9"/>
<path d="M23.0636 211.516L23.9799 218.82C23.9799 218.82 24.8963 220.646 23.9799 221.559C23.0636 222.472 23.9799 224.907 23.9799 224.907C23.9799 224.907 21.8419 226.732 16.9548 226.428C12.0677 226.124 13.2895 222.168 14.5112 220.342C15.733 218.516 15.733 214.864 15.733 214.864L16.9548 211.212L23.0636 211.516Z" fill="#2F2E41"/>
<path d="M34.6463 211.516L33.73 218.82C33.73 218.82 32.8137 220.646 33.73 221.559C34.6463 222.472 33.73 224.907 33.73 224.907C33.73 224.907 35.8681 226.732 40.7552 226.428C45.6423 226.124 44.4205 222.168 43.1987 220.342C41.977 218.516 41.977 214.864 41.977 214.864L40.7552 211.212L34.6463 211.516Z" fill="#2F2E41"/>
<path d="M189.229 53.9585H187.981V19.8995C187.981 14.6714 185.896 9.65747 182.186 5.96066C178.476 2.26386 173.444 0.187016 168.196 0.187012H95.7738C93.1757 0.187006 90.603 0.696878 88.2026 1.68752C85.8022 2.67815 83.6212 4.13015 81.784 5.96062C79.9469 7.79109 78.4896 9.96417 77.4953 12.3558C76.501 14.7474 75.9893 17.3107 75.9893 19.8994V206.75C75.9893 211.978 78.0737 216.992 81.784 220.689C85.4943 224.386 90.5266 226.462 95.7737 226.462H168.196C173.443 226.462 178.476 224.386 182.186 220.689C185.896 216.992 187.981 211.978 187.981 206.75V78.2023H189.229V53.9585Z" fill="#3F3D56"/>
<path d="M168.994 5.31544H159.541C159.976 6.37741 160.142 7.52961 160.024 8.67053C159.907 9.81145 159.509 10.9061 158.867 11.858C158.225 12.8099 157.358 13.5899 156.342 14.1292C155.326 14.6686 154.193 14.9507 153.042 14.9508H111.552C110.401 14.9507 109.267 14.6686 108.251 14.1292C107.236 13.5899 106.368 12.8099 105.726 11.858C105.084 10.9061 104.687 9.81144 104.57 8.67052C104.452 7.5296 104.618 6.3774 105.053 5.31543H96.2231C92.3046 5.31543 88.5465 6.86639 85.7757 9.62711C83.0049 12.3878 81.4482 16.1322 81.4482 20.0364V206.613C81.4482 208.546 81.8304 210.46 82.5729 212.246C83.3154 214.032 84.4037 215.655 85.7757 217.022C87.1477 218.389 88.7764 219.474 90.569 220.213C92.3616 220.953 94.2828 221.334 96.2231 221.334H168.994C170.935 221.334 172.856 220.953 174.648 220.213C176.441 219.474 178.07 218.389 179.442 217.022C180.814 215.655 181.902 214.032 182.645 212.246C183.387 210.46 183.769 208.546 183.769 206.613V20.0364C183.769 18.1033 183.387 16.189 182.645 14.403C181.902 12.6169 180.814 10.9941 179.442 9.62712C178.07 8.26015 176.441 7.1758 174.648 6.43601C172.856 5.69621 170.935 5.31544 168.994 5.31544Z" fill="white"/>
<path d="M92.9675 28.1602C92.5538 28.1606 92.1572 28.3246 91.8647 28.616C91.5723 28.9074 91.4077 29.3026 91.4072 29.7147V200.666C91.4077 201.078 91.5723 201.473 91.8647 201.764C92.1572 202.056 92.5538 202.22 92.9675 202.22H172.251C172.665 202.22 173.061 202.056 173.354 201.764C173.646 201.473 173.811 201.078 173.811 200.666V29.7147C173.811 29.3026 173.646 28.9074 173.354 28.616C173.061 28.3246 172.665 28.1606 172.251 28.1602H92.9675Z" fill="#080B24"/>
<path d="M124.683 145.904C124.683 133.805 126.995 120.527 134.798 110.161C145.662 95.7288 145.082 77.9479 142.682 65.5731C141.075 57.3533 138.408 49.375 134.747 41.8366L135.796 41.2915C139.504 48.922 142.207 56.9979 143.838 65.3187C146.289 77.9366 146.875 96.0819 135.744 110.868C114.894 138.568 133.621 188.169 133.812 188.666L132.707 189.088C129.38 179.787 127.029 170.167 125.693 160.383C125.036 155.584 124.699 150.747 124.683 145.904Z" fill="white"/>
<path opacity="0.3" d="M135.271 41.5581C135.271 41.5581 145.157 82.2246 131.622 110.514C118.086 138.804 131.722 188.901 131.722 188.901" fill="white"/>
<path opacity="0.3" d="M119.915 79.9505C119.937 75.0379 120.428 70.1386 121.381 65.3187C123.012 56.9979 125.715 48.922 129.423 41.2915L130.472 41.8366C126.811 49.375 124.144 57.3533 122.537 65.5731C120.137 77.9473 119.557 95.7285 130.421 110.161C141.541 124.934 141.51 145.628 139.525 160.383C138.19 170.167 135.839 179.787 132.512 189.088L131.407 188.666C131.599 188.168 150.326 138.569 129.474 110.868C122.175 101.172 119.915 90.0299 119.915 79.9505Z" fill="white"/>
<path opacity="0.3" d="M124.678 80.151C124.678 59.7386 132.028 41.6118 132.14 41.3398L133.235 41.7888C133.068 42.1922 116.731 82.5074 133.196 110.215C149.948 138.401 134.995 188.545 134.842 189.048L133.71 188.707C133.861 188.209 148.664 138.555 132.179 110.815C126.552 101.348 124.678 90.4578 124.678 80.151Z" fill="white"/>
<path opacity="0.3" d="M133.597 41.5645C133.597 41.5645 120.062 82.2251 133.597 110.515C147.133 138.805 134.876 188.878 134.876 188.878" fill="white"/>
<path opacity="0.3" d="M135.271 41.5645C135.271 41.5645 156.566 82.2251 135.271 110.515C113.976 138.805 133.259 188.878 133.259 188.878" fill="white"/>
</svg>
