<svg width="214" height="184" viewBox="0 0 214 184" fill="none" xmlns="http://www.w3.org/2000/svg">
<path d="M8.15626 20.6506C12.2973 20.6506 15.6543 17.2976 15.6543 13.1615C15.6543 9.02545 12.2973 5.67249 8.15626 5.67249C4.0152 5.67249 0.658203 9.02545 0.658203 13.1615C0.658203 17.2976 4.0152 20.6506 8.15626 20.6506Z" fill="#FF6584"/>
<path d="M46.2147 47.2027V44.2525H34.854V47.2027H32.5819V5.67249H8.27002V75.3435H28.2648H32.5819H52.5767V47.2027H46.2147Z" fill="#E6E6E6"/>
<path d="M130.486 39.6183C130.486 39.6183 130.47 39.6331 130.444 39.6591L130.444 39.6183L130.443 39.6599C129.868 40.2181 123.469 46.5247 120.987 52.9213C120.163 52.0055 119.58 51.4468 119.58 51.4468C119.58 51.4468 119.57 51.4565 119.552 51.4735L119.552 51.4468L119.551 51.4741C119.083 51.929 112.713 58.2075 112.713 63.1827C112.713 67.9862 115.372 69.8819 118.795 70.1239L118.546 74.862H119.24L119.317 70.148C119.404 70.15 119.492 70.1513 119.58 70.1513C122.109 70.1513 124.317 69.3474 125.508 67.2812C126.716 67.7573 127.992 68.0385 129.288 68.1144L128.91 75.3435H129.968L130.085 68.1512C130.218 68.1541 130.352 68.1561 130.486 68.1561C136.272 68.1561 140.962 65.4046 140.962 57.5241C140.962 49.6435 130.486 39.6183 130.486 39.6183Z" fill="#F2F2F2"/>
<path d="M105.518 44.541V40.3945H92.7937V44.541H86.8861V28.1396H81.2058V21.7853H68.4818V28.1396H62.5742V53.8875C61.7177 52.8168 60.7991 51.7971 59.8231 50.8338C59.8231 50.8338 59.8129 50.8435 59.7954 50.8605L59.7956 50.8338L59.7949 50.861C59.3265 51.3159 52.9565 57.5944 52.9565 62.5697C52.9565 67.3732 55.6156 69.2689 59.0382 69.5108L58.7899 74.249H59.4835L59.5601 69.535C59.6474 69.5369 59.735 69.5382 59.8231 69.5382C60.7546 69.55 61.6824 69.419 62.5743 69.1499V75.3434H111.198V44.541H105.518Z" fill="#F2F2F2"/>
<path d="M203.422 39.913C203.422 39.913 203.406 39.9278 203.379 39.9538L203.38 39.913L203.379 39.9546C202.784 40.5324 195.949 47.2684 193.676 53.8885V50.6068L171.864 17.7003L150.051 50.6068V75.3434H193.676V62.5537C195.07 66.4471 198.321 68.1332 202.224 68.4091L201.845 75.6382H202.903L203.02 68.4459C203.154 68.4489 203.287 68.4509 203.422 68.4509C209.208 68.4509 213.898 65.6993 213.898 57.8188C213.898 49.9383 203.422 39.913 203.422 39.913Z" fill="#F2F2F2"/>
<path d="M35.3082 84.267C51.1823 84.267 64.0507 83.0822 64.0507 81.6207C64.0507 80.1593 51.1823 78.9745 35.3082 78.9745C19.4341 78.9745 6.56567 80.1593 6.56567 81.6207C6.56567 83.0822 19.4341 84.267 35.3082 84.267Z" fill="#F2F2F2"/>
<path d="M194.699 116.322C201.779 116.322 207.518 115.794 207.518 115.142C207.518 114.49 201.779 113.962 194.699 113.962C187.62 113.962 181.881 114.49 181.881 115.142C181.881 115.794 187.62 116.322 194.699 116.322Z" fill="#F2F2F2"/>
<path d="M57.4619 95.6705C64.5415 95.6705 70.2806 95.1422 70.2806 94.4904C70.2806 93.8386 64.5415 93.3102 57.4619 93.3102C50.3824 93.3102 44.6433 93.8386 44.6433 94.4904C44.6433 95.1422 50.3824 95.6705 57.4619 95.6705Z" fill="#F2F2F2"/>
<path d="M200.151 110.399C200.151 113.708 198.182 114.864 195.753 114.864C195.696 114.864 195.64 114.863 195.584 114.862C195.471 114.859 195.36 114.854 195.25 114.847C193.057 114.692 191.354 113.477 191.354 110.399C191.354 107.214 195.428 103.196 195.734 102.898L195.735 102.898C195.747 102.886 195.752 102.881 195.752 102.881C195.752 102.881 200.151 107.09 200.151 110.399Z" fill="#080B24"/>
<path d="M195.593 114.357L197.201 112.112L195.589 114.604L195.584 114.862C195.472 114.859 195.36 114.854 195.25 114.847L195.423 111.536L195.422 111.51L195.425 111.505L195.441 111.193L193.824 108.695L195.447 110.958L195.45 111.025L195.581 108.523L194.197 105.942L195.598 108.084L195.735 102.898L195.735 102.881V102.898L195.712 106.987L197.091 105.366L195.707 107.339L195.67 109.579L196.957 107.43L195.665 109.909L195.645 111.154L197.513 108.162L195.638 111.588L195.593 114.357Z" fill="#3F3D56"/>
<path d="M24.5159 158.223C37.7232 158.223 48.4298 157.238 48.4298 156.022C48.4298 154.806 37.7232 153.82 24.5159 153.82C11.3086 153.82 0.602051 154.806 0.602051 156.022C0.602051 157.238 11.3086 158.223 24.5159 158.223Z" fill="#F2F2F2"/>
<path d="M34.6882 147.173C34.6882 153.347 31.0142 155.502 26.4817 155.502C26.3767 155.502 26.2719 155.501 26.1672 155.499C25.9572 155.494 25.7492 155.484 25.5437 155.47C21.4532 155.181 18.2751 152.915 18.2751 147.173C18.2751 141.232 25.8767 133.735 26.4477 133.18L26.4487 133.179C26.4707 133.158 26.4817 133.147 26.4817 133.147C26.4817 133.147 34.6882 141 34.6882 147.173Z" fill="#080B24"/>
<path d="M26.1826 154.558L29.1841 150.369L26.1751 155.018L26.1671 155.499C25.9571 155.494 25.7491 155.484 25.5436 155.47L25.8671 149.294L25.8646 149.246L25.8701 149.237L25.9006 148.654L22.884 143.993L25.9101 148.216L25.9171 148.34L26.1616 143.674L23.579 138.858L26.1931 142.855L26.4476 133.18L26.4486 133.147V133.179L26.4061 140.808L28.9771 137.784L26.3956 141.465L26.3276 145.643L28.7281 141.634L26.3176 146.258L26.2796 148.581L29.7646 143L26.2666 149.391L26.1826 154.558Z" fill="#3F3D56"/>
<path d="M67.9132 52.1734C67.9132 65.2055 60.1565 69.7558 50.5882 69.7558C41.0198 69.7558 33.2632 65.2055 33.2632 52.1734C33.2632 39.1414 50.5882 22.5625 50.5882 22.5625C50.5882 22.5625 67.9132 39.1414 67.9132 52.1734Z" fill="#080B24"/>
<path d="M49.9573 67.7623L50.1348 56.8557L57.5192 43.3625L50.1625 55.1448L50.2423 50.2406L55.3316 40.4785L50.2634 48.9427V48.943L50.407 40.1226L55.8567 32.3508L50.4295 38.7356L50.5192 22.5624L49.9557 43.9729L50.0021 43.0897L44.4613 34.6186L49.9133 44.7852L49.397 54.6358L49.3816 54.3743L42.9941 45.4601L49.3623 55.298L49.2977 56.5298L49.2861 56.5484L49.2914 56.6497L47.9817 81.6416H49.7317L49.9417 68.7327L56.2941 58.9188L49.9573 67.7623Z" fill="#3F3D56"/>
<path d="M37.5311 52.1734C37.5311 65.2055 29.7744 69.7558 20.2061 69.7558C10.6378 69.7558 2.8811 65.2055 2.8811 52.1734C2.8811 39.1414 20.2061 22.5625 20.2061 22.5625C20.2061 22.5625 37.5311 39.1414 37.5311 52.1734Z" fill="#080B24"/>
<path d="M19.575 67.7623L19.7525 56.8557L27.1367 43.3625L19.7802 55.1448L19.8599 50.2406L24.9493 40.4785L19.8811 48.9427V48.943L20.0247 40.1226L25.4742 32.3508L20.0472 38.7356L20.1367 22.5624L19.5734 43.9729L19.6198 43.0897L14.0789 34.6186L19.5309 44.7852L19.0147 54.6358L18.9992 54.3743L12.6118 45.4601L18.9799 55.298L18.9154 56.5298L18.9038 56.5484L18.909 56.6497L17.5994 81.6416H19.3494L19.5593 68.7327L25.9118 58.9188L19.575 67.7623Z" fill="#3F3D56"/>
<path d="M60.8699 40.8517C60.8699 58.4742 50.381 64.6274 37.4423 64.6274C24.5036 64.6274 14.0146 58.4742 14.0146 40.8517C14.0146 23.2291 37.4423 0.810425 37.4423 0.810425C37.4423 0.810425 60.8699 23.2291 60.8699 40.8517Z" fill="#F2F2F2"/>
<path d="M36.5888 61.9316L36.8288 47.1832L46.8141 28.9371L36.8665 44.8695L36.9742 38.238L43.8562 25.0373L37.0028 36.4831L37.1968 24.556L44.5661 14.0466L37.2273 22.6805L37.3484 0.810425L36.5868 29.7625L36.6493 28.5681L29.1569 17.1134L36.5293 30.8609L35.8311 44.1814L35.8104 43.8278L27.1729 31.7734L35.7843 45.0769L35.6968 46.7427L35.6811 46.7676L35.6884 46.9045L33.9172 80.6997H36.2837L36.5675 63.2438L45.1577 49.9732L36.5888 61.9316Z" fill="#3F3D56"/>
<path d="M60.415 91.9102C60.4158 92.2469 60.3586 92.5812 60.2459 92.8986C60.0815 93.3577 59.8067 93.7693 59.4457 94.0974C59.066 94.4407 58.6032 94.6792 58.103 94.7894C57.8924 94.8369 57.6772 94.8608 57.4613 94.8605C56.923 94.8594 56.3951 94.713 55.9334 94.4367C55.5061 94.1775 55.151 93.815 54.9009 93.3827C54.6749 92.9906 54.5421 92.5518 54.513 92.1004C54.4838 91.6489 54.559 91.1967 54.7327 90.7789C54.9064 90.3611 55.174 89.9887 55.5148 89.6907C55.8555 89.3926 56.2604 89.1768 56.698 89.0599C57.1356 88.9431 57.5942 88.9283 58.0384 89.0168C58.4827 89.1052 58.9006 89.2945 59.2599 89.57C59.6192 89.8455 59.9102 90.1999 60.1105 90.6057C60.3108 91.0114 60.415 91.4578 60.415 91.9102V91.9102Z" fill="#3F3D56"/>
<path d="M55.2356 89.9711L55.5001 89.9375L56.0036 90.5986L55.6828 91.3645L54.8585 91.4689L54.6101 91.1419L55.2356 89.9711Z" fill="#F2F2F2"/>
<path d="M56.8906 93.1076L56.0658 93.2124L55.5625 92.5513L55.8842 91.7854L56.7088 91.6808L57.2121 92.3416L56.8906 93.1076Z" fill="#F2F2F2"/>
<path d="M56.1379 93.9512L55.9338 94.4366C55.5066 94.1774 55.1515 93.8149 54.9014 93.3826L55.6344 93.29L56.1379 93.9512Z" fill="#F2F2F2"/>
<path d="M57.8308 90.8278L57.0062 90.9326L56.5029 90.2715L56.8244 89.5058L57.6492 89.401L58.1523 90.0621L57.8308 90.8278Z" fill="#F2F2F2"/>
<path d="M59.039 92.5711L58.2142 92.6759L57.7109 92.0148L58.0324 91.2491L58.8572 91.1443L59.3605 91.8054L59.039 92.5711Z" fill="#F2F2F2"/>
<path d="M58.2862 94.3535L58.1036 94.7893C57.893 94.8369 57.6777 94.8607 57.4618 94.8604C57.2418 94.8605 57.0225 94.8357 56.808 94.7867L56.6375 94.5627L56.9583 93.797L57.7827 93.6924L58.2862 94.3535Z" fill="#F2F2F2"/>
<path d="M60.0891 90.5625L59.2889 90.6644L58.7854 90.0033L59.0338 89.4119C59.4825 89.6939 59.847 90.0913 60.0891 90.5625Z" fill="#F2F2F2"/>
<path d="M60.2462 92.8983C60.0819 93.3574 59.8071 93.7691 59.446 94.0972L59.1882 93.7579L59.5091 92.9922L60.2462 92.8983Z" fill="#F2F2F2"/>
<path d="M124.83 183.935C155.324 183.935 180.043 182.487 180.043 180.701C180.043 178.915 155.324 177.467 124.83 177.467C94.3371 177.467 69.6174 178.915 69.6174 180.701C69.6174 182.487 94.3371 183.935 124.83 183.935Z" fill="#F2F2F2"/>
<path d="M97.7046 171.419L86.056 181.858C80.8331 179.57 77.3652 175.678 75.605 170.223L87.2536 159.785C87.327 166.644 90.8828 170.459 97.7046 171.419Z" fill="#E6E6E6"/>
<path d="M85.9659 164.485L78.0974 171.197L78.2449 171.37L86.1133 164.658L85.9659 164.485Z" fill="#3F3D56"/>
<path d="M86.7548 165.89L79.1729 172.723L79.3249 172.891L86.9069 166.059L86.7548 165.89Z" fill="#3F3D56"/>
<path d="M103.439 133.517L87.8759 135.162C84.9845 130.252 84.4569 125.069 86.2291 119.618L101.792 117.973C97.8289 123.575 98.4733 128.748 103.439 133.517Z" fill="#F2F2F2"/>
<path d="M97.9919 121.03L87.6782 121.866L87.6966 122.092L98.0103 121.256L97.9919 121.03Z" fill="#3F3D56"/>
<path d="M97.8073 122.63L87.655 123.732L87.6795 123.957L97.8318 122.855L97.8073 122.63Z" fill="#3F3D56"/>
<path d="M89.2059 100.571L78.802 88.8939C81.1134 83.6864 85.0247 80.2385 90.4927 78.5024L100.897 90.1791C94.0293 90.2247 90.1953 93.7609 89.2059 100.571Z" fill="#E6E6E6"/>
<path d="M89.5073 80.9884L89.334 81.135L96.0222 89.0211L96.1955 88.8745L89.5073 80.9884Z" fill="#3F3D56"/>
<path d="M87.9755 82.0563L87.8064 82.2075L94.6167 89.8079L94.7858 89.6567L87.9755 82.0563Z" fill="#3F3D56"/>
<path d="M100.89 45.2531L90.2639 51.3805L105.374 77.5199L115.999 71.3925L100.89 45.2531Z" fill="#3F3D56"/>
<path d="M102.766 51.5806L94.3101 56.6403L94.4268 56.8348L102.882 51.7752L102.766 51.5806Z" fill="#080B24"/>
<path d="M104.111 53.4565L95.6553 58.5161L95.772 58.7107L104.228 53.6511L104.111 53.4565Z" fill="#080B24"/>
<path d="M105.02 55.0452L96.5645 60.1049L96.6812 60.2994L105.137 55.2398L105.02 55.0452Z" fill="#080B24"/>
<path d="M106.383 57.0877L97.9275 62.1473L98.0442 62.3419L106.5 57.2823L106.383 57.0877Z" fill="#080B24"/>
<path d="M108.428 60.0379L99.9722 65.0975L100.089 65.2921L108.545 60.2325L108.428 60.0379Z" fill="#080B24"/>
<path d="M139.428 78.3712C139.428 78.3712 145.277 75.5615 149.439 76.6088L139.428 49.6426V46.8735L153.598 80.5469C157.141 87.2166 161.619 102.418 153.983 103.639C145.32 105.023 129.725 110.215 129.725 110.215L126.26 80.1018L139.428 78.3712Z" fill="#2F2E41"/>
<path d="M105.294 69.3718C105.294 69.3718 95.9369 57.6034 93.5111 61.757C91.0853 65.9105 104.405 72.8971 104.405 72.8971L105.294 69.3718Z" fill="#FFB9B9"/>
<path d="M108.413 69.7181L104.601 67.6414C104.601 67.6414 102.175 73.8717 102.175 74.91C102.175 75.9484 105.987 76.2946 105.987 76.2946L108.413 69.7181Z" fill="#D0CDE1"/>
<path d="M122.967 43.4122C127.944 43.4122 131.978 39.3831 131.978 34.4129C131.978 29.4427 127.944 25.4136 122.967 25.4136C117.991 25.4136 113.957 29.4427 113.957 34.4129C113.957 39.3831 117.991 43.4122 122.967 43.4122Z" fill="#FFB9B9"/>
<path d="M129.898 33.3745C129.898 33.3745 133.71 44.7967 136.482 45.489C139.255 46.1812 125.74 51.3732 125.74 51.3732C125.74 51.3732 121.581 41.6816 119.502 39.2587C117.423 36.8358 129.898 33.3745 129.898 33.3745Z" fill="#FFB9B9"/>
<path opacity="0.1" d="M151.557 100.177C159.027 98.9838 154.904 84.4113 151.405 77.5333C151.722 77.7748 152.006 78.0565 152.25 78.3714C155.716 82.8711 162.647 102.254 153.983 103.639C145.32 105.023 129.725 110.215 129.725 110.215L129.254 106.118C133.71 104.69 144.764 101.263 151.557 100.177Z" fill="black"/>
<path d="M163.513 159.711C163.513 159.711 172.176 166.634 171.483 167.326C170.79 168.018 163.513 179.095 157.275 180.133C151.037 181.171 148.265 181.171 148.265 180.133C148.265 179.095 149.997 176.672 153.116 175.633C156.235 174.595 156.582 167.672 156.235 166.288C155.889 164.903 163.513 159.711 163.513 159.711Z" fill="#2F2E41"/>
<path d="M137.522 108.138L143.067 134.098C143.067 134.098 165.939 159.711 165.246 160.057C164.552 160.403 157.622 167.326 156.235 167.326C154.849 167.326 130.938 140.328 130.938 140.328L122.274 117.83L137.522 108.138Z" fill="#2F2E41"/>
<path opacity="0.1" d="M137.522 108.138L143.067 134.098C143.067 134.098 165.939 159.711 165.246 160.057C164.552 160.403 157.622 167.326 156.235 167.326C154.849 167.326 130.938 140.328 130.938 140.328L122.274 117.83L137.522 108.138Z" fill="black"/>
<path d="M143.067 99.8311C143.067 99.8311 140.295 111.599 132.671 119.56C125.047 127.521 121.581 143.789 121.581 143.789L113.957 176.325C113.957 176.325 100.442 174.595 101.135 171.134L108.413 142.405C108.413 142.405 116.73 102.6 121.235 99.8311C125.74 97.0621 143.067 99.8311 143.067 99.8311Z" fill="#2F2E41"/>
<path d="M113.264 173.556C113.264 173.556 115.343 180.133 113.957 180.825C112.571 181.517 87.9664 182.902 86.5802 178.056C86.5802 178.056 85.8871 175.633 91.4318 175.633C96.9765 175.633 102.868 170.441 102.868 170.441L113.264 173.556Z" fill="#2F2E41"/>
<path d="M123.661 49.9889C123.661 49.9889 132.671 40.9895 135.096 41.6818C137.522 42.374 137.522 45.8353 137.522 45.8353C137.522 45.8353 145.146 46.8737 144.453 71.7949C143.76 96.7161 150.691 99.4852 148.265 100.87C145.839 102.254 118.116 108.485 117.076 102.254C116.037 96.0239 116.383 72.1411 119.155 64.5262C121.928 56.9114 125.393 52.0656 123.661 49.9889Z" fill="#575A89"/>
<path d="M135.096 52.0656C135.096 52.0656 145.492 56.9114 139.601 66.2569C133.71 75.6023 129.205 85.64 122.967 85.2939C116.729 84.9478 107.026 79.0636 104.254 79.0636C101.481 79.0636 105.293 69.0259 107.373 68.6798C109.452 68.3336 119.155 74.2178 119.155 74.2178C119.155 74.2178 122.621 50.6811 135.096 52.0656Z" fill="#575A89"/>
<path d="M128.165 35.4075C127.397 35.3617 126.646 35.6211 125.883 35.7223C123.152 36.0844 120.311 34.1052 119.708 31.4204C119.66 31.0629 119.553 30.7157 119.392 30.3927C118.972 29.7073 118.015 29.5766 117.226 29.7342C116.437 29.8918 115.689 30.2607 114.885 30.3028C113.644 30.3678 112.453 29.6049 111.792 28.5543C111.131 27.5037 110.944 26.2109 111.033 24.9731L111.628 25.5967C111.869 25.086 111.963 24.5177 111.897 23.9567C112.212 23.8728 112.544 23.8712 112.86 23.952C113.176 24.0327 113.466 24.1932 113.702 24.4179C114.226 24.4737 113.83 23.4463 114.22 23.0912C114.383 22.9426 114.633 22.9706 114.854 22.9727C115.97 22.9835 116.872 22.1311 117.752 21.4449C119.275 20.2587 121.057 19.447 122.952 19.0757C124.212 18.8302 125.552 18.7908 126.747 19.2594C127.728 19.6442 128.549 20.3451 129.309 21.0749C131.18 22.8715 132.836 24.9824 133.614 27.4552C134.247 29.4805 134.265 31.6477 133.666 33.6832C133.352 34.7403 132.407 38.3607 131.024 38.445C129.285 38.5509 130.329 35.5364 128.165 35.4075Z" fill="#2F2E41"/>
</svg>
