<svg width="590" height="119" viewBox="0 0 590 119" fill="none" xmlns="http://www.w3.org/2000/svg">
<path d="M175.714 115V105.461H172.422V103.261H181.909V105.461H178.565V115H175.714ZM211.211 115V103.261H219.254V105.461H214.062V108.013H218.568V110.23H214.062V112.8H219.254V115H211.211ZM254.468 115.229C252.591 115.229 251.159 114.736 250.174 113.75C249.188 112.753 248.695 111.216 248.695 109.139C248.695 107.109 249.165 105.578 250.103 104.546C251.054 103.513 252.509 102.997 254.468 102.997C255.09 102.997 255.718 103.079 256.351 103.243C256.985 103.396 257.601 103.601 258.199 103.859V106.341C257.589 105.942 257.003 105.654 256.439 105.478C255.876 105.302 255.348 105.214 254.855 105.214C254.163 105.214 253.576 105.338 253.095 105.584C252.614 105.83 252.251 106.241 252.004 106.816C251.758 107.391 251.635 108.165 251.635 109.139C251.635 110.113 251.758 110.882 252.004 111.445C252.262 112.008 252.638 112.413 253.131 112.659C253.635 112.894 254.251 113.011 254.979 113.011C255.413 113.011 255.905 112.929 256.457 112.765C257.008 112.601 257.589 112.319 258.199 111.92V114.402C257.718 114.648 257.132 114.847 256.439 115C255.747 115.153 255.09 115.229 254.468 115.229ZM287.994 115V103.261H290.423L295.615 110.248V103.261H298.237V115H296.09L290.616 107.837V115H287.994ZM333.589 115.229C332.428 115.229 331.419 115.012 330.562 114.578C329.705 114.143 329.043 113.475 328.573 112.571C328.104 111.668 327.869 110.524 327.869 109.139C327.869 107.133 328.368 105.613 329.365 104.581C330.363 103.548 331.771 103.032 333.589 103.032C334.751 103.032 335.76 103.249 336.616 103.683C337.485 104.117 338.153 104.786 338.623 105.69C339.092 106.593 339.327 107.737 339.327 109.122C339.327 111.14 338.822 112.665 337.813 113.698C336.816 114.718 335.408 115.229 333.589 115.229ZM333.589 112.906C334.493 112.906 335.185 112.624 335.666 112.061C336.147 111.486 336.388 110.506 336.388 109.122C336.388 107.725 336.147 106.751 335.666 106.2C335.185 105.637 334.493 105.355 333.589 105.355C332.697 105.355 332.011 105.643 331.53 106.218C331.049 106.781 330.808 107.761 330.808 109.157C330.808 110.541 331.049 111.515 331.53 112.078C332.011 112.63 332.697 112.906 333.589 112.906ZM368.971 115V103.261H371.822V112.765H376.926V115H368.971ZM411.592 115.229C410.431 115.229 409.422 115.012 408.565 114.578C407.708 114.143 407.046 113.475 406.576 112.571C406.107 111.668 405.872 110.524 405.872 109.139C405.872 107.133 406.371 105.613 407.368 104.581C408.366 103.548 409.774 103.032 411.592 103.032C412.754 103.032 413.763 103.249 414.619 103.683C415.488 104.117 416.157 104.786 416.626 105.69C417.095 106.593 417.33 107.737 417.33 109.122C417.33 111.14 416.825 112.665 415.816 113.698C414.819 114.718 413.411 115.229 411.592 115.229ZM411.592 112.906C412.496 112.906 413.188 112.624 413.669 112.061C414.15 111.486 414.391 110.506 414.391 109.122C414.391 107.725 414.15 106.751 413.669 106.2C413.188 105.637 412.496 105.355 411.592 105.355C410.701 105.355 410.014 105.643 409.533 106.218C409.052 106.781 408.811 107.761 408.811 109.157C408.811 110.541 409.052 111.515 409.533 112.078C410.014 112.63 410.701 112.906 411.592 112.906ZM452.201 115.229C451.051 115.229 450.042 115.023 449.174 114.613C448.317 114.202 447.654 113.551 447.185 112.659C446.715 111.767 446.481 110.594 446.481 109.139C446.481 107.708 446.715 106.54 447.185 105.637C447.654 104.733 448.317 104.07 449.174 103.648C450.03 103.214 451.039 102.997 452.201 102.997C452.94 102.997 453.656 103.073 454.348 103.226C455.052 103.378 455.733 103.589 456.39 103.859V106.446C455.686 106.071 455.029 105.772 454.418 105.549C453.82 105.326 453.198 105.214 452.553 105.214C451.884 105.214 451.309 105.338 450.828 105.584C450.359 105.819 450.001 106.223 449.754 106.798C449.508 107.362 449.385 108.136 449.385 109.122C449.385 110.095 449.508 110.87 449.754 111.445C450.013 112.008 450.37 112.413 450.828 112.659C451.286 112.906 451.819 113.029 452.43 113.029C452.746 113.029 453.04 113.011 453.31 112.976C453.591 112.929 453.838 112.853 454.049 112.747V110.67H452.113V108.453H456.9V113.979C456.173 114.39 455.41 114.701 454.612 114.912C453.826 115.123 453.022 115.229 452.201 115.229ZM487.032 115V103.261H489.883V115H487.032ZM518.989 115L523.424 103.261H526.539L530.693 115H527.771L526.909 112.466H522.526L521.681 115H518.989ZM523.213 110.371H526.205L524.691 105.918L523.213 110.371Z" fill="white"/>
<path d="M51.999 52.9999L42.999 38.9999L19.999 75.9999L27.999 74.9999L42.999 50.4999L48.499 58.4999L51.999 52.9999Z" fill="#F9B43A"/>
<path d="M94.9991 78.9999L67.999 34.4999L45.499 71.4999H53.499L67.999 47.4999L85.4991 75.9999L94.9991 78.9999Z" fill="#F9B43A"/>
<path d="M51.999 52.9999L42.999 38.9999L19.999 75.9999L27.999 74.9999L42.999 50.4999L48.499 58.4999L51.999 52.9999Z" stroke="#F9B43A"/>
<path d="M94.9991 78.9999L67.999 34.4999L45.499 71.4999H53.499L67.999 47.4999L85.4991 75.9999L94.9991 78.9999Z" stroke="#F9B43A"/>
<path d="M82.9992 6.49997C91.5609 10.1248 87.0804 18.5476 81.9992 17C17.4151 -19.865 -28.6657 93.2361 56.5 105.5C69.4928 107.257 63.2397 115.433 60.4992 115C-38.0491 109.701 -3.12939 -27.8323 82.9992 6.49997Z" fill="white" stroke="white"/>
<path d="M157.497 81.0001V68.5001C152.984 70.6146 149.349 71.6114 144.5 73C140.335 73.19 138.233 72.8829 135 71.5C124.966 65.9834 121.279 47.0337 135.5 39.5L145 39C149.262 39.6603 151.266 40.3886 154.5 42H157.497V30.0001C99.5669 5.46833 93.5013 102.47 157.497 81.0001Z" fill="white"/>
<path d="M169.5 66V5H183V66C183.751 70.6171 186.334 72.2418 193.5 74V84.5H188.5C174.693 82.2668 169.776 77.9052 169.5 66Z" fill="white"/>
<path d="M157.497 81.0001V68.5001C152.984 70.6146 149.349 71.6114 144.5 73C140.335 73.19 138.233 72.8829 135 71.5C124.966 65.9834 121.279 47.0337 135.5 39.5L145 39C149.262 39.6603 151.266 40.3886 154.5 42H157.497V30.0001C99.5669 5.46833 93.5013 102.47 157.497 81.0001Z" stroke="white"/>
<path d="M169.5 66V5H183V66C183.751 70.6171 186.334 72.2418 193.5 74V84.5H188.5C174.693 82.2668 169.776 77.9052 169.5 66Z" stroke="white"/>
<path fill-rule="evenodd" clip-rule="evenodd" d="M227 26.5C190.382 25.4732 190.116 85.0037 227 85.5C264.639 85.6269 263.668 25.55 227 26.5ZM214 48C213.238 53.7746 213.286 57.4221 214 64.5001C221.242 74.2668 230.952 76.9515 239.5 64.5001C240.631 57.846 240.7 54.2194 239.5 48C236.173 35.9525 219.345 34.887 214 48Z" fill="white"/>
<path d="M227 26.5L226.986 26.9998L226.999 27.0002L227.013 26.9998L227 26.5ZM227 85.5L226.993 86L226.998 86L227 85.5ZM214 64.5001L213.503 64.5503L213.516 64.6873L213.598 64.7979L214 64.5001ZM214 48L213.537 47.8113L213.513 47.8709L213.504 47.9346L214 48ZM239.5 64.5001L239.912 64.783L239.975 64.6923L239.993 64.5839L239.5 64.5001ZM239.5 48L239.991 47.9053L239.987 47.886L239.982 47.867L239.5 48ZM227.014 26.0002C217.709 25.7393 210.68 29.3314 205.983 34.8932C201.296 40.4422 198.954 47.9228 198.937 55.4277C198.92 62.9331 201.229 70.5059 205.902 76.2433C210.585 81.9921 217.623 85.8739 226.993 85.9999L227.006 85C217.934 84.878 211.174 81.1323 206.678 75.6117C202.171 70.0797 199.92 62.7409 199.937 55.43C199.953 48.1186 202.237 40.878 206.747 35.5384C211.246 30.2115 217.982 26.7473 226.986 26.9998L227.014 26.0002ZM226.998 86C236.555 86.0322 243.695 82.2365 248.421 76.5198C253.136 70.8153 255.426 63.2273 255.365 55.6873C255.304 48.1474 252.89 40.6122 248.144 35.0125C243.386 29.4006 236.306 25.7587 226.987 26.0002L227.013 26.9998C236.028 26.7662 242.819 30.2778 247.381 35.6591C251.953 41.0527 254.305 48.3506 254.365 55.6954C254.425 63.04 252.192 70.3881 247.65 75.8826C243.118 81.365 236.264 85.0312 227.001 85L226.998 86ZM214.498 64.4498C213.786 57.3976 213.74 53.7908 214.496 48.0655L213.504 47.9346C212.736 53.7584 212.786 57.4465 213.503 64.5503L214.498 64.4498ZM239.088 64.2171C234.869 70.3629 230.454 72.6502 226.298 72.3333C222.108 72.0138 217.986 69.0358 214.402 64.2022L213.598 64.7979C217.256 69.731 221.61 72.9788 226.222 73.3304C230.87 73.6848 235.584 71.0887 239.912 64.783L239.088 64.2171ZM239.009 48.0947C240.196 54.246 240.13 57.8112 239.007 64.4163L239.993 64.5839C241.133 57.8807 241.204 54.1929 239.991 47.9053L239.009 48.0947ZM214.463 48.1888C217.057 41.8251 222.411 38.9367 227.494 39.0647C232.584 39.1928 237.418 42.339 239.018 48.1331L239.982 47.867C238.255 41.6135 233.012 38.2033 227.52 38.065C222.021 37.9266 216.288 41.0619 213.537 47.8113L214.463 48.1888Z" fill="white"/>
<path fill-rule="evenodd" clip-rule="evenodd" d="M362.5 5.5H374.5V73C374.975 86.6646 329.476 96.9879 324 63.5V48.5C324.113 31.456 334.741 24.1003 362.5 27.5V5.5ZM277.5 28.5H264V65C264.049 74.8708 266.263 79.7344 281.5 85C287.268 85.6619 290.427 85.5697 296 85C309.706 82.5376 313.4 75.0451 313.5 65V28.5H300V65C298.797 75.1209 278.689 74.5774 278 65L277.5 28.5ZM361.5 41.4999V69.9999C356.412 74.8233 338.776 76.4879 337.5 59.4999V48.5C340.737 36.059 353.796 37.5928 361.5 41.4999Z" fill="white"/>
<path d="M374.5 5.5H375V5H374.5V5.5ZM362.5 5.5V5H362V5.5H362.5ZM374.5 73H374V73.0087L374 73.0174L374.5 73ZM324 63.5H323.5V63.5406L323.507 63.5807L324 63.5ZM324 48.5L323.5 48.4967V48.5H324ZM362.5 27.5L362.439 27.9963L363 28.065V27.5H362.5ZM264 28.5V28H263.5V28.5H264ZM277.5 28.5L278 28.4932L277.993 28H277.5V28.5ZM264 65H263.5L263.5 65.0025L264 65ZM281.5 85L281.337 85.4726L281.389 85.4905L281.443 85.4967L281.5 85ZM296 85L296.051 85.4974L296.07 85.4955L296.088 85.4921L296 85ZM313.5 65L314 65.005V65H313.5ZM313.5 28.5H314V28H313.5V28.5ZM300 28.5V28H299.5V28.5H300ZM300 65L300.497 65.059L300.5 65.0296V65H300ZM278 65L277.5 65.0068L277.5 65.0214L277.501 65.0359L278 65ZM361.5 69.9999L361.844 70.3628L362 70.2149V69.9999H361.5ZM361.5 41.4999H362V41.1929L361.726 41.054L361.5 41.4999ZM337.5 59.4999H337V59.5187L337.001 59.5374L337.5 59.4999ZM337.5 48.5L337.016 48.3741L337 48.436V48.5H337.5ZM374.5 5H362.5V6H374.5V5ZM375 73V5.5H374V73H375ZM323.507 63.5807C324.896 72.0764 328.835 77.8326 333.98 81.443C339.114 85.045 345.41 86.4843 351.486 86.4322C357.56 86.3801 363.457 84.8375 367.822 82.4273C372.152 80.0358 375.129 76.6923 375 72.9826L374 73.0174C374.109 76.14 371.577 79.2111 367.338 81.5519C363.134 83.874 357.403 85.3814 351.477 85.4322C345.554 85.483 339.477 84.0781 334.555 80.6243C329.644 77.1789 325.842 71.6676 324.493 63.4193L323.507 63.5807ZM323.5 48.5V63.5H324.5V48.5H323.5ZM362.561 27.0037C348.657 25.3009 338.921 26.2711 332.633 29.9005C326.287 33.563 323.557 39.8648 323.5 48.4967L324.5 48.5033C324.556 40.0912 327.196 34.1931 333.133 30.7666C339.127 27.3071 348.584 26.2994 362.439 27.9963L362.561 27.0037ZM362 5.5V27.5H363V5.5H362ZM264 29H277.5V28H264V29ZM264.5 65V28.5H263.5V65H264.5ZM281.663 84.5274C274.062 81.9007 269.817 79.4064 267.446 76.4163C265.091 73.4459 264.524 69.9079 264.5 64.9975L263.5 65.0025C263.524 69.9629 264.089 73.7921 266.663 77.0376C269.22 80.2634 273.701 82.8337 281.337 85.4726L281.663 84.5274ZM295.949 84.5026C290.404 85.0695 287.282 85.1602 281.557 84.5033L281.443 85.4967C287.254 86.1635 290.45 86.07 296.051 85.4974L295.949 84.5026ZM313 64.995C312.951 69.9654 312.012 74.2238 309.457 77.5382C306.907 80.8459 302.687 83.2906 295.912 84.5079L296.088 85.4921C303.019 84.2469 307.5 81.7143 310.249 78.1488C312.992 74.5901 313.95 70.0797 314 65.005L313 64.995ZM313 28.5V65H314V28.5H313ZM300 29H313.5V28H300V29ZM300.5 65V28.5H299.5V65H300.5ZM277.501 65.0359C277.688 67.6269 279.193 69.5861 281.296 70.8887C283.39 72.1861 286.099 72.8519 288.801 72.8868C291.503 72.9217 294.246 72.3262 296.407 71.0468C298.578 69.7614 300.174 67.7735 300.497 65.059L299.503 64.941C299.225 67.287 297.856 69.0265 295.897 70.1863C293.928 71.3523 291.375 71.92 288.814 71.8869C286.252 71.8538 283.73 71.2206 281.822 70.0387C279.923 68.862 278.657 67.1618 278.499 64.9641L277.501 65.0359ZM277 28.5068L277.5 65.0068L278.5 64.9932L278 28.4932L277 28.5068ZM362 69.9999V41.4999H361V69.9999H362ZM337.001 59.5374C337.327 63.8735 338.701 67.0642 340.698 69.3173C342.694 71.5687 345.279 72.8481 347.967 73.4183C350.65 73.9878 353.447 73.8533 355.899 73.2695C358.342 72.6875 360.488 71.6477 361.844 70.3628L361.155 69.6371C359.967 70.7638 358.001 71.7409 355.667 72.2967C353.341 72.8507 350.695 72.975 348.174 72.4401C345.657 71.9059 343.276 70.7176 341.447 68.654C339.619 66.5921 338.31 63.6204 337.998 59.4625L337.001 59.5374ZM337 48.5V59.4999H338V48.5H337ZM361.726 41.054C357.813 39.0696 352.517 37.672 347.752 38.3748C345.361 38.7274 343.091 39.6111 341.206 41.2288C339.319 42.8484 337.847 45.1787 337.016 48.3741L337.983 48.6259C338.771 45.6008 340.145 43.4574 341.858 41.9877C343.573 40.516 345.656 39.6948 347.898 39.3641C352.398 38.7003 357.482 40.0231 361.273 41.9459L361.726 41.054Z" fill="white"/>
<path d="M389 32V83.5H401.5V40.5C417.854 37.1598 421.791 39.5205 423 45.5V83.8056H436.5L436 43.5C436.524 36.5245 451.447 37.5168 456.5 44.5V83.8056H469V41C467.883 32.3942 463.781 27.3872 452.5 27H444C438.047 26.9721 435.018 27.5954 430.5 30.5H429C419.921 25.0016 408.588 24.4588 389 32Z" fill="white" stroke="white"/>
<path fill-rule="evenodd" clip-rule="evenodd" d="M495 59.5H530.5V46C529.325 35.368 521.62 26.8804 510.5 27H503C464.612 28.9877 474.94 104.729 526.5 82V68.5C507.188 75.858 494.851 74.4745 495 59.5ZM518 48.5H495.5C495.504 48.3679 495.507 48.2372 495.511 48.1078C495.69 41.6676 495.772 38.7117 503.5 38.5H510.5C514.295 38.6169 517.555 42.7111 518 48.5Z" fill="white"/>
<path d="M530.5 59.5V60H531V59.5H530.5ZM495 59.5V59H494.505L494.5 59.495L495 59.5ZM530.5 46H531V45.9725L530.997 45.9451L530.5 46ZM510.5 27V27.5L510.505 27.5L510.5 27ZM503 27V26.5H502.987L502.974 26.5007L503 27ZM526.5 82L526.701 82.4575L527 82.326V82H526.5ZM526.5 68.5H527V67.7744L526.322 68.0328L526.5 68.5ZM495.5 48.5L495 48.4859L494.986 49H495.5V48.5ZM518 48.5V49H518.54L518.499 48.4617L518 48.5ZM495.511 48.1078L495.011 48.094L495.011 48.094L495.511 48.1078ZM503.5 38.5V37.9998L503.486 38.0002L503.5 38.5ZM510.5 38.5L510.515 38.0003L510.508 38H510.5V38.5ZM530.5 59H495V60H530.5V59ZM530 46V59.5H531V46H530ZM510.505 27.5C521.319 27.3836 528.851 35.6263 530.003 46.0549L530.997 45.9451C529.8 35.1097 521.92 26.3771 510.494 26.5L510.505 27.5ZM503 27.5H510.5V26.5H503V27.5ZM526.298 81.5425C513.511 87.1794 503.361 86.6802 495.907 82.8301C488.442 78.974 483.591 71.7099 481.504 63.6433C479.416 55.574 480.11 46.7588 483.671 39.8578C487.221 32.977 493.621 27.9863 503.026 27.4993L502.974 26.5007C493.185 27.0076 486.481 32.2298 482.782 39.3993C479.094 46.5484 478.395 55.6206 480.535 63.8938C482.677 72.1699 487.676 79.7036 495.448 83.7186C503.233 87.7397 513.709 88.1849 526.701 82.4575L526.298 81.5425ZM526 68.5V82H527V68.5H526ZM494.5 59.495C494.462 63.3026 495.217 66.3076 496.729 68.5389C498.248 70.7798 500.496 72.1884 503.337 72.8612C508.973 74.1963 517.009 72.6511 526.678 68.9672L526.322 68.0328C516.679 71.7069 508.89 73.1489 503.567 71.8881C500.928 71.263 498.913 69.9779 497.557 67.9778C496.195 65.9681 495.463 63.1846 495.5 59.505L494.5 59.495ZM495.5 49H518V48H495.5V49ZM495.011 48.094C495.008 48.2233 495.004 48.3539 495 48.4859L496 48.5141C496.004 48.3819 496.007 48.251 496.011 48.1217L495.011 48.094ZM503.486 38.0002C499.593 38.1068 497.407 38.9035 496.254 40.6979C495.692 41.5731 495.41 42.6373 495.252 43.8552C495.094 45.0716 495.056 46.4919 495.011 48.094L496.011 48.1217C496.056 46.5037 496.094 45.1393 496.244 43.9836C496.393 42.8293 496.648 41.9338 497.095 41.2384C497.96 39.8919 499.679 39.1049 503.514 38.9998L503.486 38.0002ZM510.5 38H503.5V39H510.5V38ZM518.499 48.4617C518.27 45.4868 517.316 42.9199 515.904 41.0696C514.491 39.2196 512.598 38.0644 510.515 38.0003L510.485 38.9998C512.196 39.0525 513.831 40.0029 515.109 41.6764C516.386 43.3497 517.285 45.7243 517.501 48.5383L518.499 48.4617Z" fill="white"/>
<path fill-rule="evenodd" clip-rule="evenodd" d="M588.998 6.5L589.498 73.5C588.053 89.4631 539.004 94.2488 539.498 58.5V50C540.129 32.6692 548.954 25.0915 577.498 27.5V6.5H588.998ZM577 40V67.5C575.641 75.73 553.87 76.2666 553 60.5V50C553.286 39.3593 560.539 37.8972 577 40Z" fill="white"/>
<path d="M589.498 73.5L589.996 73.5451L589.998 73.5207L589.998 73.4963L589.498 73.5ZM588.998 6.5L589.498 6.49627L589.495 6H588.998V6.5ZM539.498 58.5L539.998 58.5069V58.5H539.498ZM539.498 50L538.999 49.9818L538.998 49.9909V50H539.498ZM577.498 27.5L577.456 27.9982L577.998 28.044V27.5H577.498ZM577.498 6.5V6H576.998V6.5H577.498ZM577 67.5L577.493 67.5814L577.5 67.541V67.5H577ZM577 40H577.5V39.5598L577.063 39.5041L577 40ZM553 60.5H552.5V60.5138L552.501 60.5276L553 60.5ZM553 50L552.5 49.9866V50H553ZM589.998 73.4963L589.498 6.49627L588.498 6.50373L588.998 73.5037L589.998 73.4963ZM538.998 58.4931C538.873 67.555 541.892 74.0976 546.554 78.5324C551.205 82.9563 557.449 85.2427 563.719 85.8894C569.988 86.5358 576.329 85.5484 581.21 83.3746C586.069 81.2107 589.61 77.8041 589.996 73.5451L589 73.4549C588.663 77.1774 585.532 80.3552 580.803 82.4611C576.096 84.5571 569.934 85.5249 563.822 84.8946C557.711 84.2645 551.695 82.0421 547.244 77.8078C542.803 73.5844 539.876 67.3194 539.998 58.5069L538.998 58.4931ZM538.998 50V58.5H539.998V50H538.998ZM577.54 27.0018C563.249 25.7959 553.761 27.0723 547.761 30.9271C541.71 34.8137 539.317 41.2397 538.999 49.9818L539.998 50.0182C540.311 41.4294 542.645 35.4012 548.301 31.7684C554.006 28.1037 563.203 26.7955 577.456 27.9982L577.54 27.0018ZM576.998 6.5V27.5H577.998V6.5H576.998ZM588.998 6H577.498V7H588.998V6ZM577.5 67.5V40H576.5V67.5H577.5ZM552.501 60.5276C552.725 64.5939 554.303 67.6391 556.585 69.7682C558.859 71.8896 561.806 73.0785 564.747 73.4938C567.686 73.9088 570.655 73.557 572.996 72.5551C575.33 71.556 577.116 69.8697 577.493 67.5814L576.507 67.4186C576.205 69.2453 574.76 70.7123 572.602 71.6358C570.451 72.5565 567.669 72.8966 564.887 72.5036C562.107 72.1111 559.363 70.9922 557.267 69.0371C555.18 67.0896 553.71 64.2894 553.499 60.4725L552.501 60.5276ZM552.5 50V60.5H553.5V50H552.5ZM577.063 39.5041C568.844 38.4542 562.799 38.2714 558.762 39.7518C556.719 40.5009 555.174 41.6811 554.129 43.3922C553.09 45.0929 552.573 47.2749 552.5 49.9866L553.5 50.0134C553.57 47.4048 554.066 45.4138 554.982 43.9134C555.892 42.4234 557.242 41.3743 559.106 40.6906C562.883 39.3055 568.694 39.4431 576.937 40.496L577.063 39.5041Z" fill="white"/>
</svg>
