<svg width="214" height="179" viewBox="0 0 214 179" fill="none" xmlns="http://www.w3.org/2000/svg">
<path d="M46.5337 111.752L50.1725 113.843C50.5407 114.055 50.9507 114.184 51.3737 114.22C51.7968 114.257 52.2228 114.202 52.622 114.057C53.0213 113.912 53.3842 113.682 53.6854 113.383C53.9867 113.083 54.219 112.722 54.3661 112.324C54.5246 111.895 54.5801 111.435 54.5283 110.981C54.4766 110.527 54.3189 110.091 54.0681 109.709C53.8173 109.327 53.4802 109.009 53.0842 108.781C52.6881 108.553 52.244 108.421 51.7876 108.396L47.381 108.154L34.1068 104.136L31.9667 96.1232L26.3706 99.2666L30.2184 108.376L46.5337 111.752Z" fill="#FFB8B8"/>
<path d="M29.185 70.1637C28.3432 71.118 28.4952 72.2659 29.1083 73.1978C29.7214 74.1297 30.7416 74.905 31.6344 75.7273C32.208 76.2555 32.7386 76.8161 32.9955 77.4516C33.1371 77.7766 33.1834 78.135 33.1291 78.4853C33.0747 78.8355 32.9221 79.1631 32.6888 79.4299C32.1041 80.1215 31.015 80.5899 29.9524 80.9914C26.9138 82.1314 23.7784 82.9948 20.5845 83.5711C23.2752 80.4271 24.6221 76.8864 24.4248 73.4758C24.3834 72.76 24.277 72.0376 24.527 71.3202C24.6987 70.8896 24.9701 70.5059 25.319 70.2006C25.6679 69.8954 26.0842 69.6773 26.5338 69.5643C27.6033 69.2572 29.012 69.5609 29.176 70.2617" fill="#2F2E41"/>
<path d="M6.1333 171.055L9.9836 171.223L17.583 136.12L10.988 136.404L6.1333 171.055Z" fill="#FFB8B8"/>
<path d="M44.6352 163.523L41.4545 165.197L21.5591 135.679L27.8952 132.889L44.6352 163.523Z" fill="#FFB8B8"/>
<path d="M22.4589 81.2132C25.8225 81.2132 28.5491 78.4865 28.5491 75.123C28.5491 71.7594 25.8225 69.0327 22.4589 69.0327C19.0953 69.0327 16.3687 71.7594 16.3687 75.123C16.3687 78.4865 19.0953 81.2132 22.4589 81.2132Z" fill="#FFB8B8"/>
<path d="M19.3581 78.316C19.3581 78.316 17.1819 82.8358 14.1687 82.6684C14.1687 82.6684 8.47715 80.3248 6.63575 86.686L4.62695 91.708L31.2435 96.2278C31.2435 96.2278 29.7369 87.0208 26.2215 86.8534C26.2215 86.8534 22.2039 86.5186 22.7061 85.012C23.2083 83.5054 25.0497 79.99 25.0497 79.99L19.3581 78.316Z" fill="#FFB8B8"/>
<path d="M28.2302 101.417L24.2126 110.122L27.5236 124.192L43.6493 154.456C43.6493 154.456 36.2228 161.118 34.3715 162.187C32.7657 163.114 19.3967 137.986 18.9085 132.807C18.7474 131.098 15.8159 165.721 15.8159 165.721C15.8159 165.721 4.76431 163.898 1.67822 163.292C1.67822 163.292 3.90163 147.543 5.21263 132.807C6.22318 121.448 5.30429 111.154 10.988 106.272L10.4858 96.5629L23.8778 96.0607L28.2302 101.417Z" fill="#2F2E41"/>
<path d="M7.42937 177.513L13.5761 178.405C14.0524 178.583 14.5777 178.576 15.0497 178.388C15.5217 178.199 15.9066 177.841 16.1293 177.384C16.3102 177.013 16.3746 176.596 16.3139 176.188C16.2533 175.779 16.0705 175.399 15.7895 175.096L13.1805 172.286L11.3028 168.235C10.1798 167.088 9.41218 167.493 8.98301 169.378L5.98131 168.435L5.19428 173.726C5.07649 174.517 5.23424 175.326 5.64111 176.015C6.04798 176.704 6.67929 177.233 7.42937 177.513Z" fill="#2F2E41"/>
<path d="M42.4648 171.976L48.6759 171.955C49.1732 172.06 49.6919 171.977 50.1309 171.721C50.57 171.464 50.8981 171.054 51.0511 170.569C51.1755 170.176 51.1778 169.753 51.0577 169.358C50.9376 168.963 50.7008 168.614 50.3783 168.356L47.3843 165.961L44.9309 162.229C43.6513 161.26 42.9517 161.774 42.8045 163.702L39.6968 163.211V168.559C39.6968 169.36 39.9717 170.136 40.4756 170.758C40.9795 171.38 41.6817 171.81 42.4648 171.976Z" fill="#2F2E41"/>
<path d="M19.3824 65.7613C18.3479 65.3092 17.1169 65.4865 16.1181 66.0128C15.1194 66.5392 14.3214 67.3785 13.623 68.2655C11.2182 71.3348 9.81583 75.0697 9.60633 78.9632C9.55163 80.0275 9.60296 81.1524 10.1571 82.0628C10.766 83.0632 11.8805 83.6375 12.9845 84.0284C16.6857 85.3181 20.7464 85.0947 24.2838 83.4068C22.4238 81.8986 20.7027 80.2267 19.1414 78.4111C18.8488 78.0709 18.5428 77.634 18.6916 77.2106C18.7853 77.0046 18.9306 76.8263 19.1134 76.6928L22.6991 73.579L22.6088 74.8387C23.3219 74.797 24.0072 74.5473 24.5799 74.1204C25.1526 73.6935 25.5877 73.1081 25.8313 72.4366C25.6584 72.7856 25.9885 73.2142 26.3699 73.2926C26.7514 73.3711 27.1375 73.2139 27.4953 73.0599C28.3628 72.6866 29.3052 72.2421 29.6901 71.3796C29.8113 71.0755 29.8692 70.75 29.8605 70.4228C29.8517 70.0956 29.7765 69.7736 29.6393 69.4765C29.3609 68.8834 28.9637 68.3539 28.4723 67.9206C27.2663 66.8072 25.799 66.0159 24.2061 65.6199C22.6133 65.2239 20.9463 65.2359 19.3593 65.6549" fill="#2F2E41"/>
<path d="M18.1655 110.881L20.8396 114.116C21.1101 114.443 21.4489 114.707 21.8321 114.89C22.2153 115.073 22.6339 115.17 23.0585 115.175C23.4831 115.18 23.9037 115.092 24.2907 114.917C24.6778 114.742 25.0222 114.485 25.2997 114.164C25.5985 113.818 25.8118 113.407 25.9226 112.963C26.0335 112.52 26.0386 112.057 25.9378 111.611C25.8369 111.165 25.6328 110.749 25.3419 110.397C25.0509 110.044 24.6813 109.765 24.2628 109.581L20.2212 107.809L9.19997 99.3896L10.0067 91.1353L3.66357 92.1158L4.07123 101.997L18.1655 110.881Z" fill="#FFB8B8"/>
<path d="M34.7588 103.594C34.7588 103.594 32.1523 94.0474 30.7771 94.0496C29.402 94.0519 27.5606 93.8845 27.5606 93.8845C27.5606 93.8845 25.3844 87.5233 14.1686 89.5321C2.95282 91.5409 7.80742 87.6907 4.62682 89.1973C1.44621 90.7039 0.274414 101.25 0.274414 101.25C0.274414 101.25 17.5166 95.5585 21.1994 98.7391C23.3144 100.589 25.6143 102.216 28.0628 103.594C28.0628 103.594 26.3888 107.779 34.7588 103.594Z" fill="#2F2E41"/>
<path d="M94.5331 171.453H26.9375V171.895H94.5331V171.453Z" fill="#3F3D56"/>
<path d="M146.444 95.2416C169.014 95.2416 187.311 76.945 187.311 54.375C187.311 31.805 169.014 13.5084 146.444 13.5084C123.874 13.5084 105.578 31.805 105.578 54.375C105.578 76.945 123.874 95.2416 146.444 95.2416Z" fill="#E6E6E6"/>
<path d="M138.713 31.6228H71.1177V32.0646H138.713V31.6228Z" fill="#3F3D56"/>
<path d="M203.879 43.7721H71.1177V44.2139H203.879V43.7721Z" fill="#3F3D56"/>
<path d="M163.012 87.2898C140.356 87.2898 121.924 68.8579 121.924 46.2023C121.924 23.5466 140.356 5.11475 163.012 5.11475C185.668 5.11475 204.099 23.5466 204.099 46.2023C204.099 68.8579 185.668 87.2898 163.012 87.2898ZM163.012 5.55655C140.6 5.55655 122.366 23.7901 122.366 46.2023C122.366 68.6144 140.6 86.848 163.012 86.848C185.424 86.848 203.658 68.6144 203.658 46.2023C203.658 23.7901 185.424 5.55655 163.012 5.55655Z" fill="#3F3D56"/>
<path d="M159.222 11.2763C162.201 11.2763 164.616 8.86109 164.616 5.88179C164.616 2.9025 162.201 0.487305 159.222 0.487305C156.242 0.487305 153.827 2.9025 153.827 5.88179C153.827 8.86109 156.242 11.2763 159.222 11.2763Z" fill="#080B24"/>
<path d="M122.078 46.8012C124.006 46.8012 125.569 45.2384 125.569 43.3106C125.569 41.3828 124.006 39.8201 122.078 39.8201C120.151 39.8201 118.588 41.3828 118.588 43.3106C118.588 45.2384 120.151 46.8012 122.078 46.8012Z" fill="#FF6584"/>
<path d="M205.408 51.3397C209.81 51.3397 213.379 47.7706 213.379 43.368C213.379 38.9653 209.81 35.3962 205.408 35.3962C201.005 35.3962 197.436 38.9653 197.436 43.368C197.436 47.7706 201.005 51.3397 205.408 51.3397Z" fill="#080B24"/>
<path d="M93.354 74.8223H69.1656V75.2641H93.354C94.5448 75.2641 95.6869 75.7371 96.529 76.5792C97.3711 77.4213 97.8441 78.5634 97.8441 79.7542C97.8441 80.9451 97.3711 82.0872 96.529 82.9293C95.6869 83.7713 94.5448 84.2444 93.354 84.2444H56.7528C55.5619 84.2444 54.4198 83.7713 53.5777 82.9293C52.7357 82.0872 52.2626 80.9451 52.2626 79.7542C52.2626 78.5634 52.7357 77.4213 53.5777 76.5792C54.4198 75.7371 55.5619 75.2641 56.7528 75.2641H58.1206V74.8223H56.7528C55.4447 74.8223 54.1903 75.3419 53.2653 76.2668C52.3404 77.1917 51.8208 78.4462 51.8208 79.7542C51.8208 81.0623 52.3404 82.3167 53.2653 83.2417C54.1903 84.1666 55.4447 84.6862 56.7528 84.6862H93.354C94.662 84.6862 95.9165 84.1666 96.8414 83.2417C97.7663 82.3167 98.2859 81.0623 98.2859 79.7542C98.2859 78.4462 97.7663 77.1917 96.8414 76.2668C95.9165 75.3419 94.662 74.8223 93.354 74.8223Z" fill="#3F3D56"/>
<path d="M93.354 90.0641H69.1656V90.5059H93.354C94.5448 90.5059 95.6869 90.979 96.529 91.821C97.3711 92.6631 97.8441 93.8052 97.8441 94.9961C97.8441 96.1869 97.3711 97.329 96.529 98.1711C95.6869 99.0132 94.5448 99.4862 93.354 99.4862H56.7528C55.5619 99.4862 54.4198 99.0132 53.5777 98.1711C52.7357 97.329 52.2626 96.1869 52.2626 94.9961C52.2626 93.8052 52.7357 92.6631 53.5777 91.821C54.4198 90.979 55.5619 90.5059 56.7528 90.5059H58.1206V90.0641H56.7528C55.4447 90.0641 54.1903 90.5837 53.2653 91.5086C52.3404 92.4336 51.8208 93.688 51.8208 94.9961C51.8208 96.3041 52.3404 97.5586 53.2653 98.4835C54.1903 99.4084 55.4447 99.928 56.7528 99.928H93.354C94.662 99.928 95.9165 99.4084 96.8414 98.4835C97.7663 97.5586 98.2859 96.3041 98.2859 94.9961C98.2859 93.688 97.7663 92.4336 96.8414 91.5086C95.9165 90.5837 94.662 90.0641 93.354 90.0641Z" fill="#3F3D56"/>
<path d="M93.354 105.307H69.1656V105.748H93.354C94.5448 105.748 95.6869 106.221 96.529 107.063C97.3711 107.906 97.8441 109.048 97.8441 110.238C97.8441 111.429 97.3711 112.571 96.529 113.414C95.6869 114.256 94.5448 114.729 93.354 114.729H56.7528C55.5619 114.729 54.4198 114.256 53.5777 113.414C52.7357 112.571 52.2626 111.429 52.2626 110.238C52.2626 109.048 52.7357 107.906 53.5777 107.063C54.4198 106.221 55.5619 105.748 56.7528 105.748H58.1206V105.307H56.7528C55.4447 105.307 54.1903 105.826 53.2653 106.751C52.3404 107.676 51.8208 108.93 51.8208 110.238C51.8208 111.547 52.3404 112.801 53.2653 113.726C54.1903 114.651 55.4447 115.17 56.7528 115.17H93.354C94.662 115.17 95.9165 114.651 96.8414 113.726C97.7663 112.801 98.2859 111.547 98.2859 110.238C98.2859 108.93 97.7663 107.676 96.8414 106.751C95.9165 105.826 94.662 105.307 93.354 105.307Z" fill="#3F3D56"/>
<path d="M60.8503 73.6548C60.5057 73.6606 60.1773 73.8015 59.9356 74.0472C59.694 74.2929 59.5586 74.6237 59.5586 74.9683C59.5586 75.3129 59.694 75.6437 59.9356 75.8894C60.1773 76.1351 60.5057 76.276 60.8503 76.2818H66.6127C66.9603 76.2864 67.2956 76.153 67.5451 75.9109C67.7946 75.6687 67.9379 75.3375 67.9436 74.9898C67.9493 74.6422 67.817 74.3064 67.5756 74.0562C67.3342 73.806 67.0034 73.6616 66.6558 73.6548C66.6414 73.6546 66.627 73.6546 66.6127 73.6548H60.8503Z" fill="#080B24"/>
<path d="M60.8503 89.118C60.5057 89.1237 60.1773 89.2646 59.9356 89.5103C59.694 89.756 59.5586 90.0868 59.5586 90.4315C59.5586 90.7761 59.694 91.1069 59.9356 91.3526C60.1773 91.5983 60.5057 91.7392 60.8503 91.7449H66.6127C66.9603 91.7496 67.2956 91.6162 67.5451 91.374C67.7946 91.1318 67.9379 90.8006 67.9436 90.4529C67.9493 90.1053 67.817 89.7696 67.5756 89.5193C67.3342 89.2691 67.0034 89.1248 66.6558 89.118C66.6414 89.1177 66.627 89.1177 66.6127 89.118H60.8503Z" fill="#FF6584"/>
<path d="M60.8506 104.139C60.506 104.145 60.1774 104.286 59.9357 104.532C59.694 104.777 59.5586 105.108 59.5586 105.453C59.5586 105.797 59.694 106.128 59.9357 106.374C60.1774 106.62 60.506 106.761 60.8506 106.766H66.613C66.9611 106.772 67.2971 106.639 67.5472 106.396C67.7972 106.154 67.9409 105.822 67.9466 105.474C67.9523 105.126 67.8196 104.79 67.5776 104.54C67.3357 104.289 67.0042 104.145 66.6561 104.139C66.6417 104.139 66.6274 104.139 66.613 104.139H60.8506Z" fill="#3F3D56"/>
<path d="M58.5648 78.4405C58.2202 78.4462 57.8917 78.5871 57.65 78.8328C57.4084 79.0785 57.2729 79.4093 57.2729 79.754C57.2729 80.0986 57.4084 80.4294 57.65 80.6751C57.8917 80.9208 58.2202 81.0617 58.5648 81.0674H91.4979C91.6707 81.0707 91.8424 81.0399 92.0032 80.9767C92.164 80.9135 92.3108 80.8192 92.4351 80.6992C92.5594 80.5792 92.6588 80.4358 92.7277 80.2773C92.7965 80.1189 92.8334 79.9483 92.8362 79.7756C92.8391 79.6028 92.8078 79.4312 92.7442 79.2705C92.6806 79.1099 92.586 78.9633 92.4656 78.8393C92.3453 78.7153 92.2017 78.6162 92.0431 78.5478C91.8844 78.4794 91.7138 78.4429 91.541 78.4405C91.5267 78.4402 91.5123 78.4402 91.4979 78.4405H58.5648Z" fill="#E6E6E6"/>
<path d="M58.5648 93.6827C58.2202 93.6884 57.8917 93.8293 57.65 94.075C57.4084 94.3207 57.2729 94.6515 57.2729 94.9962C57.2729 95.3408 57.4084 95.6716 57.65 95.9173C57.8917 96.163 58.2202 96.3039 58.5648 96.3096H91.4979C91.6707 96.3129 91.8424 96.2821 92.0032 96.2189C92.164 96.1557 92.3108 96.0614 92.4351 95.9414C92.5594 95.8214 92.6588 95.678 92.7277 95.5195C92.7965 95.3611 92.8334 95.1905 92.8362 95.0178C92.8391 94.845 92.8078 94.6734 92.7442 94.5127C92.6806 94.3521 92.586 94.2055 92.4656 94.0815C92.3453 93.9575 92.2017 93.8584 92.0431 93.79C91.8844 93.7216 91.7138 93.6851 91.541 93.6827C91.5267 93.6824 91.5123 93.6824 91.4979 93.6827H58.5648Z" fill="#E6E6E6"/>
<path d="M58.5648 108.925C58.2202 108.93 57.8917 109.071 57.65 109.317C57.4084 109.563 57.2729 109.894 57.2729 110.238C57.2729 110.583 57.4084 110.914 57.65 111.159C57.8917 111.405 58.2202 111.546 58.5648 111.552H91.4979C91.6707 111.555 91.8424 111.524 92.0032 111.461C92.164 111.398 92.3108 111.303 92.4351 111.183C92.5594 111.063 92.6588 110.92 92.7277 110.762C92.7965 110.603 92.8334 110.433 92.8362 110.26C92.8391 110.087 92.8078 109.915 92.7442 109.755C92.6806 109.594 92.586 109.448 92.4656 109.324C92.3453 109.2 92.2017 109.1 92.0431 109.032C91.8844 108.964 91.7138 108.927 91.541 108.925C91.5267 108.924 91.5123 108.924 91.4979 108.925H58.5648Z" fill="#E6E6E6"/>
<path d="M92.0247 158.266C91.6814 156.053 91.0115 153.902 90.0371 151.885L89.895 151.592L88.8399 152.762L89.6217 151.019L89.5706 150.918C88.8807 149.552 88.1161 148.226 87.2803 146.944L87.1253 146.707L86.9186 146.936L87.0633 146.613L86.9908 146.504C85.9557 144.952 85.1604 143.97 85.1525 143.96L84.9277 143.683L84.783 144.013C84.7565 144.074 82.128 150.131 81.7798 156.116L81.7743 156.209L83.5434 158.347L81.7393 157.215L81.7424 157.626C81.7479 158.329 81.7957 159.032 81.8857 159.729C81.9652 160.329 82.0587 160.915 82.1663 161.487C82.3368 161.492 82.5027 161.544 82.646 161.637C82.5214 160.998 82.4139 160.341 82.3236 159.667C82.2539 159.129 82.21 158.582 82.1925 158.037L85.682 160.227L82.2263 156.05C82.541 150.99 84.4938 145.892 85.0421 144.546C85.3363 144.928 85.8914 145.669 86.5554 146.658L85.3483 149.349L87.0692 147.441C87.8153 148.603 88.5026 149.801 89.1284 151.031L87.2696 155.175L89.7828 152.388C90.6606 154.276 91.2682 156.278 91.5878 158.335C92.0276 161.657 91.9418 164.849 91.346 167.322C90.7753 169.692 89.7694 171.148 88.5863 171.318C88.3428 171.352 88.0951 171.337 87.8573 171.275C87.6666 171.41 87.4371 171.48 87.2032 171.474H87.1387C87.5057 171.678 87.9171 171.788 88.3368 171.796C88.4405 171.796 88.5441 171.789 88.6467 171.774C90.0377 171.574 91.1486 170.033 91.7745 167.435C92.3837 164.905 92.4729 161.651 92.0247 158.266Z" fill="#3F3D56"/>
<path d="M88.1318 171.621C86.3123 171.621 83.6889 170.62 81.0868 168.798C80.7038 168.528 80.3381 168.234 79.9918 167.918L79.7004 167.651L80.8023 167.334L79.335 167.28L79.2731 167.215C76.5229 164.335 74.8114 160.267 74.7944 160.226L74.6606 159.905L75.0084 159.92C75.043 159.922 75.8698 159.961 77.1123 160.137L77.1898 160.148V160.147L77.4622 160.189C78.4769 160.343 79.4821 160.554 80.473 160.822L80.5788 160.85L80.9094 161.665L80.8592 160.934L81.1625 161.022C82.6001 161.437 83.9655 162.07 85.2111 162.899C89.1682 165.67 91.3578 169.133 90.2004 170.786C89.8047 171.351 89.0765 171.621 88.1318 171.621ZM80.5896 167.855C80.8313 168.06 81.0828 168.255 81.3408 168.436C84.9651 170.974 88.8565 171.934 89.8384 170.533C90.82 169.131 88.5869 165.802 84.9621 163.264C83.8438 162.52 82.6254 161.939 81.3435 161.538L81.5395 164.391L80.2521 161.22C79.4042 160.995 78.5368 160.81 77.6684 160.668L77.8106 162.739L76.9245 160.557C76.238 160.463 75.6846 160.411 75.3479 160.385C75.8069 161.393 77.3234 164.505 79.531 166.845L83.5801 166.994L80.5896 167.855Z" fill="#3F3D56"/>
</svg>
