<svg width="216" height="164" viewBox="0 0 216 164" fill="none" xmlns="http://www.w3.org/2000/svg">
<path opacity="0.1" d="M213.103 47.1846C213.066 47.3603 213.03 47.536 212.989 47.7098C211.694 53.6817 209.577 59.4364 206.431 64.7213C206.326 64.897 206.221 65.0727 206.115 65.2484C204.04 68.6486 201.557 71.7825 198.722 74.5803C197.154 76.128 195.444 77.5988 193.411 78.6589C190.562 80.1475 187.232 80.7516 183.959 81.2451C180.559 81.7604 177.112 82.1907 173.675 82.6547C172.454 82.8166 171.24 82.9883 170.033 83.1699C166.712 83.6615 163.415 84.2301 160.198 84.9842C156.22 85.914 152.364 87.1321 148.722 88.8457C148.431 88.9773 148.143 89.1168 147.859 89.2642C147.575 89.4064 147.288 89.5505 147.008 89.6966C146.728 89.8427 146.451 89.9887 146.177 90.1388C146.035 90.2158 145.893 90.2928 145.753 90.3737C145.612 90.4546 145.474 90.5257 145.338 90.6047C144.927 90.8337 144.525 91.0686 144.122 91.3055L144.106 91.3154C143.84 91.4713 143.577 91.6313 143.316 91.7912C141.828 92.6953 140.371 93.639 138.914 94.5886L137.998 95.1808L136.579 96.0988C136.302 96.2785 136.02 96.4581 135.742 96.6358C135.544 96.7661 135.347 96.8964 135.132 97.0306C134.097 97.6821 133.049 98.3217 131.973 98.9318C131.718 99.0779 131.462 99.2239 131.203 99.3661C129.029 100.579 126.756 101.604 124.408 102.43L124.376 102.442C123.195 102.854 121.99 103.194 120.768 103.461C120.063 103.615 119.356 103.741 118.641 103.838C116.731 104.108 114.794 104.136 112.877 103.919C109.112 103.482 105.584 102.037 101.821 101.55C94.0748 100.562 86.5512 103.743 79.2665 106.234C77.4753 106.846 75.6709 107.419 73.8534 107.954C72.6452 108.311 71.433 108.649 70.211 108.974C62.7242 110.952 55.0831 112.292 47.3699 112.98C44.1456 113.296 40.902 113.368 37.6669 113.195C36.4369 113.12 35.2209 112.998 34.0265 112.8C29.94 112.169 26.1298 110.844 23.0541 108.418C20.535 106.426 18.7326 103.83 17.3605 101.113C15.956 98.3414 14.9644 95.379 14.4171 92.3202C14.342 91.9037 14.2749 91.4852 14.2196 91.0666C14.1209 90.3507 14.0472 89.6308 13.9985 88.9069C13.7329 85.0486 14.1936 81.1747 15.3568 77.4863C16.6597 73.3563 18.8313 69.3922 19.7868 65.2306C19.8263 65.0542 19.8638 64.8785 19.8993 64.7035C20.0298 64.0714 20.1267 63.4328 20.1895 62.7905C20.6772 57.6774 18.8076 52.6926 17.3408 47.692C17.2895 47.5183 17.2382 47.3426 17.1888 47.1669C17.0309 46.6115 16.8795 46.0567 16.7347 45.5026C15.3765 40.2158 14.9994 34.5558 16.2096 29.2789C16.2471 29.1032 16.2925 28.9275 16.336 28.7537C17.1461 25.4181 18.6696 22.2977 20.8015 19.6074C23.0679 16.7646 26.0429 14.3975 29.2214 12.3187C30.7704 11.3053 32.3721 10.3584 34.0265 9.47788C35.211 8.84614 36.4244 8.24796 37.6669 7.68335C47.6265 3.14274 58.9879 0.925745 70.2229 1.41534C70.8151 1.44101 71.4074 1.47259 71.9996 1.51602C72.5919 1.55946 73.2394 1.61078 73.8593 1.66804C81.0966 2.37084 88.1385 4.06666 95.131 5.92041C97.4743 6.54228 99.8137 7.17994 102.151 7.80575C103.191 8.08213 104.23 8.35852 105.27 8.62701C110.366 9.94378 115.536 11.1362 120.771 12.0265C121.984 12.2358 123.197 12.4266 124.412 12.599C128.63 13.2189 132.881 13.5796 137.143 13.6789C138.8 13.7118 140.458 13.6973 142.116 13.6355C142.953 13.6052 143.791 13.5598 144.629 13.4993C153.286 12.8893 161.653 10.848 170.033 8.9409C171.245 8.66452 172.459 8.39208 173.675 8.12359C175.27 7.77219 176.865 7.43263 178.469 7.11874C188.444 5.15838 197.336 6.28563 206.61 10.3307C208.719 11.2487 210.825 12.3582 212.116 14.0817C213.407 15.8051 213.731 17.9214 213.972 19.9647C214.314 22.8746 214.537 25.8221 214.621 28.7853C214.621 28.959 214.621 29.1347 214.633 29.3104C214.768 35.2962 214.321 41.3391 213.103 47.1846Z" fill="#080B24"/>
<path opacity="0.1" d="M146.933 64.7211H146.282V64.9541V65.2482H147.02L146.933 64.7211ZM139.544 64.7211C139.543 64.7257 139.543 64.7304 139.544 64.7349C139.526 64.8791 139.506 65.0232 139.487 65.1693V65.2087V65.2482H145.133V65.2166L145.528 64.7211H139.544ZM124.412 64.7211V47.7096H130.907C130.838 47.6642 130.767 47.6169 130.694 47.5734L130.599 47.5122L130.477 47.4372C130.406 47.3958 130.334 47.3543 130.259 47.3148C130.184 47.2753 130.139 47.2477 130.076 47.2141L130.032 47.1904H130.023H124.412V46.2527L124.26 46.3119L124.1 46.3869H124.088L124.055 46.4047L123.954 46.458L123.853 46.5113C123.755 46.5646 123.656 46.6239 123.557 46.6851L123.462 46.7482L123.265 46.8746C123.01 47.0443 122.76 47.222 122.501 47.3879C122.436 47.4293 122.371 47.4708 122.304 47.5083C122.163 47.5912 122.019 47.6702 121.871 47.7412C121.808 47.7728 121.747 47.8005 121.674 47.8261L121.567 47.8676L121.468 47.9011C121.237 47.9818 120.999 48.0438 120.758 48.0867V64.7172H111.019C111.019 64.7369 111.033 64.7527 111.039 64.7724C111.092 64.9304 111.146 65.0863 111.197 65.2443H120.772V83.4778C120.822 83.4778 120.871 83.4778 120.92 83.4778L121.091 83.4876L121.401 83.5054L121.897 83.5646L122.124 83.5863L122.371 83.612H122.408L122.844 83.6653L122.937 83.6772L123.149 83.7068L123.451 83.7502L124.175 83.7186L124.274 83.7364C124.313 83.7364 124.355 83.7482 124.396 83.7561V65.2482H139.467V65.2087V65.1693C139.487 65.0232 139.506 64.8791 139.524 64.7349C139.523 64.7304 139.523 64.7257 139.524 64.7211H124.412ZM146.933 64.7211H146.282V64.9541V65.2482H147.02L146.933 64.7211ZM139.137 64.7211C139.114 64.8968 139.092 65.0725 139.068 65.2482H145.364L145.792 64.7211H139.137ZM124.412 64.7211V47.7096H130.907C130.838 47.6642 130.767 47.6169 130.694 47.5734L130.599 47.5122L130.477 47.4372C130.406 47.3958 130.334 47.3543 130.259 47.3148C130.184 47.2753 130.139 47.2477 130.076 47.2141L130.032 47.1904H130.019H124.412V46.2527L124.26 46.3119L124.1 46.3869H124.088L124.055 46.4047L123.954 46.458L123.853 46.5113C123.755 46.5646 123.656 46.6239 123.557 46.6851L123.462 46.7482L123.265 46.8746C123.01 47.0443 122.76 47.222 122.501 47.3879C122.436 47.4293 122.371 47.4708 122.304 47.5083C122.163 47.5912 122.019 47.6702 121.871 47.7412C121.808 47.7728 121.747 47.8005 121.674 47.8261L121.567 47.8676L121.468 47.9011C121.237 47.9818 120.999 48.0438 120.758 48.0867V64.7172H111.019C111.019 64.7369 111.033 64.7527 111.039 64.7724C111.092 64.9284 111.148 65.0863 111.199 65.2443H120.772V83.4758H120.92L121.091 83.4857L121.401 83.5034L121.897 83.5646L122.124 83.5863L122.371 83.612H122.408L122.844 83.6653L122.937 83.6772L123.149 83.7068L123.451 83.7502L124.175 83.7186L124.274 83.7364C124.313 83.7364 124.355 83.7482 124.396 83.7561V65.2482H139.072C139.096 65.0725 139.118 64.8968 139.141 64.7211H124.412ZM173.675 29.2965H214.633C214.633 29.1208 214.633 28.9451 214.622 28.7714H173.675V8.11754C172.459 8.38077 171.245 8.6532 170.033 8.93485V28.7714H125.488L125.375 28.6707L125.545 28.5207L142.114 13.6314C140.456 13.6946 138.798 13.7091 137.141 13.6749L124.41 25.1132V12.5989C123.194 12.4265 121.98 12.2357 120.77 12.0264V24.5368L102.155 7.80562C99.8178 7.17981 97.4784 6.54215 95.135 5.92028L120.45 28.6707L120.337 28.7714H73.8653V1.68568C73.2454 1.62777 72.6256 1.5771 72.0057 1.53367C71.4134 1.49023 70.8212 1.45865 70.2289 1.43298V28.7714H37.667V7.70099C36.4377 8.26429 35.2243 8.86247 34.0266 9.49552V28.7714H16.3361C16.2926 28.9451 16.2472 29.1208 16.2097 29.2965H34.0266V47.1845H17.1889C17.2383 47.3602 17.2896 47.5359 17.3409 47.7096H34.0266V64.7211H19.8994C19.8639 64.8962 19.8264 65.0719 19.7869 65.2482H34.0266V112.812C35.2111 112.996 36.4371 113.124 37.667 113.207V65.2482H70.223V108.982C71.445 108.656 72.6571 108.319 73.8653 107.962V65.2482H120.772V103.458C121.994 103.192 123.199 102.852 124.38 102.44L124.412 102.428V65.2482H170.033V83.1698C171.244 82.9921 172.458 82.8217 173.675 82.6585V65.2482H206.115C206.222 65.0725 206.326 64.8968 206.431 64.7211H173.675V47.7096H212.989C213.03 47.5359 213.066 47.3602 213.104 47.1845H173.675V29.2965ZM37.667 29.2965H70.223V47.1845H37.667V29.2965ZM37.667 64.7211V47.7096H70.223V64.7211H37.667ZM73.8653 29.2965H120.772V47.1845H73.8653V29.2965ZM73.8653 64.7211V47.7096H120.772V64.7211H73.8653ZM170.033 64.7211H124.412V47.7096H170.033V64.7211ZM170.033 47.1845H124.412V29.7762L125.052 29.2965H170.033V47.1845ZM139.544 64.7211C139.543 64.7257 139.543 64.7304 139.544 64.7349C139.526 64.8791 139.506 65.0232 139.487 65.1693V65.2087V65.2482H145.133V65.2166L145.528 64.7211H139.544ZM146.933 64.7211H146.282V64.9541V65.2482H147.02L146.933 64.7211ZM124.412 64.7211V47.7096H130.907C130.838 47.6642 130.767 47.6169 130.694 47.5734L130.599 47.5122L130.477 47.4372C130.406 47.3958 130.334 47.3543 130.259 47.3148C130.184 47.2753 130.139 47.2477 130.076 47.2141L130.032 47.1904H130.023H124.412V46.2527L124.26 46.3119L124.1 46.3869H124.088L124.055 46.4047L123.954 46.458L123.853 46.5113C123.755 46.5646 123.656 46.6239 123.557 46.6851L123.462 46.7482L123.265 46.8746C123.01 47.0443 122.76 47.222 122.501 47.3879C122.436 47.4293 122.371 47.4708 122.304 47.5083C122.163 47.5912 122.019 47.6702 121.871 47.7412C121.808 47.7728 121.747 47.8005 121.674 47.8261L121.567 47.8676L121.468 47.9011C121.237 47.9818 120.999 48.0438 120.758 48.0867V64.7172H111.019C111.019 64.7369 111.033 64.7527 111.039 64.7724C111.092 64.9304 111.146 65.0863 111.197 65.2443H120.772V83.4778C120.822 83.4778 120.871 83.4778 120.92 83.4778L121.091 83.4876L121.401 83.5054L121.897 83.5646L122.124 83.5863L122.371 83.612H122.408L122.844 83.6653L122.937 83.6772L123.149 83.7068L123.451 83.7502L124.175 83.7186L124.274 83.7364C124.313 83.7364 124.355 83.7482 124.396 83.7561V65.2482H139.467V65.2087V65.1693C139.487 65.0232 139.506 64.8791 139.524 64.7349C139.523 64.7304 139.523 64.7257 139.524 64.7211H124.412Z" fill="#080B24"/>
<path opacity="0.1" d="M53.32 16.9819H53.6023C53.5092 16.9425 53.4282 16.8792 53.3676 16.7985C53.3069 16.7177 53.2687 16.6223 53.2568 16.5219C53.2568 16.1587 53.7997 15.8625 54.463 15.8625H62.9046C63.5679 15.8625 64.1088 16.1587 64.1088 16.5219C64.1088 16.8832 63.5679 17.1813 62.9046 17.1813H62.6223C62.7154 17.22 62.7965 17.2828 62.8572 17.3633C62.918 17.4439 62.9561 17.5391 62.9677 17.6393C62.9677 17.9493 62.5729 18.2098 62.0458 18.2789H64.476C65.1373 18.2789 65.6802 18.5751 65.6802 18.9383C65.6802 19.3016 65.1373 19.5977 64.476 19.5977H56.0325C55.3711 19.5977 54.8282 19.2996 54.8282 18.9383C54.8282 18.6284 55.2231 18.3698 55.7502 18.2987H53.32C52.6566 18.2987 52.1157 18.0026 52.1157 17.6393C52.1157 17.2761 52.6566 16.9819 53.32 16.9819Z" fill="#080B24"/>
<path opacity="0.1" d="M144.811 23.2539H145.093C145.001 23.2142 144.92 23.1508 144.86 23.0701C144.799 22.9893 144.761 22.894 144.75 22.7939C144.75 22.4306 145.291 22.1345 145.954 22.1345H154.396C155.059 22.1345 155.602 22.4306 155.602 22.7939C155.602 23.1552 155.059 23.4513 154.396 23.4513H154.115C154.208 23.4909 154.288 23.5543 154.349 23.6351C154.409 23.7159 154.447 23.8112 154.459 23.9113C154.459 24.2212 154.064 24.4818 153.537 24.5509H155.967C156.63 24.5509 157.171 24.847 157.171 25.2103C157.171 25.5735 156.63 25.8697 155.967 25.8697H147.525C146.862 25.8697 146.319 25.5716 146.319 25.2103C146.319 24.9003 146.714 24.6398 147.241 24.5707H144.811C144.15 24.5707 143.607 24.2745 143.607 23.9113C143.607 23.548 144.15 23.2539 144.811 23.2539Z" fill="#080B24"/>
<path opacity="0.1" d="M40.3634 50.0948H40.6438C40.551 50.0553 40.4703 49.992 40.41 49.9112C40.3496 49.8304 40.3118 49.735 40.3003 49.6348C40.3003 49.2736 40.8432 48.9755 41.5045 48.9755H49.948C50.6094 48.9755 51.1523 49.2736 51.1523 49.6348C51.1523 49.9981 50.6094 50.2942 49.948 50.2942H49.6657C49.7586 50.333 49.8394 50.3959 49.8998 50.4764C49.9602 50.557 49.998 50.6522 50.0092 50.7522C50.0092 51.0622 49.6144 51.3228 49.0873 51.3918H51.5175C52.1808 51.3918 52.7237 51.6899 52.7237 52.0512C52.7237 52.4125 52.1808 52.7106 51.5175 52.7106H43.0838C42.4205 52.7106 41.8796 52.4145 41.8796 52.0512C41.8796 51.7433 42.2744 51.4827 42.8015 51.4116H40.3634C39.7001 51.4116 39.1572 51.1155 39.1572 50.7522C39.1572 50.389 39.708 50.0948 40.3634 50.0948Z" fill="#080B24"/>
<path opacity="0.1" d="M199.314 120.445C200.732 113.506 183.37 104.098 160.535 99.4309C137.699 94.7642 118.038 96.6064 116.62 103.546C115.202 110.485 132.564 119.893 155.399 124.56C178.235 129.227 197.896 127.384 199.314 120.445Z" fill="#080B24"/>
<path d="M153.199 75.9821C153.199 75.9821 155.444 64.9642 164.014 65.9849C164.014 65.9849 169.936 66.3915 171.154 70.2688V78.8387L153.199 75.9821Z" fill="#3A3768"/>
<path d="M200.131 80.0648L123.816 73.7375L114.022 75.7788L114.634 89.45L115.301 89.531L116.061 110.06L190.947 123.526L198.907 116.792V94.5375L199.926 93.9393L200.131 80.0648Z" fill="#D48A9B"/>
<path opacity="0.05" d="M200.233 80.0647L200.028 93.9392L191.764 97.8165L191.662 83.328L200.233 80.0647Z" fill="black"/>
<path opacity="0.05" d="M198.907 94.5513L199.008 116.386L191.05 123.12L191.562 97.8166L198.907 94.5513Z" fill="black"/>
<path opacity="0.05" d="M115.404 90.3482L191.623 99.6485L191.662 97.8836L115.347 89.6533L115.404 90.3482Z" fill="black"/>
<path opacity="0.05" d="M198.907 95.3528V94.5513L191.355 97.8837V99.6525L198.907 95.3528Z" fill="black"/>
<path d="M113.919 75.7788L123.713 73.7375L200.029 80.0648L191.459 83.3281L113.919 75.7788Z" fill="#EFC6CD"/>
<path opacity="0.1" d="M191.899 80.4575L195.644 80.7023L189.437 82.56L186.276 82.333L191.899 80.4575Z" fill="black"/>
<path d="M191.899 80.2937L195.644 80.5385L189.437 82.3982L186.276 82.1692L191.899 80.2937Z" fill="white"/>
<path d="M191.451 80.7141C191.599 80.6509 191.755 80.7714 191.913 80.801C192.004 80.8188 192.097 80.801 192.188 80.8188C192.372 80.8425 192.553 80.965 192.729 80.9038" fill="#D3DAE1"/>
<path d="M191.258 80.8268C191.404 80.7635 191.562 80.8821 191.72 80.9137C191.811 80.9295 191.904 80.9137 191.995 80.9295C192.178 80.9552 192.36 81.0776 192.536 81.0164" fill="#D3DAE1"/>
<path d="M190.811 81.0517C190.959 80.9885 191.117 81.1071 191.275 81.1367C191.364 81.1545 191.458 81.1367 191.547 81.1545C191.733 81.1801 191.915 81.3026 192.089 81.2394" fill="#D3DAE1"/>
<path opacity="0.1" d="M175.711 78.6136L179.456 78.8604L173.25 80.7181L170.089 80.4891L175.711 78.6136Z" fill="black"/>
<path d="M175.711 78.4518L179.456 78.6966L173.25 80.5543L170.089 80.3273L175.711 78.4518Z" fill="white"/>
<path d="M175.262 78.8723C175.41 78.8091 175.566 78.9276 175.724 78.9592C175.815 78.975 175.908 78.9592 175.999 78.975C176.183 79.0007 176.364 79.1232 176.54 79.0619" fill="#D3DAE1"/>
<path d="M175.069 78.9848C175.216 78.9216 175.374 79.0402 175.532 79.0698C175.622 79.0876 175.715 79.0698 175.806 79.0876C175.99 79.1132 176.172 79.2357 176.347 79.1725" fill="#D3DAE1"/>
<path d="M174.623 79.2078C174.771 79.1446 174.929 79.2651 175.087 79.2947C175.176 79.3125 175.271 79.2947 175.36 79.3125C175.546 79.3362 175.727 79.4606 175.901 79.3974" fill="#D3DAE1"/>
<path opacity="0.1" d="M183.475 79.5356L187.222 79.7804L181.015 81.6401L177.853 81.4111L183.475 79.5356Z" fill="black"/>
<path d="M183.475 79.3737L187.222 79.6185L181.015 81.4762L177.853 81.2471L183.475 79.3737Z" fill="white"/>
<path d="M183.027 79.7941C183.175 79.7308 183.333 79.8494 183.491 79.879C183.58 79.8968 183.673 79.879 183.764 79.8968C183.947 79.9205 184.131 80.0449 184.305 79.9817" fill="#D3DAE1"/>
<path d="M182.833 79.9047C182.981 79.8415 183.139 79.962 183.297 79.9916C183.386 80.0094 183.479 79.9916 183.57 80.0094C183.754 80.0331 183.937 80.1575 184.111 80.0943" fill="#D3DAE1"/>
<path d="M182.389 80.1297C182.535 80.0665 182.693 80.185 182.851 80.2166C182.942 80.2324 183.035 80.2166 183.126 80.2324C183.31 80.2581 183.491 80.3806 183.667 80.3194" fill="#D3DAE1"/>
<path opacity="0.1" d="M98.6866 156.232C120.763 156.232 138.66 152.548 138.66 148.004C138.66 143.46 120.763 139.776 98.6866 139.776C76.6101 139.776 58.7136 143.46 58.7136 148.004C58.7136 152.548 76.6101 156.232 98.6866 156.232Z" fill="#080B24"/>
<path d="M142.46 80.6215C142.033 76.8745 140.345 73.2992 140.345 73.2992L140.474 72.0358C140.474 72.0358 140.501 71.404 140.46 70.4564C140.464 69.8648 140.542 69.276 140.691 68.7034C141.036 67.6077 140.258 66.2613 140.172 66.1369C140.085 66.0126 140.215 63.61 139.437 62.4314C138.659 61.2528 133.479 59.0615 133.479 59.0615C133.479 59.0615 133.201 58.4791 132.808 57.798L132.843 57.7289C132.522 57.1458 132.124 56.6086 131.659 56.1318C131.341 55.7923 131.035 55.5988 130.788 55.6935C130.688 55.3659 130.611 55.0314 130.559 54.6926C130.611 54.7065 130.664 54.7203 130.715 54.7301C130.929 54.7797 131.151 54.7851 131.367 54.7459C131.848 54.6374 132.168 54.205 132.437 53.7983C133.775 51.7649 134.928 49.5341 135.163 47.1276C135.226 46.6364 135.203 46.138 135.094 45.6549C134.983 45.2793 134.828 44.9181 134.632 44.5789C134.286 43.883 133.848 43.2369 133.329 42.6581C132.407 41.6868 131.136 41.0925 129.829 40.7411C128.357 40.3452 126.823 40.2307 125.308 40.4035C124.913 40.4489 124.518 40.5141 124.123 40.5398C123.623 40.5618 123.121 40.5533 122.621 40.5141L120.037 40.3641L120.025 40.3246L119.595 40.2989C119.425 40.6365 119.595 41.0373 119.806 41.3531C120.017 41.669 120.26 41.9987 120.242 42.3718C120.225 42.7449 119.954 43.045 119.743 43.3589C119.532 43.6728 119.372 44.0834 119.583 44.3914C119.613 44.434 119.648 44.4725 119.688 44.5059C119.911 44.7369 120.3 44.7625 120.637 44.7586H120.696C119.846 45.8783 119.386 47.2458 119.387 48.6517C119.393 49.8531 119.729 51.0297 120.359 52.0528C120.989 53.0758 121.889 53.9058 122.959 54.4518C122.996 54.5801 123.034 54.7124 123.069 54.8466C123.461 56.2333 123.601 57.6787 123.484 59.1148L123.438 59.2135L123.411 59.1089C123.411 59.1089 120.367 61.1739 119.462 61.7207C118.558 62.2675 117.65 64.1213 117.607 64.6267C117.563 65.1321 116.138 72.7544 116.138 72.7544C115.848 73.5222 115.61 74.3083 115.423 75.1076L113.605 76.7047C113.605 76.7047 109.854 77.0423 108.768 76.7896L108.8 76.9989C107.842 76.7803 106.867 76.6481 105.886 76.604C105.35 76.5351 104.806 76.608 104.307 76.8153L104.269 76.833L104.24 76.8468C103.668 76.925 103.11 77.0817 102.581 77.3127C102.518 77.3384 102.461 77.3641 102.406 77.3897L102.418 77.1311L98.3586 76.9219L96.2857 76.5014C96.2857 76.5014 95.5513 75.9091 95.119 75.996C94.6867 76.0828 93.7805 75.4906 93.7805 75.4906C93.5738 75.3286 93.3501 75.1896 93.1132 75.076C93.0441 74.5983 93.0007 74.308 93.0007 74.308C93.0007 74.308 91.3878 67.9078 90.1796 64.145C89.3702 61.6319 88.2055 60.3941 87.5184 59.8551C87.2124 59.3221 87.0111 58.9786 87.0111 58.9786C86.8788 58.5166 86.1523 57.4762 85.9667 57.4506C85.9371 57.4032 85.9154 57.3795 85.9036 57.3795C85.8639 57.3752 85.8237 57.3814 85.7871 57.3973C85.4475 55.7074 85.2501 53.5891 85.7693 51.7432C86.4801 51.1591 87.0529 50.4251 87.4467 49.5937C87.8406 48.7623 88.0457 47.8541 88.0475 46.9341C88.0475 46.9065 88.0475 46.8788 88.0475 46.8512C88.0475 46.8236 88.0475 46.794 88.0475 46.7663C88.0471 45.2992 87.5275 43.8795 86.5807 42.7587L86.5136 42.6837C86.5316 42.671 86.5487 42.6571 86.5649 42.6423C86.7133 42.5219 86.8263 42.3637 86.892 42.1844C86.9576 42.005 86.9736 41.8112 86.938 41.6236C86.8492 41.2445 86.5531 40.9464 86.4011 40.5871C86.3098 40.3105 86.2366 40.0283 86.1819 39.7422C86.0656 39.3358 85.8522 38.9639 85.5601 38.6584L85.5897 38.7373C84.8158 37.8667 83.4852 37.4344 82.2869 37.6279C81.3965 37.77 80.5674 38.1846 79.6731 38.3129C79.0315 38.4037 78.378 38.3445 77.7325 38.4096C77.1335 38.4712 76.5505 38.6397 76.011 38.9071C75.8701 38.9671 75.7451 39.059 75.6458 39.1756C75.554 39.3318 75.4924 39.504 75.4642 39.683C75.245 40.4825 74.5501 41.053 74.0467 41.7203C73.4717 42.4827 73.1388 43.4001 73.0912 44.3539C73.0716 44.5963 73.095 44.8402 73.1603 45.0744C73.2037 45.2146 73.2709 45.3469 73.3025 45.489C73.4012 45.9233 73.1741 46.3557 73.0636 46.7861C72.9243 47.3351 72.9737 47.915 73.2037 48.4325C73.9835 50.1777 76.544 50.7601 77.0771 52.5921C77.4849 52.7796 77.9157 52.9123 78.3583 52.9869C78.3938 53.1686 78.4254 53.3522 78.4511 53.5377C78.4391 53.5428 78.4278 53.5495 78.4175 53.5575C77.7266 54.2307 77.5548 55.5317 77.5548 55.5317L77.4719 55.5988C77.1896 55.8317 76.2242 56.6135 75.3516 57.2156C74.3152 57.9323 72.5878 60.3329 71.3796 61.0495C70.1714 61.7661 69.1764 66.1823 69.437 67.7873C69.6976 69.3923 70.7755 73.8935 70.3432 75.536C69.9108 77.1785 70.9907 84.6744 70.9907 84.6744C71.7153 84.8125 72.4243 85.0228 73.107 85.3022L73.0853 85.63L73.0202 86.617C73.0202 86.617 71.0637 93.6925 71.812 99.1392C72.5602 104.586 71.4665 105.147 71.4665 105.147C71.4665 105.147 71.6955 107.561 71.121 108.404C70.5465 109.247 70.43 111.099 70.43 111.099C70.43 111.099 70.3728 115.254 70.4873 116.429C70.6018 117.604 70.659 119.744 70.2563 120.249C69.8536 120.755 69.1054 124.065 69.1626 125.076C69.2199 126.087 67.7235 128.391 68.5289 131.366C69.3344 134.341 66.1599 134.398 66.1599 134.398C66.1599 134.398 66.5646 138.939 67.4273 140.238L67.5537 140.423C67.532 140.498 67.5102 140.577 67.4866 140.662C67.1608 141.847 66.7146 143.716 67.0246 144.168C67.4846 144.843 67.7156 144.729 67.7156 144.729L67.8873 147.761C67.8873 147.761 71.3421 150.681 73.9914 150.57C76.6408 150.46 76.1216 147.761 76.1216 147.761L73.8651 141.91L73.7881 141.712L76.2953 136.974C76.2953 136.974 76.9863 134.898 77.158 134.167C77.3298 133.437 78.2675 130.848 78.2675 130.848C78.2675 130.848 80.6365 125.234 80.6858 124.559C80.7352 123.884 80.9168 120.237 81.3768 119.505C81.8368 118.772 83.1042 114.569 83.1042 114.569L83.1358 114.597C83.3508 114.808 83.5044 115.074 83.5802 115.366C83.656 115.657 83.6511 115.964 83.5662 116.253C83.276 117.319 83.4497 119.509 83.4497 119.509C83.4497 119.509 83.3352 121.363 83.1042 122.318C82.8732 123.274 82.8179 131.077 83.2207 132.929C83.5425 134.412 83.5326 137.188 83.5168 138.238C83.2463 139.353 83.0094 140.739 83.4497 140.903C84.1999 141.185 88.0001 141.128 88.0001 141.128C88.0001 141.128 89.6111 140.565 91.8004 142.532C93.9898 144.498 100.724 141.971 100.724 141.971C100.724 141.971 102.797 141.408 98.708 139.782C95.8554 138.646 94.0135 137.89 92.8092 137.081C92.8369 137.028 92.8665 136.974 92.8921 136.917C92.8921 136.917 91.222 135.338 92.6039 132.538C93.9858 129.739 93.9286 127.372 93.9286 127.372L94.1596 117.937L93.4686 105.413L92.9336 92.2691L93.0284 92.2375C93.1192 94.6539 93.591 100.407 96.0607 99.2912C99.17 97.8876 96.5207 94.2374 96.5207 94.2374L95.1249 91.5169L95.5415 91.3748L93.9799 86.3288C93.83 85.344 93.8101 84.3437 93.9207 83.3537C93.9516 82.7745 93.9397 82.1939 93.8851 81.6165C95.9304 81.2591 97.8888 80.8801 98.2402 80.9669C98.6547 81.0676 100.974 81.0874 101.886 81.0913C101.588 81.3243 101.349 81.5553 101.349 81.5553L105.063 84.0546C105.063 84.0546 106.322 83.3656 106.585 82.6351C106.843 82.5698 107.082 82.4424 107.28 82.264C107.319 83.1267 107.548 84.0605 108.346 84.0822C108.545 84.0864 108.743 84.0473 108.926 83.9677L114.999 82.7654L114.478 86.0208L114.841 86.6664C114.657 89.4125 114.446 92.3283 114.261 94.8928L114.176 95.4534L114.219 95.4633C113.931 99.4117 113.7 102.403 113.7 102.403C114.04 101.754 114.568 101.224 115.214 100.88L115.254 106.74C115.254 106.74 115.558 116.005 115.558 117.268C115.558 118.532 115.599 121.353 115.599 121.353C115.599 121.353 116.249 124.806 116.635 125.943C117.022 127.08 117.326 132.26 117.326 132.26C117.326 132.26 118.235 133.691 117.846 134.234C117.457 134.777 119.358 135.96 119.358 135.96C119.358 135.96 118.148 137.602 118.061 138.698C118.051 138.824 118.175 138.958 118.4 139.093C118.329 139.15 118.256 139.207 118.175 139.262C117.615 139.637 116.793 139.898 115.558 139.791C112.188 139.495 109.813 142.613 111.886 143.244C113.958 143.876 120.177 144.002 120.177 144.002C120.177 144.002 122.06 142.828 123.533 143.357C123.511 144.593 123.573 145.726 123.583 145.876L123.565 145.89C122.684 146.679 120.998 148.038 119.352 148.592C116.983 149.392 116.458 152.635 119.524 153.056C122.59 153.476 127.081 152.551 127.081 152.551C127.081 152.551 129.412 150.825 131.183 150.446C132.954 150.067 134.466 149.224 134.164 148.213C133.967 147.568 133.459 145.876 133.116 144.739C133.096 144.67 133.076 144.605 133.057 144.541C133.11 144.423 133.163 144.3 133.213 144.174C133.213 144.174 132.306 139.458 133.041 138.279C133.775 137.101 133.386 125.307 133.386 125.307C133.386 125.307 132.133 122.318 132.782 120.508C133.432 118.697 131.746 116.127 131.746 116.127C131.746 116.127 131.929 110.976 132.423 108.106C132.445 107.984 132.467 107.865 132.488 107.751C133.314 107.505 134.12 107.194 134.897 106.821C134.897 106.821 135.329 100.334 135.587 98.8609C135.613 98.7227 135.649 98.4996 135.692 98.2094L135.89 97.169L136.122 95.9845L136.912 91.9473L138.338 90.1034L142.009 86.3525C142.009 86.3525 142.892 84.3704 142.46 80.6215ZM85.8325 57.4585L85.8049 57.4782C85.8006 57.4639 85.7973 57.4494 85.795 57.4348C85.8065 57.4442 85.8191 57.4522 85.8325 57.4585ZM122.112 62.0563L121.97 62.3663L122.489 61.849L121.784 62.6387L122.021 62.1412L122.112 62.0563ZM118.606 69.3015C118.469 69.6628 118.323 70.0537 118.171 70.4604L118.45 69.6293L118.606 69.3015Z" fill="url(#paint0_linear)"/>
<path d="M107.276 81.113C107.276 81.113 106.792 84.3329 108.243 84.3743C109.694 84.4158 110.664 81.8908 110.664 81.8908L110.072 79.8712L107.276 81.113Z" fill="#585B8A"/>
<path opacity="0.2" d="M107.276 81.113C107.276 81.113 106.792 84.3329 108.243 84.3743C109.694 84.4158 110.664 81.8908 110.664 81.8908L110.072 79.8712L107.276 81.113Z" fill="black"/>
<path d="M74.7755 150.809C72.1933 150.922 68.8253 148.004 68.8253 148.004L68.6575 144.974C68.6575 144.974 68.4345 145.086 67.9844 144.413C67.6823 143.961 68.1166 142.087 68.4345 140.909C68.5884 140.332 68.7148 139.922 68.7148 139.922L74.3807 141.438L74.6511 142.154L76.8503 148.002C76.8503 148.002 77.3557 150.697 74.7755 150.809Z" fill="#636992"/>
<path d="M100.809 142.226C100.809 142.226 94.2446 144.751 92.1223 142.786C90.0001 140.822 88.4188 141.383 88.4188 141.383C88.4188 141.383 84.7153 141.44 83.9848 141.158C83.5544 140.994 83.7874 139.59 84.0559 138.473C84.2375 137.701 84.4349 137.063 84.4349 137.063C84.4349 137.063 90.8865 134.874 91.8973 136.22C92.2009 136.616 92.5638 136.962 92.9732 137.247C94.1419 138.092 95.968 138.858 98.8562 140.036C102.828 141.663 100.809 142.226 100.809 142.226Z" fill="#636992"/>
<path d="M94.9178 90.9386L96.7123 94.5296C96.7123 94.5296 99.2945 98.1779 96.2642 99.5796C93.2338 100.981 93.2911 91.5012 93.2911 91.5012L94.9178 90.9386Z" fill="#FFD6D6"/>
<path d="M87.3979 59.7977C87.3979 59.7977 89.3623 60.696 90.5408 64.4548C91.7194 68.2136 93.2908 74.6119 93.2908 74.6119C93.2908 74.6119 94.3569 81.8493 94.1871 83.6458C94.0791 84.6352 94.0983 85.6344 94.2444 86.6189L95.7586 91.6688L92.7282 92.7349L88.0711 74.8923L87.3979 59.7977Z" fill="#DCE6F2"/>
<path opacity="0.05" d="M87.3979 59.7977C87.3979 59.7977 89.3623 60.696 90.5408 64.4548C91.7194 68.2136 93.2908 74.6119 93.2908 74.6119C93.2908 74.6119 94.3569 81.8493 94.1871 83.6458C94.0791 84.6352 94.0983 85.6344 94.2444 86.6189L95.7586 91.6688L92.7282 92.7349L88.0711 74.8923L87.3979 59.7977Z" fill="black"/>
<path opacity="0.1" d="M74.3806 141.44L74.651 142.156L74.3194 142.79C73.0283 143.351 69.8301 142.903 69.8301 142.903C69.8301 142.903 69.2379 142.151 68.4285 140.913C68.5825 140.336 68.7088 139.926 68.7088 139.926L74.3806 141.44Z" fill="black"/>
<path opacity="0.1" d="M93.1787 137.511C91.5421 141.219 85.9789 139.843 84.4332 139.379C84.1785 139.302 84.0383 139.251 84.0383 139.251C84.0383 139.251 84.0482 138.949 84.0521 138.473C84.2338 137.701 84.4312 137.063 84.4312 137.063C84.4312 137.063 90.8828 134.874 91.8935 136.22C92.1971 136.616 92.5601 136.962 92.9695 137.247C93.0312 137.341 93.1013 137.429 93.1787 137.511Z" fill="black"/>
<path d="M92.8961 132.799C91.5498 135.602 93.1785 137.176 93.1785 137.176C91.5419 140.881 85.9787 139.507 84.4329 139.041C84.1782 138.966 84.0381 138.915 84.0381 138.915C84.0381 138.915 84.1506 135.041 83.7577 133.19C83.3649 131.338 83.4201 123.54 83.6452 122.586C83.8703 121.633 83.9808 119.779 83.9808 119.779C83.9808 119.779 83.813 117.592 84.0933 116.526C84.1777 116.238 84.1834 115.932 84.1098 115.641C84.0362 115.35 83.886 115.085 83.6748 114.871L83.6452 114.842C83.6452 114.842 82.4113 119.051 81.9612 119.777C81.5111 120.504 81.3453 124.154 81.288 124.827C81.2308 125.5 78.9309 131.113 78.9309 131.113C78.9309 131.113 78.0346 133.693 77.8668 134.422C77.699 135.15 77.0238 137.229 77.0238 137.229L74.3192 142.449C73.0281 143.009 69.83 142.561 69.83 142.561C69.83 142.561 69.214 141.771 68.3711 140.484C67.5281 139.197 67.1372 134.651 67.1372 134.651C67.1372 134.651 70.2228 134.593 69.4371 131.62C68.6514 128.647 70.1103 126.345 70.055 125.334C69.9998 124.324 70.7282 121.015 71.1211 120.51C71.5139 120.004 71.4567 117.872 71.3442 116.693C71.2316 115.515 71.2889 111.363 71.2889 111.363C71.2889 111.363 71.4014 109.511 71.9621 108.67C72.5227 107.829 72.2997 105.415 72.2997 105.415C72.2997 105.415 73.3637 104.854 72.6353 99.4115C71.9068 93.9687 73.8198 86.8992 73.8198 86.8992L73.8849 85.9121L73.9876 84.313C73.9876 84.313 90.0356 83.3022 91.3267 84.5361C91.6642 84.8785 91.9412 85.2757 92.146 85.7107C92.5877 86.6603 92.8998 87.6649 93.0738 88.6976L93.747 105.699L94.4202 118.212L94.1952 127.638C94.1952 127.638 94.2445 129.992 92.8961 132.799Z" fill="#565988"/>
<path opacity="0.1" d="M88.1384 99.2439L86.4544 135.715L84.4329 139.039C84.1782 138.964 84.0381 138.913 84.0381 138.913C84.0381 138.913 84.1506 135.04 83.7577 133.188C83.3649 131.336 83.4201 123.538 83.6452 122.585C83.8702 121.631 83.9808 119.777 83.9808 119.777C83.9808 119.777 83.813 117.59 84.0933 116.524C84.1777 116.236 84.1834 115.931 84.1098 115.64C84.0362 115.349 83.886 115.083 83.6748 114.87L83.7024 114.672L88.1384 99.2439Z" fill="black"/>
<path opacity="0.1" d="M70.0036 138.409C70.0036 138.409 74.3804 136.67 75.0535 137.225C75.7267 137.78 69.8931 138.627 69.8931 138.627L70.0036 138.409Z" fill="black"/>
<path opacity="0.1" d="M91.6072 133.808C91.4394 133.865 87.1752 135.387 87.568 137.006C87.9609 138.625 91.6072 133.808 91.6072 133.808Z" fill="black"/>
<path d="M78.2815 50.7935C78.2815 50.7935 79.7108 54.2443 78.9547 56.0132C78.1986 57.7821 87.1179 60.8104 87.1179 60.8104C87.1179 60.8104 84.51 54.0765 87.035 50.2881C89.5599 46.4997 78.2815 50.7935 78.2815 50.7935Z" fill="#FFD6D6"/>
<path d="M130.506 150.697C128.781 151.076 126.508 152.801 126.508 152.801C126.508 152.801 122.132 153.727 119.143 153.307C116.154 152.886 116.661 149.645 118.975 148.845C120.58 148.292 122.224 146.928 123.083 146.146C123.462 145.797 123.687 145.554 123.687 145.554L132.064 143.87C132.064 143.87 132.2 144.338 132.389 144.984C132.725 146.123 133.221 147.813 133.41 148.456C133.704 149.477 132.232 150.318 130.506 150.697Z" fill="#505484"/>
<path d="M128.361 144.215C128.361 144.215 124.825 144.594 123.352 143.753C121.879 142.912 119.775 144.259 119.775 144.259C119.775 144.259 113.714 144.133 111.695 143.501C109.675 142.869 111.989 139.75 115.272 140.05C116.468 140.158 117.278 139.896 117.824 139.521C118.396 139.129 118.794 138.532 118.936 137.855L126.043 138.275L127.03 140.794L128.361 144.215Z" fill="#505484"/>
<path opacity="0.1" d="M127.139 141.943C127.139 141.943 118.879 140.593 117.824 139.521C118.396 139.129 118.794 138.532 118.936 137.855L126.043 138.275L127.03 140.794L127.139 141.943Z" fill="black"/>
<path d="M114.892 94.6855L114.977 107.014C114.977 107.014 115.271 116.273 115.271 117.537C115.271 118.8 115.313 121.617 115.313 121.617C115.313 121.617 115.945 125.068 116.324 126.205C116.703 127.342 116.997 132.523 116.997 132.523C116.997 132.523 117.881 133.954 117.502 134.497C117.123 135.04 118.975 136.222 118.975 136.222C118.975 136.222 117.79 137.865 117.713 138.958C117.636 140.052 127.138 141.606 127.138 141.606L123.437 103.648L120.489 94.1387L114.892 94.6855Z" fill="#575988"/>
<path opacity="0.1" d="M114.892 94.6855L114.977 107.014C114.977 107.014 115.271 116.273 115.271 117.537C115.271 118.8 115.313 121.617 115.313 121.617C115.313 121.617 115.945 125.068 116.324 126.205C116.703 127.342 116.997 132.523 116.997 132.523C116.997 132.523 117.881 133.954 117.502 134.497C117.123 135.04 118.975 136.222 118.975 136.222C118.975 136.222 117.79 137.865 117.713 138.958C117.636 140.052 127.138 141.606 127.138 141.606L123.437 103.648L120.489 94.1387L114.892 94.6855Z" fill="black"/>
<path opacity="0.1" d="M132.389 144.993C129.639 151.55 123.099 146.49 123.099 146.49C123.099 146.49 123.099 146.364 123.083 146.146C123.462 145.797 123.687 145.554 123.687 145.554L132.063 143.87C132.063 143.87 132.2 144.348 132.389 144.993Z" fill="black"/>
<path d="M132.484 144.427C129.79 151.336 123.099 146.152 123.099 146.152C123.099 146.152 122.888 142.575 123.31 140.934C123.733 139.294 122.846 134.368 122.846 134.368C122.846 134.368 122.341 129.992 121.879 128.983C121.417 127.974 121.459 125.952 121.459 125.785C121.459 125.617 121.626 124.268 121.247 123.343C120.868 122.417 120.655 120.144 120.655 120.144C120.655 120.144 120.655 116.946 120.276 115.053L118.971 108.538L116.614 95.1967L117.35 95.0703L130.544 92.7566C130.544 92.7566 133.027 105.391 132.184 106.686C132.003 106.971 131.843 107.593 131.711 108.394C131.229 111.261 131.049 116.407 131.049 116.407C131.049 116.407 132.69 118.974 132.06 120.784C131.43 122.594 132.652 125.581 132.652 125.581C132.652 125.581 133.031 137.365 132.315 138.544C131.598 139.722 132.484 144.427 132.484 144.427Z" fill="#575988"/>
<path d="M131.221 58.2836C131.221 58.2836 119.269 66.6996 121.962 62.4906C123.413 60.2243 123.147 57.338 122.578 55.1585C122.291 54.05 121.894 52.9727 121.394 51.9426C121.394 51.9426 131.549 47.6231 130.202 51.4945C129.887 52.3964 129.753 53.3517 129.807 54.3057C129.888 55.7396 130.379 57.1203 131.221 58.2836Z" fill="#D28690"/>
<path d="M109.703 77.5576C109.703 77.5576 104.653 76.0986 103.812 77.5299C102.971 78.9612 104.064 82.1021 105.589 82.6075C107.113 83.1129 110.611 80.8959 110.611 80.8959L109.703 77.5576Z" fill="#D28690"/>
<path d="M115.483 75.0758L113.378 77.0125C113.378 77.0125 109.716 77.3481 108.664 77.0954C108.664 77.0954 109.633 83.5766 108.244 84.3761L116.744 82.6507L115.483 75.0758Z" fill="#585B8A"/>
<path opacity="0.1" d="M115.483 75.0758L113.378 77.0125C113.378 77.0125 109.716 77.3481 108.664 77.0954C108.664 77.0954 109.633 83.5766 108.244 84.3761L116.744 82.6507L115.483 75.0758Z" fill="black"/>
<path opacity="0.1" d="M88.4643 47.2578C88.4643 48.9333 87.7987 50.5401 86.614 51.7249C85.4293 52.9096 83.8224 53.5752 82.147 53.5752C78.9054 52.0176 75.8296 50.7502 75.8296 47.2578C75.796 46.4079 75.9344 45.5599 76.2365 44.7647C76.5386 43.9695 76.9981 43.2435 77.5876 42.6303C78.1771 42.017 78.8843 41.5291 79.6669 41.1959C80.4496 40.8626 81.2914 40.6908 82.142 40.6908C82.9927 40.6908 83.8345 40.8626 84.6171 41.1959C85.3998 41.5291 86.107 42.017 86.6965 42.6303C87.286 43.2435 87.7455 43.9695 88.0476 44.7647C88.3497 45.5599 88.4881 46.4079 88.4544 47.2578H88.4643Z" fill="black"/>
<path d="M88.4643 47.088C88.4652 48.5737 87.9415 50.0121 86.9855 51.1493C86.0295 52.2866 84.7027 53.0498 83.2389 53.3043C81.7752 53.5588 80.2686 53.2883 78.9849 52.5405C77.7011 51.7927 76.7226 50.6155 76.222 49.2167C75.7214 47.8179 75.7308 46.2872 76.2485 44.8946C76.7663 43.5021 77.7591 42.337 79.052 41.605C80.3448 40.873 81.8546 40.621 83.3151 40.8934C84.7756 41.1659 86.093 41.9453 87.035 43.0943C87.9574 44.221 88.4624 45.6318 88.4643 47.088Z" fill="#FFD6D6"/>
<path opacity="0.1" d="M92.146 85.7166C91.521 86.1047 90.8669 86.444 90.1896 86.7313C90.1896 86.7313 86.9915 86.2674 86.5295 86.8142C86.0676 87.3611 81.9889 87.5723 81.9889 87.5723C81.9889 87.5723 75.7604 87.2782 74.8345 86.4786C74.5483 86.2468 74.2297 86.0579 73.8889 85.9179L73.9916 84.3189C73.9916 84.3189 90.0396 83.3081 91.3307 84.5419C91.6668 84.8847 91.9424 85.2819 92.146 85.7166Z" fill="black"/>
<path d="M92.9258 84.5856C92.7995 85.3003 90.1896 86.394 90.1896 86.394C90.1896 86.394 86.9915 85.932 86.5295 86.4789C86.0676 87.0257 81.9889 87.237 81.9889 87.237C81.9889 87.237 75.7604 86.9408 74.8345 86.1413C73.9087 85.3417 71.8457 84.9568 71.8457 84.9568C71.8457 84.9568 70.7934 77.4667 71.2159 75.8262C71.6384 74.1857 70.5842 69.6806 70.3315 68.0815C70.0788 66.4824 71.0461 62.0642 72.2247 61.3496C73.4033 60.6349 75.0872 58.2343 76.096 57.5197C76.9469 56.9176 77.8866 56.1377 78.161 55.9028L78.242 55.8357C78.242 55.8357 78.4117 54.5308 79.0849 53.8615C79.7581 53.1923 85.9432 58.1119 85.9432 58.1119C85.9432 58.1119 85.9866 58.491 86.4071 57.7763C86.5019 57.6164 87.3172 58.793 87.4594 59.2905C87.4594 59.2905 90.8253 65.1834 91.0366 66.3975C91.2478 67.6117 92.1302 71.5738 92.298 72.5412C92.3415 72.7899 92.4126 73.6625 92.4955 74.8312C92.5113 75.0602 92.5251 75.3031 92.5428 75.5557C92.6672 77.4944 92.8015 79.97 92.8824 81.8415C92.8824 82.0547 92.9002 82.2601 92.9061 82.4575C92.9487 83.1661 92.9553 83.8764 92.9258 84.5856Z" fill="#DCE6F2"/>
<path opacity="0.1" d="M71.5557 69.3922C71.5557 69.3922 73.8694 72.2113 74.6275 72.2113C75.3855 72.2113 71.5557 69.3922 71.5557 69.3922Z" fill="black"/>
<path opacity="0.1" d="M76.4298 75.453C76.4298 75.453 72.6414 79.5771 73.1468 80.3351C73.6521 81.0932 76.4298 75.453 76.4298 75.453Z" fill="black"/>
<path opacity="0.1" d="M73.6521 83.6598C73.6521 83.6598 77.9953 78.904 78.1927 77.2634L73.6521 83.6598Z" fill="black"/>
<path opacity="0.1" d="M79.1226 83.9951C79.1226 83.9951 84.131 81.3438 84.5515 79.2393C84.972 77.1348 79.1226 83.9951 79.1226 83.9951Z" fill="black"/>
<path opacity="0.1" d="M85.4771 58.4099L84.7822 60.0919L85.9391 60.6388L87.0762 63.8172C87.0762 63.8172 90.2112 70.0872 90.0848 73.3485C89.9585 76.6098 90.6534 81.5117 90.6534 81.5117L92.4617 81.1761L91.6089 71.5836C91.4761 70.0984 91.1041 68.6444 90.5073 67.2779C89.0622 63.9692 86.3734 57.8611 86.2036 57.8611C85.9727 57.8611 86.1345 57.946 86.1345 57.946L85.4771 58.4099Z" fill="black"/>
<path d="M85.6453 58.2401L84.9504 59.9241L86.1093 60.4709L87.2444 63.6493C87.2444 63.6493 90.3794 69.9193 90.2531 73.1806C90.1267 76.442 90.8216 81.3439 90.8216 81.3439L92.6319 81.0083L91.7771 71.4157C91.6459 69.9305 91.2745 68.4764 90.6775 67.1101C89.2324 63.7994 86.5436 57.6932 86.3758 57.6932C86.1428 57.6932 86.3047 57.7781 86.3047 57.7781L85.6453 58.2401Z" fill="#575989"/>
<path d="M106.139 82.9727C105.259 82.9056 103.146 81.8375 102.307 81.3934L101.952 81.1959L101.995 77.9366C102.203 77.8146 102.418 77.7058 102.639 77.6108C103.76 77.1213 106.06 76.456 107.213 78.5979C108.769 81.4704 107.255 83.0477 106.139 82.9727Z" fill="#FFD6D6"/>
<path opacity="0.1" d="M87.0349 43.0943C86.9445 43.151 86.845 43.1917 86.7408 43.2147C86.0083 43.3746 85.1752 42.7449 84.5475 43.1496C84.1645 43.3983 84.0756 43.9136 84.0243 44.3676C83.9348 45.1573 83.8453 45.9417 83.7558 46.7208C83.737 46.9982 83.6785 47.2715 83.5821 47.5322C83.2721 48.241 82.4213 48.5746 81.6454 48.5628C81.3415 48.5844 81.0414 48.485 80.8103 48.2864C80.6741 48.1482 80.6011 47.9547 80.451 47.8284C79.464 47.0012 79.1639 49.0287 79.4245 49.6051C79.843 50.5468 81.3296 51.4549 80.7057 52.6513C80.6008 52.8457 80.4417 53.0055 80.2477 53.1112C79.3076 52.8168 78.4494 52.3066 77.7416 51.6214C77.0338 50.9362 76.4961 50.095 76.1714 49.1649C75.8467 48.2348 75.744 47.2417 75.8715 46.2649C75.999 45.288 76.3532 44.3545 76.9058 43.539C77.4584 42.7234 78.1941 42.0484 79.054 41.5679C79.914 41.0873 80.8744 40.8145 81.8586 40.7713C82.8428 40.7281 83.8234 40.9157 84.7222 41.319C85.621 41.7224 86.413 42.3303 87.0349 43.0943Z" fill="black"/>
<path d="M80.2834 47.8205C80.4314 47.9449 80.5065 48.1383 80.6427 48.2765C80.8738 48.475 81.1739 48.5743 81.4778 48.5529C82.2536 48.5648 83.1045 48.2331 83.4124 47.5204C83.5106 47.2608 83.5699 46.988 83.5881 46.711L83.8566 44.3578C83.908 43.9037 83.9948 43.3885 84.3798 43.1397C85.0076 42.7449 85.8407 43.3648 86.5731 43.2049C86.8371 43.1378 87.0657 42.9727 87.2123 42.7431C87.359 42.5136 87.4128 42.2368 87.3628 41.9691C87.2779 41.592 86.9896 41.2939 86.8416 40.9346C86.7518 40.6585 86.6799 40.3769 86.6264 40.0916C86.2177 38.5597 84.4193 37.6989 82.8557 37.9556C81.9871 38.0997 81.1797 38.5142 80.309 38.6406C79.6852 38.7314 79.0476 38.6722 78.4178 38.7393C77.8327 38.7997 77.2638 38.9677 76.7397 39.2348C76.6022 39.2957 76.4806 39.3876 76.3844 39.5033C76.295 39.6596 76.2348 39.8308 76.2067 40.0087C75.9955 40.7984 75.3164 41.3807 74.8248 42.046C74.2626 42.8115 73.9372 43.7251 73.889 44.6737C73.8697 44.9159 73.8924 45.1597 73.9562 45.3942C73.9976 45.5324 74.0628 45.6667 74.0944 45.8088C74.1911 46.2412 73.97 46.6735 73.8614 47.1039C73.7265 47.6531 73.775 48.2313 73.9996 48.7503C74.7577 50.4935 77.255 51.0759 77.7742 52.906C78.2353 53.127 78.7332 53.2609 79.243 53.3008C79.7523 53.3107 80.3011 53.0916 80.5381 52.6395C81.1599 51.455 79.6753 50.535 79.2568 49.5953C78.9943 49.0169 79.2884 46.9914 80.2834 47.8205Z" fill="#353045"/>
<path opacity="0.1" d="M130.212 51.4945C129.897 52.3964 129.763 53.3518 129.817 54.3057C129.513 54.5643 129.182 53.7904 128.83 53.9898C127.867 54.5465 126.754 55.8712 125.561 55.8712C124.527 55.8719 123.508 55.6277 122.586 55.1585C122.299 54.05 121.902 52.9727 121.402 51.9426C121.402 51.9426 131.559 47.6231 130.212 51.4945Z" fill="black"/>
<path d="M132.119 48.9694C132.119 50.2681 131.734 51.5376 131.012 52.6174C130.291 53.6972 129.265 54.5388 128.066 55.0357C126.866 55.5327 125.546 55.6627 124.272 55.4094C122.998 55.156 121.828 54.5307 120.91 53.6124C119.992 52.6941 119.366 51.5241 119.113 50.2504C118.86 48.9767 118.99 47.6565 119.487 46.4567C119.984 45.2569 120.825 44.2314 121.905 43.5099C122.985 42.7884 124.254 42.4033 125.553 42.4033C126.415 42.4031 127.269 42.5727 128.066 42.9026C128.863 43.2325 129.587 43.7161 130.196 44.3259C130.806 44.9357 131.29 45.6596 131.62 46.4564C131.95 47.2531 132.119 48.1071 132.119 48.9694Z" fill="#D28690"/>
<path d="M131.839 59.7425C131.839 59.7425 130.603 61.0889 130.435 61.1994C130.267 61.31 126.684 76.4006 126.621 76.5763C126.558 76.752 122.355 90.3778 122.355 90.3778L115.621 93.6884L116.183 77.0225L121.119 63.2782C121.119 63.2782 122.748 61.4265 123.251 60.7533C123.754 60.0801 130.04 56.0389 130.04 56.0389L131.114 58.252L131.839 59.7425Z" fill="#F0F3F7"/>
<path opacity="0.1" d="M130.949 58.5896L123.206 64.1331L123.082 61.0889C123.587 60.4158 129.871 56.3766 129.871 56.3766L130.949 58.5896Z" fill="black"/>
<path d="M131.116 58.252L123.374 63.7955L123.253 60.7533C123.759 60.0781 130.042 56.0389 130.042 56.0389L131.116 58.252Z" fill="#F0F3F7"/>
<path d="M122.995 59.3989L123.254 60.7532L121.522 62.5122L122.904 59.4187C122.904 59.4187 119.943 61.4817 119.055 62.0285C118.166 62.5754 117.278 64.4272 117.244 64.9325C117.211 65.4379 115.813 73.0543 115.813 73.0543C115.813 73.0543 114.761 75.8734 115.057 76.673C115.353 77.4725 113.458 102.681 113.458 102.681C113.711 102.191 114.069 101.763 114.507 101.428C114.944 101.093 115.45 100.858 115.989 100.74L115.313 85.843C115.313 85.843 116.135 75.9326 116.176 75.8063C116.218 75.68 118.091 69.9351 118.091 69.9351L122.995 59.3989Z" fill="#585B8A"/>
<path opacity="0.1" d="M123.423 60.921L123.288 63.6849C123.288 63.6849 121.415 69.5975 120.785 70.5649C120.155 71.5322 118.238 77.2988 118.238 77.2988L117.159 87.3158L115.307 88.1587L114.395 86.4787L115.911 76.8053C115.911 76.8053 118.772 68.642 119.194 67.7991L121.304 63.3532L123.423 60.921Z" fill="black"/>
<path d="M123.253 60.7533L123.121 63.5171C123.121 63.5171 121.247 69.4298 120.616 70.3971C119.984 71.3645 118.071 77.1311 118.071 77.1311L116.997 87.1461L115.145 87.987L114.219 86.305L115.735 76.6316C115.735 76.6316 118.596 68.4664 119.016 67.6254L121.143 63.1855L123.253 60.7533Z" fill="#663D5C"/>
<path d="M101.427 81.8494L105.045 84.3546C105.045 84.3546 107.598 82.9233 106.111 81.9975C104.625 81.0716 103.306 80.9314 102.828 80.9314C102.351 80.9314 101.427 81.8494 101.427 81.8494Z" fill="#D28690"/>
<path d="M104.129 77.2179C104.049 77.2682 103.982 77.3383 103.936 77.4216C103.89 77.5049 103.866 77.5986 103.867 77.6937C103.867 78.4617 103.954 80.4951 104.597 79.5771C105.387 78.4538 105.243 77.445 106.449 78.1734C107.199 78.6403 107.855 79.2429 108.384 79.9502L108.048 77.5378C108.048 77.5378 105.568 76.3138 104.129 77.2179Z" fill="#D28690"/>
<path opacity="0.1" d="M132.188 106.678C132.007 106.963 131.847 107.585 131.714 108.386C124.335 110.599 118.936 105.92 118.936 105.92C118.282 103.707 117.749 101.459 117.337 99.1884C117.204 98.4106 117.234 96.9023 117.356 95.0624L130.55 92.7487C130.55 92.7487 133.031 105.374 132.188 106.678Z" fill="black"/>
<path d="M139.763 69.0133C139.427 70.109 139.554 72.3378 139.554 72.3378L136.523 86.6466C136.523 86.6466 135.051 97.6724 134.798 99.1451C134.545 100.618 134.125 107.099 134.125 107.099C125.539 111.308 118.924 105.585 118.924 105.585C118.271 103.371 117.737 101.123 117.325 98.851C116.902 96.3517 118.146 86.3387 118.734 81.8908C118.91 80.5741 119.028 79.7449 119.028 79.7449L121.237 71.5383C121.237 71.5383 123.952 64.6148 124.963 62.5952C125.973 60.5757 130.032 56.039 130.032 56.039C130.536 55.7192 131.341 56.8484 131.939 57.877C132.391 58.6548 132.729 59.3773 132.729 59.3773C132.729 59.3773 137.779 61.5647 138.535 62.7334C139.291 63.9021 139.167 66.3106 139.252 66.437C139.337 66.5633 140.101 67.9196 139.763 69.0133Z" fill="#585B8A"/>
<path opacity="0.1" d="M127.855 63.922C127.855 63.922 128.234 66.1529 127.263 66.8261C126.325 67.4775 119.344 81.204 118.91 82.0608C119.086 80.742 119.204 79.9129 119.204 79.9129L121.413 71.7082C121.413 71.7082 124.13 64.7848 125.138 62.7632C126.147 60.7416 130.21 56.207 130.21 56.207C130.713 55.8871 131.517 57.0164 132.115 58.0449C131.213 59.9184 129.332 63.4601 127.855 63.922Z" fill="black"/>
<path d="M127.687 63.7541C127.687 63.7541 128.064 65.9849 127.095 66.6581C126.126 67.3313 119.179 81.034 118.738 81.8908C118.914 80.574 119.032 79.7449 119.032 79.7449L121.242 71.5382C121.242 71.5382 123.956 64.6148 124.967 62.5952C125.978 60.5757 130.036 56.039 130.036 56.039C130.54 55.7192 131.345 56.8484 131.943 57.877C131.045 59.7485 129.162 63.2921 127.687 63.7541Z" fill="#585B8A"/>
<path d="M137.702 83.9123L135.327 96.2687V96.2706L135.1 97.4532V97.4551L134.589 100.114L132.407 99.6524L131.391 99.4372L117.321 96.4562L116.286 96.2371L113.925 95.7376L114.387 92.6697L114.579 91.3944L116.282 80.0824L137.702 83.9123Z" fill="#080B24"/>
<path d="M124.572 94.0123C124.572 94.0123 118.975 96.0319 120.195 98.4305C121.415 100.829 129.243 96.5787 129.243 96.5787L124.572 94.0123Z" fill="#D28690"/>
<path opacity="0.1" d="M128.57 111.223C128.57 111.391 128.781 113.539 129.622 114.295C130.463 115.051 128.57 111.223 128.57 111.223Z" fill="black"/>
<path opacity="0.1" d="M122.931 118.839C122.931 118.839 123.94 121.617 127.938 122.754C131.935 123.891 122.931 118.839 122.931 118.839Z" fill="black"/>
<path opacity="0.1" d="M132.119 48.9695C132.12 50.1238 131.816 51.2577 131.238 52.257C130.66 53.2563 129.829 54.0855 128.828 54.6611C128.451 54.45 128.117 54.1709 127.841 53.8378C127.555 53.4904 127.332 53.0166 127.504 52.602C127.642 52.2684 128.007 52.0571 128.096 51.7116C128.138 51.5004 128.127 51.282 128.064 51.0759C127.991 50.7502 127.922 50.4245 127.851 50.1007C127.79 49.8243 127.681 49.4986 127.407 49.4315C127.133 49.3643 126.904 49.5933 126.688 49.7631C126.161 50.1797 125.15 50.462 124.517 50.1204C123.883 49.7789 124.061 48.6359 123.958 48.0179C123.957 47.9643 123.944 47.9115 123.92 47.8634C123.896 47.8153 123.862 47.7731 123.82 47.7396C123.728 47.709 123.629 47.7022 123.534 47.7198C123.192 47.7198 122.918 47.4139 122.819 47.0861C122.749 46.7516 122.711 46.4112 122.704 46.0694C122.667 45.7279 122.543 45.3666 122.25 45.1909C122.017 45.0823 121.758 45.0399 121.502 45.0685L120.264 45.0823C121.086 43.9722 122.236 43.1492 123.552 42.7303C124.867 42.3114 126.282 42.318 127.594 42.7492C128.905 43.1803 130.048 44.0141 130.859 45.1319C131.669 46.2496 132.107 47.5946 132.109 48.9754L132.119 48.9695Z" fill="black"/>
<path d="M126.864 49.7631C127.079 49.5933 127.316 49.3682 127.582 49.4334C127.849 49.4985 127.963 49.8282 128.025 50.1006L128.238 51.0739C128.301 51.2805 128.312 51.4995 128.271 51.7116C128.171 52.059 127.807 52.2683 127.667 52.6019C127.496 53.0165 127.721 53.4903 128.005 53.8358C128.523 54.4607 129.24 54.8892 130.036 55.0499C130.244 55.0998 130.46 55.1045 130.67 55.0637C131.14 54.9551 131.46 54.5228 131.712 54.1181C133.017 52.0847 134.141 49.8559 134.37 47.4513C134.432 46.9609 134.41 46.4632 134.302 45.9805C134.195 45.6054 134.044 45.2442 133.852 44.9046C133.516 44.2108 133.089 43.5649 132.583 42.9837C131.685 42.0164 130.445 41.4222 129.172 41.0708C127.739 40.6733 126.244 40.556 124.767 40.7253C124.372 40.7707 123.993 40.8358 123.604 40.8615C123.116 40.8842 122.627 40.8763 122.14 40.8378L119.234 40.6641C119.068 41.0017 119.234 41.4024 119.431 41.7183C119.628 42.0342 119.873 42.3619 119.857 42.737C119.842 43.1121 119.575 43.4082 119.37 43.7241C119.165 44.0399 119.009 44.4486 119.214 44.7566C119.419 45.0645 119.838 45.0843 120.201 45.0803L121.666 45.0645C121.921 45.0383 122.178 45.0827 122.41 45.1928C122.702 45.3685 122.827 45.7318 122.864 46.0713C122.872 46.413 122.911 46.7532 122.979 47.0881C123.079 47.4158 123.352 47.7257 123.693 47.7218C123.789 47.7027 123.888 47.7102 123.98 47.7435C124.021 47.7766 124.056 47.8185 124.079 47.8662C124.103 47.914 124.116 47.9665 124.118 48.0199C124.22 48.6378 124.031 49.7789 124.676 50.1224C125.322 50.4659 126.337 50.1796 126.864 49.7631Z" fill="#663D5C"/>
<path opacity="0.1" d="M135.208 62.7315C134.483 62.6544 133.752 62.8264 133.137 63.2192C132.522 63.612 132.058 64.2023 131.823 64.8932C131.033 67.1418 129.716 71.1988 130.046 72.8018C130.51 75.0741 131.057 78.8625 131.057 78.8625C131.057 78.8625 133.455 80.2444 132.241 81.6382C131.027 83.032 130.684 85.0061 130.684 85.0061C130.684 85.0061 129.126 85.6793 128.79 87.1106C128.455 88.5419 126.181 90.518 126.181 90.518L122.773 93.9274C122.773 93.9274 128.411 99.6526 129.549 99.9447L133.041 95.8621L137.165 90.3917L140.742 86.6408C140.742 86.6408 141.583 84.6666 141.163 80.9156C140.742 77.1647 139.1 73.5934 139.1 73.5934L139.226 72.33C139.226 72.33 139.613 63.2784 135.208 62.7315Z" fill="black"/>
<path d="M135.544 62.7313C134.819 62.6552 134.09 62.8276 133.475 63.2204C132.861 63.6131 132.398 64.2029 132.163 64.8931C131.373 67.1417 130.056 71.1986 130.386 72.8016C130.848 75.0739 131.395 78.8623 131.395 78.8623C131.395 78.8623 133.793 80.2443 132.579 81.638C131.365 83.0318 131.024 85.006 131.024 85.006C131.024 85.006 129.466 85.6792 129.128 87.1105C128.791 88.5417 126.52 90.5179 126.52 90.5179L123.111 93.9273C123.111 93.9273 128.749 99.6524 129.886 99.9446L133.379 95.862L137.493 90.3915L141.07 86.6406C141.07 86.6406 141.913 84.6664 141.491 80.9155C141.068 77.1646 139.43 73.5933 139.43 73.5933L139.556 72.3298C139.556 72.3298 139.949 63.2782 135.544 62.7313Z" fill="#585B8A"/>
<path opacity="0.1" d="M132.021 75.5378C132.021 75.5378 135.598 79.9126 137.114 78.9453C138.63 77.9779 132.021 75.5378 132.021 75.5378Z" fill="black"/>
<path opacity="0.1" d="M133.367 72.1699C133.746 72.2963 136.861 76.6316 138.46 76.1183C140.059 75.605 133.367 72.1699 133.367 72.1699Z" fill="black"/>
<path opacity="0.1" d="M134.251 79.6165C134.251 79.6165 134.463 82.1 137.029 81.7624C139.596 81.4248 134.251 79.6165 134.251 79.6165Z" fill="black"/>
<path opacity="0.1" d="M122.91 59.5864L121.522 62.68L123.255 60.921L122.91 59.5864Z" fill="black"/>
<path d="M122.91 59.4187L121.522 62.5122L123.255 60.7532L122.91 59.4187Z" fill="#F0F3F7"/>
<path opacity="0.3" d="M117.321 96.4563L116.286 96.2372L114.387 92.6699L114.579 91.3945L117.321 96.4563Z" fill="black"/>
<path opacity="0.3" d="M135.327 96.2708L135.1 97.4533V97.4553L132.407 99.6525L131.39 99.4373L135.327 96.2708Z" fill="black"/>
<path opacity="0.1" d="M92.9 82.4653C92.3789 82.5521 91.8735 82.6311 91.4115 82.6903C88.8451 83.0279 82.741 79.9975 82.741 79.9975C82.741 79.9975 75.2924 73.769 73.1465 67.8781C71.0006 61.9871 75.7129 61.1027 75.7129 61.1027C77.4897 60.0919 81.3531 62.9111 81.9 63.375C82.4468 63.8389 82.9107 65.0155 82.8673 65.7736C82.8239 66.5317 84.1308 67.499 84.1308 67.499C84.1308 67.499 86.3616 71.3704 86.9084 71.7909C87.4553 72.2114 87.5816 72.5904 87.7494 73.3071C87.9172 74.0237 89.39 74.612 90.0217 74.5686C90.6534 74.5251 91.4036 74.7798 91.4036 75.1154C91.4036 75.3859 92.0215 75.5201 92.5289 75.5635C92.6789 77.7213 92.827 80.5483 92.9 82.4653Z" fill="black"/>
<path opacity="0.1" d="M92.8764 81.8493C92.4816 81.9125 92.1025 81.9697 91.7472 82.0171C89.1808 82.3547 83.0786 79.3243 83.0786 79.3243C83.0786 79.3243 75.6301 73.0958 73.4842 67.2049C71.3382 61.3139 76.0506 60.4295 76.0506 60.4295C77.8273 59.4187 81.6888 62.2378 82.2356 62.7018C82.7825 63.1657 83.2464 64.3423 83.205 65.1004C83.1635 65.8585 84.4665 66.8258 84.4665 66.8258C84.4665 66.8258 86.6973 70.6972 87.2441 71.1177C87.791 71.5382 87.9173 71.9172 88.0871 72.6338C88.2569 73.3505 89.7276 73.9368 90.3594 73.8953C90.9911 73.8539 91.7413 74.1066 91.7413 74.4422C91.7413 74.6396 92.0927 74.7719 92.4836 74.837C92.4994 75.066 92.5132 75.3088 92.5309 75.5615C92.6612 77.5022 92.7955 79.9778 92.8764 81.8493Z" fill="black"/>
<path opacity="0.1" d="M102.639 77.6107L102.479 81.3932H102.307L101.952 81.1958L101.995 77.9365C102.203 77.8145 102.418 77.7057 102.639 77.6107Z" fill="black"/>
<path d="M75.7129 60.7651C75.7129 60.7651 71.0006 61.6496 73.1465 67.5405C75.2924 73.4315 82.741 79.662 82.741 79.662C82.741 79.662 88.8431 82.6904 91.4115 82.3547C93.9799 82.0191 97.8907 81.1347 98.3961 81.261C98.9015 81.3874 102.311 81.3874 102.311 81.3874L102.479 77.439L98.5304 77.2278L96.5108 76.8073C96.5108 76.8073 95.7942 76.2151 95.3737 76.3019C94.9532 76.3888 94.0707 75.7965 94.0707 75.7965C94.0707 75.7965 93.3956 75.2497 92.8862 75.2497C92.3769 75.2497 91.4135 75.1233 91.4135 74.7877C91.4135 74.4521 90.6554 74.1955 90.0316 74.2409C89.4077 74.2863 87.9172 73.694 87.7435 72.9695C87.5698 72.245 87.4494 71.8758 86.9025 71.4553C86.3557 71.0348 84.1249 67.1615 84.1249 67.1615C84.1249 67.1615 82.8199 66.1941 82.8614 65.438C82.9028 64.6819 82.4409 63.5014 81.894 63.0374C81.3472 62.5735 77.4778 59.7563 75.7129 60.7651Z" fill="#DCE6F2"/>
<path opacity="0.1" d="M87.8347 74.3158C87.8347 74.3158 86.0244 76.1261 86.4863 76.4617L87.8347 74.3158Z" fill="black"/>
<path opacity="0.1" d="M89.7693 75.7472C89.7693 75.7472 87.4121 77.5575 88.0438 77.6838C88.6756 77.8102 89.7693 75.7472 89.7693 75.7472Z" fill="black"/>
<path opacity="0.1" d="M85.7695 78.4319C86.1071 78.6017 91.1136 81.5906 93.0088 81.5471L85.7695 78.4319Z" fill="black"/>
<path opacity="0.1" d="M86.1091 58.4515C86.1091 58.4515 85.2247 61.3555 84.8871 61.3555C84.6225 61.3555 80.1806 57.7586 78.3269 56.2464L78.4078 56.1793C78.4078 56.1793 78.5757 54.8743 79.2488 54.2051C79.922 53.5358 86.1091 58.4515 86.1091 58.4515Z" fill="black"/>
<path d="M85.9394 58.1138C85.9394 58.1138 85.0569 61.0178 84.7193 61.0178C84.4528 61.0178 80.011 57.4208 78.1572 55.9086L78.2382 55.8415C78.2382 55.8415 78.4079 54.5366 79.0811 53.8673C79.7543 53.1981 85.9394 58.1138 85.9394 58.1138Z" fill="#DCE6F2"/>
<g opacity="0.15">
<path opacity="0.15" d="M74.0212 48.7286C74.6135 50.081 76.2442 50.7364 77.1898 51.8143C76.6272 50.4896 74.9827 49.8401 74.0212 48.7286Z" fill="black"/>
<path opacity="0.15" d="M80.0565 51.8437C79.8215 52.2958 79.2668 52.5149 78.7614 52.5051C78.3121 52.4728 77.8722 52.3605 77.4624 52.1734C77.6111 52.3925 77.7243 52.6337 77.798 52.8881C78.2589 53.1095 78.757 53.2434 79.2668 53.2829C79.7781 53.2947 80.3269 53.0756 80.5619 52.6215C80.9389 51.901 80.5461 51.285 80.0861 50.7026C80.1718 50.8816 80.2138 51.0784 80.2087 51.2767C80.2035 51.4751 80.1514 51.6694 80.0565 51.8437Z" fill="black"/>
<path opacity="0.15" d="M87.3822 41.9492C87.2973 41.5702 87.0091 41.2721 86.861 40.9147C86.7704 40.6383 86.6985 40.356 86.6459 40.0698C86.5337 39.6651 86.3258 39.2934 86.0398 38.986C86.0795 39.0831 86.1132 39.1827 86.1405 39.2841C86.1958 39.5715 86.2696 39.8551 86.3616 40.133C86.5096 40.4903 86.7979 40.7884 86.8828 41.1674C86.9328 41.4352 86.879 41.712 86.7323 41.9415C86.5857 42.1711 86.3571 42.3362 86.0931 42.4033C85.3626 42.5632 84.5295 41.9314 83.9018 42.3381C83.5168 42.5849 83.428 43.1001 83.3766 43.5542C83.2885 44.3439 83.199 45.1289 83.1081 45.9094C83.0903 46.1863 83.0318 46.459 82.9344 46.7188C82.6245 47.4295 81.7736 47.7631 80.9978 47.7513C80.6946 47.7715 80.3956 47.6723 80.1647 47.4749C80.0524 47.316 79.9318 47.1631 79.8034 47.0169C78.8163 46.1878 78.5162 48.2152 78.7768 48.7937C78.9073 49.0539 79.0691 49.2972 79.2585 49.5182C79.0414 48.8667 79.3454 46.9912 80.3088 47.7947C80.4372 47.9404 80.5571 48.0934 80.6681 48.2527C80.8999 48.4499 81.1994 48.5491 81.5031 48.5291C82.279 48.541 83.1299 48.2073 83.4398 47.4966C83.5374 47.2362 83.5959 46.9628 83.6135 46.6852C83.703 45.8956 83.7925 45.1112 83.882 44.332C83.9333 43.878 84.0222 43.3627 84.4052 43.1159C85.0349 42.7093 85.868 43.341 86.5985 43.1791C86.8604 43.1112 87.0869 42.9466 87.2323 42.7184C87.3778 42.4902 87.4313 42.2153 87.3822 41.9492Z" fill="black"/>
</g>
<path opacity="0.1" d="M131.091 54.5604C130.881 54.5995 130.665 54.5942 130.457 54.5446C129.662 54.384 128.946 53.9563 128.428 53.3325C128.141 52.985 127.916 52.5112 128.09 52.0966C128.228 51.763 128.591 51.5537 128.682 51.2063C128.723 50.9942 128.712 50.7752 128.649 50.5686L128.435 49.5953C128.374 49.319 128.268 48.9932 127.993 48.9281C127.719 48.8629 127.49 49.088 127.275 49.2578C126.748 49.6743 125.735 49.9586 125.103 49.6151C124.471 49.2716 124.647 48.1305 124.544 47.5126C124.543 47.4593 124.529 47.4069 124.506 47.3592C124.482 47.3115 124.448 47.2695 124.406 47.2362C124.314 47.204 124.214 47.1965 124.118 47.2145C123.776 47.2145 123.504 46.9085 123.403 46.5808C123.335 46.246 123.297 45.9057 123.291 45.5641C123.251 45.2245 123.129 44.8613 122.835 44.6856C122.603 44.5764 122.346 44.532 122.09 44.5572L120.626 44.573C120.264 44.573 119.836 44.5493 119.639 44.2493C119.441 43.9492 119.587 43.5228 119.794 43.2168C120.002 42.9108 120.264 42.6067 120.282 42.2297C120.3 41.8526 120.055 41.5269 119.856 41.211C119.741 41.0383 119.657 40.8473 119.607 40.6464L119.186 40.6207C119.023 40.9563 119.186 41.3571 119.384 41.6749C119.581 41.9928 119.828 42.3185 119.81 42.6916C119.793 43.0648 119.53 43.3648 119.323 43.6787C119.115 43.9926 118.963 44.4033 119.169 44.7112C119.374 45.0192 119.791 45.0409 120.156 45.037L121.621 45.0192C121.876 44.9945 122.133 45.0395 122.365 45.1495C122.659 45.3252 122.783 45.6884 122.821 46.028C122.827 46.3697 122.865 46.7101 122.935 47.0447C123.034 47.3704 123.309 47.6824 123.65 47.6764C123.746 47.6595 123.844 47.667 123.936 47.6982C123.978 47.7318 124.012 47.7741 124.036 47.8222C124.06 47.8702 124.073 47.9229 124.075 47.9765C124.177 48.5925 123.988 49.7355 124.633 50.079C125.279 50.4225 126.286 50.1382 126.805 49.7217C127.02 49.5519 127.259 49.3269 127.525 49.39C127.792 49.4532 127.906 49.7849 127.966 50.0573L128.181 51.0325C128.243 51.2393 128.254 51.4583 128.212 51.6702C128.114 52.0157 127.748 52.2269 127.61 52.5586C127.438 52.9732 127.662 53.4489 127.948 53.7944C128.47 54.4209 129.191 54.8489 129.991 55.0066C130.199 55.0561 130.415 55.0615 130.625 55.0224C130.964 54.9189 131.255 54.6977 131.446 54.3985C131.338 54.4733 131.218 54.5281 131.091 54.5604Z" fill="black"/>
<path opacity="0.1" d="M40.5218 141.748C43.1571 141.748 45.2934 141.42 45.2934 141.015C45.2934 140.611 43.1571 140.283 40.5218 140.283C37.8865 140.283 35.7502 140.611 35.7502 141.015C35.7502 141.42 37.8865 141.748 40.5218 141.748Z" fill="#080B24"/>
<path opacity="0.1" d="M207.125 122.705C209.76 122.705 211.897 122.377 211.897 121.973C211.897 121.568 209.76 121.24 207.125 121.24C204.49 121.24 202.354 121.568 202.354 121.973C202.354 122.377 204.49 122.705 207.125 122.705Z" fill="#080B24"/>
<path opacity="0.1" d="M158.48 153.607C166.112 153.607 172.299 152.657 172.299 151.486C172.299 150.315 166.112 149.366 158.48 149.366C150.848 149.366 144.661 150.315 144.661 151.486C144.661 152.657 150.848 153.607 158.48 153.607Z" fill="#080B24"/>
<path opacity="0.1" d="M197.764 144.158C203.717 144.158 208.543 143.418 208.543 142.504C208.543 141.59 203.717 140.85 197.764 140.85C191.811 140.85 186.985 141.59 186.985 142.504C186.985 143.418 191.811 144.158 197.764 144.158Z" fill="#080B24"/>
<path opacity="0.1" d="M195.989 161.794C206.084 161.794 214.268 160.538 214.268 158.988C214.268 157.439 206.084 156.183 195.989 156.183C185.894 156.183 177.71 157.439 177.71 158.988C177.71 160.538 185.894 161.794 195.989 161.794Z" fill="#080B24"/>
<path opacity="0.1" d="M20.099 163.576C27.7311 163.576 33.9182 162.627 33.9182 161.456C33.9182 160.285 27.7311 159.336 20.099 159.336C12.4668 159.336 6.27979 160.285 6.27979 161.456C6.27979 162.627 12.4668 163.576 20.099 163.576Z" fill="#080B24"/>
<path d="M40.7386 117.689C40.7386 117.689 41.2795 118.395 40.4898 119.465C39.7002 120.535 39.0487 121.44 39.3053 122.099C39.3053 122.099 40.4898 120.125 41.4769 120.089C42.464 120.054 41.8066 118.881 40.7386 117.689Z" fill="#080B24"/>
<path opacity="0.1" d="M40.7387 117.689C40.7869 117.756 40.8242 117.831 40.8492 117.91C41.7968 119.023 42.3002 120.06 41.3901 120.081C40.5432 120.105 39.5265 121.621 39.2837 122.004C39.2911 122.034 39.3003 122.063 39.3113 122.091C39.3113 122.091 40.4958 120.117 41.4829 120.081C42.47 120.046 41.8067 118.881 40.7387 117.689Z" fill="black"/>
<path d="M41.7462 118.589C41.7462 118.839 41.7164 119.041 41.6828 119.041C41.6491 119.041 41.6194 118.843 41.6194 118.589C41.6194 118.336 41.655 118.459 41.6887 118.459C41.7224 118.459 41.7462 118.34 41.7462 118.589Z" fill="#FFD037"/>
<path d="M42.0902 118.887C41.8724 119.006 41.6802 119.086 41.6644 119.048C41.6486 119.01 41.811 118.897 42.0308 118.777C42.2507 118.656 42.1635 118.745 42.1794 118.777C42.1952 118.808 42.3101 118.767 42.0902 118.887Z" fill="#FFD037"/>
<path d="M37.884 117.689C37.884 117.689 37.343 118.395 38.1327 119.465C38.9224 120.535 39.5758 121.44 39.3172 122.099C39.3172 122.099 38.1327 120.125 37.1555 120.089C36.1783 120.054 36.81 118.881 37.884 117.689Z" fill="#080B24"/>
<path opacity="0.1" d="M37.8843 117.689C37.8371 117.757 37.7999 117.831 37.7738 117.91C36.8262 119.023 36.3228 120.06 37.2329 120.081C38.0798 120.105 39.0965 121.621 39.3413 122.004C39.3332 122.034 39.3233 122.063 39.3117 122.091C39.3117 122.091 38.1272 120.117 37.1499 120.081C36.1727 120.046 36.8104 118.881 37.8843 117.689Z" fill="black"/>
<path d="M36.8794 118.589C36.8794 118.839 36.9071 119.041 36.9408 119.041C36.9745 119.041 37.0042 118.843 37.0042 118.589C37.0042 118.336 36.9685 118.459 36.9349 118.459C36.9012 118.459 36.8794 118.34 36.8794 118.589Z" fill="#FFD037"/>
<path d="M36.5343 118.887C36.7542 119.006 36.9443 119.086 36.9622 119.048C36.98 119.01 36.8136 118.897 36.5937 118.777C36.3739 118.656 36.461 118.745 36.4452 118.777C36.4294 118.808 36.3145 118.767 36.5343 118.887Z" fill="#FFD037"/>
<path opacity="0.1" d="M39.3115 127.504C42.433 127.504 44.9635 127.116 44.9635 126.637C44.9635 126.159 42.433 125.771 39.3115 125.771C36.1899 125.771 33.6594 126.159 33.6594 126.637C33.6594 127.116 36.1899 127.504 39.3115 127.504Z" fill="#080B24"/>
<path d="M42.2212 121.143L42.1935 121.364L42.156 121.676L42.1402 121.807L42.1027 122.119L42.085 122.249L42.0475 122.561L41.6151 126.114C41.5776 126.43 41.0604 126.677 40.4306 126.677H38.1919C37.5681 126.677 37.0508 126.43 37.0074 126.114L36.5751 122.561L36.5375 122.249L36.5218 122.119L36.4823 121.807L36.4665 121.676L36.429 121.364L36.4013 121.143C36.3796 120.964 36.6599 120.814 37.0133 120.814H41.6112C41.9626 120.814 42.2429 120.964 42.2212 121.143Z" fill="#65617D"/>
<path d="M42.1935 121.365L42.156 121.676H36.4665L36.429 121.365H42.1935Z" fill="#9D9CB5"/>
<path d="M42.1404 121.807L42.1029 122.119H36.5219L36.4824 121.807H42.1404Z" fill="#9D9CB5"/>
<path d="M42.0872 122.249L42.0478 122.561H36.5754L36.5378 122.249H42.0872Z" fill="#9D9CB5"/>
<path d="M203.365 114.954C203.365 114.954 202.69 118.097 205.692 118.468L205.878 118.119C205.878 118.119 203.55 115.93 203.365 114.954Z" fill="#080B24"/>
<path d="M206.833 118.093L206.134 118.241L206.065 118.257C206.065 118.257 204.202 116.745 204.225 113.369C204.474 113.867 204.773 114.338 205.116 114.777C205.854 115.754 206.693 117.057 206.833 118.093Z" fill="#080B24"/>
<path d="M207.069 118.417C207.014 118.453 206.952 118.476 206.887 118.484C206.822 118.493 206.756 118.487 206.694 118.466C204.901 118.048 205.509 112.206 205.509 112.206C205.608 112.252 205.706 112.996 206.129 113.955C206.849 115.639 207.645 117.994 207.069 118.417Z" fill="#080B24"/>
<path d="M211.044 114.954C211.044 114.954 211.16 118.097 208.158 118.468L207.97 118.113C207.97 118.113 210.858 115.93 211.044 114.954Z" fill="#080B24"/>
<path d="M210.183 113.375C210.207 116.751 207.786 118.263 207.786 118.263L207.715 118.247L207.019 118.099C207.157 117.063 208.006 115.76 208.734 114.783C209.152 114.251 209.64 113.778 210.183 113.375Z" fill="#080B24"/>
<path d="M207.707 118.113C207.6 118.244 207.465 118.349 207.312 118.419C207.264 118.44 207.215 118.457 207.164 118.468C206.723 118.571 206.571 118.253 206.595 117.712C206.637 116.751 207.241 115.083 207.78 113.833C208.039 113.22 208.422 112.667 208.905 112.208C208.905 112.208 208.877 116.755 207.707 118.113Z" fill="#080B24"/>
<path d="M207.205 110.157C207.205 110.157 205.203 117.264 206.926 118.326C208.65 119.388 207.647 110.785 207.205 110.157Z" fill="#080B24"/>
<path opacity="0.1" d="M203.365 114.954C203.365 114.954 202.69 118.097 205.692 118.468L205.878 118.119C205.878 118.119 203.55 115.93 203.365 114.954Z" fill="black"/>
<path opacity="0.1" d="M206.833 118.093L206.134 118.241L206.065 118.257C206.065 118.257 204.202 116.745 204.225 113.369C204.474 113.867 204.773 114.338 205.116 114.777C205.854 115.754 206.693 117.057 206.833 118.093Z" fill="black"/>
<path opacity="0.1" d="M207.069 118.417C207.014 118.453 206.952 118.476 206.887 118.484C206.822 118.493 206.756 118.487 206.694 118.466C204.901 118.048 205.509 112.206 205.509 112.206C205.608 112.252 205.706 112.996 206.129 113.955C206.849 115.639 207.645 117.994 207.069 118.417Z" fill="black"/>
<path opacity="0.1" d="M211.044 114.954C211.044 114.954 211.16 118.097 208.158 118.468L207.97 118.113C207.97 118.113 210.858 115.93 211.044 114.954Z" fill="black"/>
<path opacity="0.1" d="M210.183 113.375C210.207 116.751 207.786 118.263 207.786 118.263L207.715 118.247L207.019 118.099C207.157 117.063 208.006 115.76 208.734 114.783C209.152 114.251 209.64 113.778 210.183 113.375Z" fill="black"/>
<path opacity="0.1" d="M207.707 118.113C207.6 118.244 207.465 118.349 207.312 118.419C207.264 118.44 207.215 118.457 207.164 118.468C206.723 118.571 206.571 118.253 206.595 117.712C206.637 116.751 207.241 115.083 207.78 113.833C208.039 113.22 208.422 112.667 208.905 112.208C208.905 112.208 208.877 116.755 207.707 118.113Z" fill="black"/>
<path opacity="0.1" d="M207.205 110.157C207.205 110.157 205.203 117.264 206.926 118.326C208.65 119.388 207.647 110.785 207.205 110.157Z" fill="black"/>
<path d="M203.365 114.954C203.365 114.954 202.97 118.097 205.971 118.468L206.156 118.119C206.156 118.119 203.55 115.93 203.365 114.954Z" fill="#080B24"/>
<path d="M207.112 118.093L206.413 118.241L206.344 118.257C206.344 118.257 204.202 116.745 204.22 113.375C204.22 113.375 204.769 113.967 205.389 114.783C206.133 115.754 206.972 117.057 207.112 118.093Z" fill="#080B24"/>
<path opacity="0.1" d="M207.112 118.093L206.413 118.241C205.752 117.661 205.489 116.145 205.395 114.777C206.133 115.754 206.972 117.057 207.112 118.093Z" fill="black"/>
<path d="M207.349 118.417C207.294 118.453 207.231 118.476 207.166 118.484C207.101 118.493 207.034 118.487 206.972 118.466C205.179 118.048 205.507 112.206 205.507 112.206C205.606 112.252 205.993 112.996 206.405 113.955C207.13 115.639 207.923 117.994 207.349 118.417Z" fill="#080B24"/>
<path d="M211.044 114.954C211.044 114.954 211.439 118.097 208.438 118.468L208.253 118.119C208.253 118.119 210.859 115.93 211.044 114.954Z" fill="#080B24"/>
<path d="M210.184 113.375C210.208 116.751 208.066 118.263 208.066 118.263L207.997 118.247L207.298 118.099C207.436 117.063 208.285 115.76 209.015 114.783C209.635 113.967 210.184 113.375 210.184 113.375Z" fill="#080B24"/>
<path opacity="0.1" d="M209.015 114.777C208.925 116.052 208.692 117.456 208.125 118.111C208.086 118.158 208.043 118.202 207.997 118.241L207.298 118.093C207.436 117.057 208.277 115.754 209.015 114.777Z" fill="black"/>
<path d="M207.985 118.113C207.879 118.245 207.744 118.35 207.59 118.419C207.543 118.44 207.494 118.457 207.444 118.468C207.001 118.571 206.851 118.253 206.873 117.712C206.917 116.751 207.521 115.083 208.058 113.833C208.452 112.935 208.81 112.254 208.905 112.208C208.905 112.206 209.155 116.755 207.985 118.113Z" fill="#080B24"/>
<path opacity="0.1" d="M207.349 118.417C207.247 118.418 207.147 118.386 207.064 118.326C206.221 117.801 206.204 115.831 206.405 113.955C207.129 115.639 207.923 117.994 207.349 118.417Z" fill="black"/>
<path opacity="0.1" d="M207.985 118.113C207.888 118.324 207.758 118.435 207.59 118.419C207.504 118.409 207.422 118.377 207.351 118.328C207.132 118.178 206.965 117.962 206.874 117.712C206.917 116.751 207.521 115.083 208.058 113.833C208.252 115.564 208.317 117.4 207.985 118.113Z" fill="black"/>
<path d="M207.205 110.157C207.205 110.157 205.483 117.264 207.205 118.326C208.926 119.388 207.647 110.785 207.205 110.157Z" fill="#080B24"/>
<path d="M210.509 117.979H203.341V119.165H204.435L204.462 119.305L204.9 121.609H209.068L209.506 119.305L209.532 119.165H210.509V117.979Z" fill="#4B4770"/>
<path opacity="0.1" d="M210.509 117.979H203.341V119.165H204.435L204.462 119.305L204.9 121.609H209.068L209.506 119.305L209.532 119.165H210.509V117.979Z" fill="black"/>
<path d="M209.905 118.676L209.785 119.306L209.346 121.609H205.179L204.741 119.306L204.62 118.676H209.905Z" fill="#4B4770"/>
<path opacity="0.1" d="M209.905 118.676L209.785 119.306H204.741L204.62 118.676H209.905Z" fill="black"/>
<path d="M210.788 117.979H203.62V119.165H210.788V117.979Z" fill="#4B4770"/>
<path d="M27.8275 138.281C27.6386 138.542 27.487 138.828 27.3774 139.13C27.3498 139.203 27.3221 139.288 27.2945 139.369C27.2444 139.346 27.1922 139.327 27.1385 139.314C26.9084 139.256 26.6704 139.236 26.4338 139.254C26.4338 139.162 26.4456 139.057 26.4476 138.964C26.4772 137.924 26.3548 136.475 25.3618 137.089C24.4102 137.681 25.0894 138.668 25.7033 139.3C25.7566 139.355 25.8099 139.407 25.8613 139.456C25.3006 139.851 25.194 140.784 25.1012 141.754C25.0084 142.723 24.1852 143.783 23.6383 144.385C23.5831 144.447 23.5337 144.502 23.4844 144.553C23.2633 144.377 23.0074 144.249 22.7335 144.179C22.4596 144.108 22.1739 144.097 21.8952 144.145C21.8734 144.06 21.8478 143.971 21.8221 143.878C21.3799 142.281 20.4619 139.515 19.2912 138.909L19.4452 138.712C19.9427 138.062 20.5034 137.095 19.6762 136.848C18.849 136.601 18.774 137.685 18.8194 138.498C18.8273 138.601 18.8352 138.698 18.8431 138.789C18.6777 138.796 18.5157 138.838 18.3669 138.91C18.2182 138.983 18.086 139.085 17.9784 139.211L17.8501 139.059C17.1789 138.269 15.949 137.012 15.5758 137.961C15.2284 138.846 16.3122 139.995 17.0742 140.66L17.1216 140.702C16.6103 142.776 18.8431 144.468 20.0454 145.209L20.2013 145.303C18.543 147.258 17.5184 150.922 17.5184 150.922L22.1617 151.751C22.1617 151.751 25.2414 149.094 24.8465 146.598H24.8781C27.9558 145.982 28.6547 142.701 28.175 140.753L28.2303 140.731C28.791 140.502 29.2823 140.13 29.6556 139.653C30.5163 138.459 28.7159 137.109 27.8275 138.281Z" fill="#080B24"/>
<path opacity="0.1" d="M27.8275 138.281C27.6386 138.542 27.487 138.828 27.3774 139.13C27.3498 139.203 27.3221 139.288 27.2945 139.369C27.2444 139.346 27.1922 139.327 27.1385 139.314C26.9084 139.256 26.6704 139.236 26.4338 139.254C26.4338 139.162 26.4456 139.057 26.4476 138.964C26.4772 137.924 26.3548 136.475 25.3618 137.089C24.4102 137.681 25.0894 138.668 25.7033 139.3C25.7566 139.355 25.8099 139.407 25.8613 139.456C25.3006 139.851 25.194 140.784 25.1012 141.754C25.0084 142.723 24.1852 143.783 23.6383 144.385C23.5831 144.447 23.5337 144.502 23.4844 144.553C23.2633 144.377 23.0074 144.249 22.7335 144.179C22.4596 144.108 22.1739 144.097 21.8952 144.145C21.8734 144.06 21.8478 143.971 21.8221 143.878C21.3799 142.281 20.4619 139.515 19.2912 138.909L19.4452 138.712C19.9427 138.062 20.5034 137.095 19.6762 136.848C18.849 136.601 18.774 137.685 18.8194 138.498C18.8273 138.601 18.8352 138.698 18.8431 138.789C18.6777 138.796 18.5157 138.838 18.3669 138.91C18.2182 138.983 18.086 139.085 17.9784 139.211L17.8501 139.059C17.1789 138.269 15.949 137.012 15.5758 137.961C15.2284 138.846 16.3122 139.995 17.0742 140.66L17.1216 140.702C16.6103 142.776 18.8431 144.468 20.0454 145.209L20.2013 145.303C18.543 147.258 17.5184 150.922 17.5184 150.922L22.1617 151.751C22.1617 151.751 25.2414 149.094 24.8465 146.598H24.8781C27.9558 145.982 28.6547 142.701 28.175 140.753L28.2303 140.731C28.791 140.502 29.2823 140.13 29.6556 139.653C30.5163 138.459 28.7159 137.109 27.8275 138.281Z" fill="black"/>
<path d="M18.5849 139.631L18.042 141.211C18.042 141.211 17.7399 140.998 17.3589 140.662C16.5969 139.997 15.5131 138.848 15.8605 137.963C16.2336 137.014 17.4635 138.267 18.1348 139.061C18.4052 139.377 18.5849 139.631 18.5849 139.631Z" fill="#080B24"/>
<path d="M19.7297 138.714C19.5648 138.931 19.3882 139.139 19.2007 139.338C19.1543 139.06 19.122 138.781 19.1039 138.501C19.0585 137.687 19.1454 136.607 19.9607 136.85C20.7761 137.093 20.2272 138.064 19.7297 138.714Z" fill="#080B24"/>
<path d="M26.7419 138.964C26.7261 139.487 26.6748 139.906 26.6748 139.906C26.436 139.719 26.2098 139.517 25.9977 139.3C25.3837 138.662 24.7046 137.679 25.6561 137.089C26.6393 136.473 26.7617 137.924 26.7419 138.964Z" fill="#080B24"/>
<path d="M29.9402 139.649C29.5669 140.126 29.0756 140.498 28.5148 140.727C28.3592 140.794 28.1996 140.852 28.0371 140.901L27.3975 140.002C27.4646 139.706 27.553 139.414 27.662 139.13C27.7716 138.827 27.9231 138.542 28.1121 138.281C28.9965 137.108 30.8009 138.459 29.9402 139.649Z" fill="#080B24"/>
<path opacity="0.1" d="M18.1345 139.061C18.405 139.377 18.5846 139.622 18.5846 139.622L18.0417 141.201C18.0417 141.201 17.7397 140.988 17.3586 140.652C17.4433 140.143 17.6537 139.664 17.9706 139.256C18.0239 139.191 18.0812 139.124 18.1345 139.061Z" fill="black"/>
<path opacity="0.1" d="M19.7297 138.714C19.5647 138.931 19.388 139.14 19.2003 139.338C19.1539 139.061 19.1216 138.781 19.1035 138.5C19.3293 138.505 19.548 138.58 19.7297 138.714Z" fill="black"/>
<path d="M22.3985 145.023L21.0481 145.615C21.0481 145.615 20.754 145.473 20.3295 145.209C18.9101 144.336 16.0574 142.139 17.9605 139.549C19.8636 136.959 21.4686 141.604 22.1063 143.876C22.2978 144.567 22.3985 145.023 22.3985 145.023Z" fill="#080B24"/>
<path opacity="0.1" d="M25.9875 139.3C26.1841 139.098 26.4504 138.978 26.7323 138.964C26.7165 139.488 26.6651 139.907 26.6651 139.907C26.4262 139.72 26.1998 139.517 25.9875 139.3Z" fill="black"/>
<path opacity="0.1" d="M28.5185 140.727C28.3628 140.795 28.2033 140.853 28.0408 140.901L27.4011 140.003C27.4683 139.706 27.5567 139.414 27.6657 139.13C28.0743 139.371 28.3783 139.971 28.5185 140.727Z" fill="black"/>
<path d="M25.1624 146.594C25.0894 146.61 25.0124 146.624 24.9354 146.636C20.4086 147.323 23.4429 144.881 23.4429 144.881C23.4429 144.881 23.6403 144.683 23.9226 144.385C24.4695 143.783 25.2907 142.729 25.3855 141.754C25.5276 140.287 25.6915 138.911 27.4228 139.314C29.1226 139.712 29.4483 145.736 25.1624 146.594Z" fill="#080B24"/>
<path d="M25.0778 157.865H16.429V160.139H25.0778V157.865Z" fill="#D4DFEC"/>
<path d="M26.3551 150.474H15.0549V158.41H26.3551V150.474Z" fill="#D4DFEC"/>
<path opacity="0.1" d="M25.0778 157.865H16.429V160.139H25.0778V157.865Z" fill="black"/>
<path opacity="0.1" d="M26.3551 150.474H15.0549V158.41H26.3551V150.474Z" fill="black"/>
<path d="M25.6461 157.865H16.9973V160.139H25.6461V157.865Z" fill="#D4DFEC"/>
<path opacity="0.1" d="M22.1066 143.878C22.304 144.557 22.3988 145.023 22.3988 145.023L21.0484 145.615C21.0484 145.615 20.7543 145.473 20.3298 145.209C20.8589 144.539 21.4551 144.034 22.1066 143.878Z" fill="black"/>
<path opacity="0.1" d="M25.1624 146.594C25.0894 146.61 25.0124 146.624 24.9354 146.636C20.4086 147.323 23.4429 144.881 23.4429 144.881C23.4429 144.881 23.6403 144.683 23.9226 144.385C24.7676 145.063 25.117 145.825 25.1624 146.594Z" fill="black"/>
<path d="M17.803 150.924C17.803 150.924 20.3378 141.843 23.8933 144.644C27.4488 147.445 22.4462 151.751 22.4462 151.751L17.803 150.924Z" fill="#080B24"/>
<path opacity="0.1" d="M19.0831 141.258C19.2406 141.258 19.3683 141.13 19.3683 140.973C19.3683 140.815 19.2406 140.688 19.0831 140.688C18.9255 140.688 18.7979 140.815 18.7979 140.973C18.7979 141.13 18.9255 141.258 19.0831 141.258Z" fill="black"/>
<path opacity="0.1" d="M19.0594 142.585C19.2169 142.585 19.3446 142.457 19.3446 142.3C19.3446 142.142 19.2169 142.014 19.0594 142.014C18.9019 142.014 18.7742 142.142 18.7742 142.3C18.7742 142.457 18.9019 142.585 19.0594 142.585Z" fill="black"/>
<path opacity="0.1" d="M27.3052 141.519C27.4628 141.519 27.5904 141.391 27.5904 141.233C27.5904 141.076 27.4628 140.948 27.3052 140.948C27.1477 140.948 27.02 141.076 27.02 141.233C27.02 141.391 27.1477 141.519 27.3052 141.519Z" fill="black"/>
<path opacity="0.1" d="M20.6722 148.32C20.8297 148.32 20.9574 148.192 20.9574 148.035C20.9574 147.877 20.8297 147.749 20.6722 147.749C20.5147 147.749 20.387 147.877 20.387 148.035C20.387 148.192 20.5147 148.32 20.6722 148.32Z" fill="black"/>
<path opacity="0.1" d="M26.7132 143.722C26.8707 143.722 26.9984 143.594 26.9984 143.437C26.9984 143.279 26.8707 143.152 26.7132 143.152C26.5557 143.152 26.428 143.279 26.428 143.437C26.428 143.594 26.5557 143.722 26.7132 143.722Z" fill="black"/>
<path opacity="0.1" d="M23.7754 146.662C23.933 146.662 24.0607 146.534 24.0607 146.376C24.0607 146.219 23.933 146.091 23.7754 146.091C23.6179 146.091 23.4902 146.219 23.4902 146.376C23.4902 146.534 23.6179 146.662 23.7754 146.662Z" fill="black"/>
<path opacity="0.1" d="M20.0543 141.827C20.2118 141.827 20.3395 141.699 20.3395 141.541C20.3395 141.384 20.2118 141.256 20.0543 141.256C19.8967 141.256 19.769 141.384 19.769 141.541C19.769 141.699 19.8967 141.827 20.0543 141.827Z" fill="black"/>
<path opacity="0.1" d="M26.5233 142.372C26.6808 142.372 26.8085 142.244 26.8085 142.086C26.8085 141.929 26.6808 141.801 26.5233 141.801C26.3657 141.801 26.238 141.929 26.238 142.086C26.238 142.244 26.3657 142.372 26.5233 142.372Z" fill="black"/>
<path opacity="0.1" d="M25.5525 144.575C25.7101 144.575 25.8378 144.447 25.8378 144.29C25.8378 144.132 25.7101 144.004 25.5525 144.004C25.395 144.004 25.2673 144.132 25.2673 144.29C25.2673 144.447 25.395 144.575 25.5525 144.575Z" fill="black"/>
<path opacity="0.1" d="M22.5674 148.107C22.725 148.107 22.8527 147.979 22.8527 147.821C22.8527 147.664 22.725 147.536 22.5674 147.536C22.4099 147.536 22.2822 147.664 22.2822 147.821C22.2822 147.979 22.4099 148.107 22.5674 148.107Z" fill="black"/>
<path opacity="0.1" d="M21.9515 146.709C22.109 146.709 22.2367 146.581 22.2367 146.423C22.2367 146.266 22.109 146.138 21.9515 146.138C21.794 146.138 21.6663 146.266 21.6663 146.423C21.6663 146.581 21.794 146.709 21.9515 146.709Z" fill="black"/>
<path opacity="0.1" d="M20.4808 143.556C20.6383 143.556 20.766 143.429 20.766 143.271C20.766 143.114 20.6383 142.986 20.4808 142.986C20.3233 142.986 20.1956 143.114 20.1956 143.271C20.1956 143.429 20.3233 143.556 20.4808 143.556Z" fill="black"/>
<path opacity="0.1" d="M25.6461 157.865H16.9973V158.696H25.6461V157.865Z" fill="black"/>
<path d="M26.9232 150.474H15.623V158.41H26.9232V150.474Z" fill="#D4DFEC"/>
<path opacity="0.1" d="M22.9463 149.386C23.1039 149.386 23.2316 149.258 23.2316 149.101C23.2316 148.943 23.1039 148.815 22.9463 148.815C22.7888 148.815 22.6611 148.943 22.6611 149.101C22.6611 149.258 22.7888 149.386 22.9463 149.386Z" fill="black"/>
<path opacity="0.1" d="M21.2408 149.741C21.3983 149.741 21.526 149.614 21.526 149.456C21.526 149.299 21.3983 149.171 21.2408 149.171C21.0833 149.171 20.9556 149.299 20.9556 149.456C20.9556 149.614 21.0833 149.741 21.2408 149.741Z" fill="black"/>
<path opacity="0.1" d="M10.1802 12.3308C11.3207 12.3308 12.2452 11.4063 12.2452 10.2658C12.2452 9.12533 11.3207 8.20081 10.1802 8.20081C9.03976 8.20081 8.11523 9.12533 8.11523 10.2658C8.11523 11.4063 9.03976 12.3308 10.1802 12.3308Z" fill="#080B24"/>
<path opacity="0.1" d="M208.5 77.9978C210.026 77.9978 211.263 76.7604 211.263 75.2339C211.263 73.7075 210.026 72.4701 208.5 72.4701C206.973 72.4701 205.736 73.7075 205.736 75.2339C205.736 76.7604 206.973 77.9978 208.5 77.9978Z" fill="#080B24"/>
<path opacity="0.1" d="M213.829 71.329C214.943 71.329 215.846 70.4257 215.846 69.3114C215.846 68.1971 214.943 67.2938 213.829 67.2938C212.714 67.2938 211.811 68.1971 211.811 69.3114C211.811 70.4257 212.714 71.329 213.829 71.329Z" fill="#080B24"/>
<path opacity="0.1" d="M13.7343 5.52769C15.2607 5.52769 16.4981 4.29028 16.4981 2.76385C16.4981 1.23742 15.2607 0 13.7343 0C12.2079 0 10.9705 1.23742 10.9705 2.76385C10.9705 4.29028 12.2079 5.52769 13.7343 5.52769Z" fill="#080B24"/>
<path opacity="0.1" d="M3.07365 18.1626C4.60008 18.1626 5.83749 16.9252 5.83749 15.3987C5.83749 13.8723 4.60008 12.6349 3.07365 12.6349C1.54723 12.6349 0.309814 13.8723 0.309814 15.3987C0.309814 16.9252 1.54723 18.1626 3.07365 18.1626Z" fill="#080B24"/>
<defs>
<linearGradient id="paint0_linear" x1="104.374" y1="153.167" x2="104.374" y2="37.5785" gradientUnits="userSpaceOnUse">
<stop stop-color="#808080" stop-opacity="0.25"/>
<stop offset="0.54" stop-color="#808080" stop-opacity="0.12"/>
<stop offset="1" stop-color="#808080" stop-opacity="0.1"/>
</linearGradient>
</defs>
</svg>
