<svg width="218" height="181" viewBox="0 0 218 181" fill="none" xmlns="http://www.w3.org/2000/svg">
<path d="M205.479 58.4084C205.479 65.9025 203.697 72.0712 200.608 77.3557C199.588 79.0962 198.43 80.7529 197.146 82.3098C185.787 96.1537 164.67 103.731 145.584 116.004C89.2452 152.233 83.1426 94.1806 85.6871 58.4084C86.7135 43.9743 92.3542 30.7526 101.316 20.629C103.198 18.4999 105.231 16.5081 107.399 14.6691C117.573 6.03507 130.717 0.810303 145.584 0.810303C171.091 0.810303 192.874 16.1415 201.51 37.7459C204.136 44.3203 205.483 51.3325 205.479 58.4084Z" fill="#080B24"/>
<path d="M158.341 13.7896L101.312 20.6273C103.194 18.4982 105.227 16.5064 107.395 14.6674L158.341 13.7896Z" fill="#D0CDE1"/>
<path d="M200.606 77.3545C199.587 79.095 198.429 80.7517 197.144 82.3086L148.294 76.4531L200.606 77.3545Z" fill="#D0CDE1"/>
<path d="M203.499 43.6854L120.708 32.9845L201.507 37.7447C202.283 39.686 202.948 41.6694 203.499 43.6854Z" fill="#D0CDE1"/>
<path d="M91.3036 16.1507C91.3036 16.2978 91.2993 16.4426 91.2865 16.5854C91.2217 17.4703 90.9597 18.3296 90.5196 19.1009C90.0794 19.8721 89.4722 20.5357 88.7421 21.0435C88.012 21.5513 87.1774 21.8904 86.2992 22.0361C85.4209 22.1819 84.5211 22.1306 83.6653 21.886C82.8095 21.6413 82.0192 21.2096 81.352 20.6221C80.6848 20.0346 80.1575 19.3063 79.8085 18.4901C79.4595 17.6738 79.2975 16.7903 79.3345 15.9039C79.3715 15.0174 79.6064 14.1503 80.0221 13.3657C80.1509 13.1199 80.2981 12.8841 80.4626 12.6604C81.1786 11.6708 82.1819 10.9239 83.3373 10.5203C84.4926 10.1167 85.7443 10.0758 86.9236 10.4033C88.103 10.7308 89.1531 11.4108 89.9325 12.3517C90.7119 13.2925 91.183 14.4489 91.2822 15.6649C91.2972 15.8247 91.3036 15.9866 91.3036 16.1507Z" fill="#080B24"/>
<path d="M91.3008 16.1524C91.3008 16.2995 91.2965 16.4443 91.2836 16.5871L82.3201 15.5132L91.2794 15.6666C91.2943 15.8264 91.3008 15.9884 91.3008 16.1524Z" fill="#D0CDE1"/>
<path d="M89.1629 19.1578L80.8707 20.1529C80.6353 19.8914 80.4235 19.6098 80.2378 19.3113L89.1629 19.1578Z" fill="#D0CDE1"/>
<path d="M86.8106 12.5558L80.0195 13.3698C80.1483 13.1239 80.2955 12.8881 80.46 12.6645L86.8106 12.5558Z" fill="#D0CDE1"/>
<path d="M173.35 123.572C173.281 123.702 173.209 123.828 173.131 123.948C172.657 124.699 172.021 125.336 171.27 125.812C170.518 126.287 169.67 126.59 168.786 126.697C167.902 126.805 167.005 126.715 166.161 126.433C165.317 126.151 164.546 125.686 163.905 125.07C163.264 124.454 162.769 123.704 162.456 122.873C162.143 122.042 162.02 121.153 162.096 120.269C162.172 119.385 162.444 118.529 162.894 117.763C163.343 116.997 163.959 116.341 164.695 115.842C164.925 115.685 165.165 115.546 165.416 115.425C166.514 114.885 167.752 114.694 168.962 114.877C170.172 115.06 171.297 115.609 172.185 116.449C173.073 117.289 173.68 118.381 173.926 119.576C174.172 120.771 174.044 122.013 173.56 123.133C173.498 123.281 173.427 123.427 173.35 123.572Z" fill="#080B24"/>
<path d="M173.349 123.572C173.28 123.702 173.208 123.828 173.13 123.948L165.717 118.812L173.559 123.133C173.497 123.281 173.427 123.427 173.349 123.572Z" fill="#D0CDE1"/>
<path d="M170.051 125.23L162.258 122.235C162.173 121.894 162.119 121.547 162.095 121.196L170.051 125.23Z" fill="#D0CDE1"/>
<path d="M171.079 118.296L164.698 115.842C164.927 115.685 165.168 115.546 165.418 115.425L171.079 118.296Z" fill="#D0CDE1"/>
<path d="M215.757 20.7235C215.86 20.8288 215.959 20.9355 216.05 21.0466C216.623 21.7252 217.038 22.5227 217.263 23.381C217.488 24.2394 217.519 25.137 217.352 26.0085C217.185 26.88 216.825 27.7035 216.298 28.4189C215.772 29.1342 215.092 29.7236 214.308 30.1439C213.523 30.5642 212.655 30.805 211.766 30.8486C210.877 30.8923 209.989 30.7377 209.167 30.3962C208.345 30.0547 207.61 29.5349 207.016 28.8745C206.421 28.2142 205.982 27.43 205.73 26.579C205.65 26.3135 205.59 26.0422 205.551 25.7676C205.37 24.561 205.565 23.3282 206.109 22.2354C206.654 21.1426 207.521 20.2425 208.595 19.6564C209.669 19.0703 210.897 18.8264 212.114 18.9577C213.331 19.089 214.479 19.5891 215.402 20.3906C215.524 20.4946 215.643 20.6061 215.757 20.7235Z" fill="#080B24"/>
<path d="M215.755 20.7229C215.858 20.8282 215.956 20.9349 216.047 21.046L208.877 26.5138L215.399 20.39C215.522 20.494 215.64 20.6055 215.755 20.7229Z" fill="#D0CDE1"/>
<path d="M216.332 24.3619L211.093 30.8438C210.741 30.8203 210.392 30.7661 210.05 30.6816L216.332 24.3619Z" fill="#D0CDE1"/>
<path d="M210.019 21.27L205.727 26.5778C205.647 26.3122 205.588 26.041 205.549 25.7664L210.019 21.27Z" fill="#D0CDE1"/>
<path d="M103.437 130.675C103.437 130.675 116.576 131.22 116.576 134.493C116.576 137.767 101.795 134.493 101.795 134.493L103.437 130.675Z" fill="#A0616A"/>
<path d="M83.7207 180.862L59.0858 179.225L57.9909 166.132L52.5165 177.589L28.429 174.315C28.9764 153.585 37.7355 133.4 38.2829 130.672C38.8304 127.945 40.1388 116.674 40.1388 116.674C42.5311 111.617 55.0675 111.142 64.8942 111.6C68.9672 111.786 72.5803 112.135 74.8083 112.386C76.2809 112.549 77.1514 112.669 77.1514 112.669C81.0766 116.701 83.6058 122.195 85.1605 128.332C90.7663 150.443 83.7207 180.862 83.7207 180.862Z" fill="#2F2E41"/>
<path d="M56.3565 54.2979C63.9151 54.2979 70.0426 48.1918 70.0426 40.6595C70.0426 33.1272 63.9151 27.021 56.3565 27.021C48.7979 27.021 42.6704 33.1272 42.6704 40.6595C42.6704 48.1918 48.7979 54.2979 56.3565 54.2979Z" fill="#A0616A"/>
<path d="M47.048 43.9323C47.048 43.9323 43.2159 60.8439 37.194 65.7538C31.1721 70.6636 60.7341 65.7538 60.7341 65.7538C60.7341 65.7538 54.1648 54.843 59.0917 49.9332C64.0187 45.0233 47.048 43.9323 47.048 43.9323Z" fill="#A0616A"/>
<path d="M74.9672 113.761L65.8851 114.765L40.4783 117.58C40.4783 117.58 40.3579 117.258 40.1444 116.674C38.2995 111.661 29.4145 87.2642 28.4346 79.9376C27.3397 71.7545 38.836 61.9348 38.836 61.9348C38.836 61.9348 49.7849 59.7527 53.0695 59.7527C56.3542 59.7527 69.4928 64.6625 69.4928 64.6625L74.3924 108.584L74.8139 112.386L74.9672 113.761Z" fill="#D0CDE1"/>
<path opacity="0.15" d="M85.1697 128.333L66.7592 117.58C66.7592 117.58 66.4362 116.533 65.8887 114.765C65.615 113.881 65.2811 112.812 64.9034 111.601C62.7793 104.804 59.2154 93.5873 56.3578 85.3934C51.9782 72.8459 73.3285 107.76 73.3285 107.76L74.396 108.584L74.8176 112.387C76.2902 112.55 77.1606 112.67 77.1606 112.67C81.0858 116.702 83.615 122.195 85.1697 128.333Z" fill="black"/>
<path d="M60.7308 65.7561C60.7308 65.7561 55.2564 72.8481 59.6359 85.3955C64.0155 97.9429 70.0374 117.582 70.0374 117.582L101.789 136.131L106.169 130.675L76.6067 107.763C76.6067 107.763 75.5118 66.3017 70.0374 64.665C64.5629 63.0284 60.7308 65.7561 60.7308 65.7561Z" fill="#D0CDE1"/>
<path d="M33.6343 113.489C33.6343 113.489 41.2985 129.309 44.5832 127.673C47.8678 126.036 36.3715 109.67 36.3715 109.67L33.6343 113.489Z" fill="#A0616A"/>
<path d="M32.8137 70.1206L3.79914 94.1243C3.79914 94.1243 -7.14973 101.762 13.1057 107.217C33.3611 112.673 35.0034 115.946 35.0034 115.946C35.0034 115.946 37.1932 108.854 39.9304 109.945L16.3903 98.4886L35.5509 87.0323L32.8137 70.1206Z" fill="#D0CDE1"/>
<path d="M21.1482 51.8535C22.671 51.102 26.0337 49.5853 28.898 47.758C28.6972 41.8135 29.4317 36.4172 31.582 33.5568C32.789 30.8258 35.3235 28.0917 37.3086 25.9384C42.1834 20.6507 52.9627 17.6992 54.8745 20.3411C69.3346 20.6256 70.8569 31.9206 70.8569 31.9206C70.7816 36.6451 65.8543 36.7945 61.5379 36.6224C61.9245 39.8477 60.8944 43.199 57.9116 44.6852C52.2075 47.5273 50.4963 51.222 53.3483 53.7799C56.2004 56.3378 61.334 63.1588 54.4892 64.8641C47.6443 66.5693 46.7887 69.9799 48.7851 71.4009C50.7816 72.8219 44.2219 68.843 44.2219 68.843C44.2219 68.843 43.0811 75.664 37.0918 73.9588C36.5551 73.8059 36.0187 73.4144 35.4913 72.8287C33.8737 74.5999 32.4307 75.6471 31.3431 75.6528C25.1143 75.6857 25.8612 68.8108 25.8612 68.8108C25.8612 68.8108 18.468 70.88 20.7749 70.0479C23.0819 69.2159 23.1807 65.7018 17.0507 62.2206C10.9208 58.7395 17.7098 53.5503 21.1482 51.8535Z" fill="#2F2E41"/>
<path d="M97.5778 69.6728L97.4785 69.6598L97.7208 70.5774C97.9497 71.8576 98.2823 73.1172 98.7151 74.344L105.82 101.258C106.046 102.117 106.52 102.891 107.182 103.486C107.844 104.081 108.666 104.47 109.547 104.605L124.036 106.839C124.972 106.984 125.931 106.835 126.779 106.413C127.628 105.991 128.324 105.317 128.771 104.484L142.54 78.8555C142.97 78.1454 143.363 77.4137 143.718 76.6632L144.185 75.793L144.113 75.7835C145.572 72.3427 146.215 68.6125 145.99 64.8836C145.765 61.1547 144.679 57.5279 142.817 54.2859C140.955 51.044 138.366 48.2744 135.253 46.1931C132.14 44.1118 128.587 42.775 124.87 42.287C121.154 41.799 117.375 42.1729 113.827 43.3795C110.279 44.5862 107.059 46.593 104.418 49.2436C101.776 51.8941 99.7844 55.1168 98.598 58.6604C97.4116 62.2039 97.0625 65.9727 97.5778 69.6728H97.5778Z" fill="#3F3D56"/>
<path d="M124.922 108.598C124.667 108.598 124.412 108.578 124.16 108.539L109.015 106.204C108.053 106.056 107.156 105.631 106.433 104.982C105.71 104.333 105.193 103.487 104.945 102.549L97.5191 74.4166C97.0652 73.1287 96.7164 71.8064 96.4761 70.4626L96.2882 69.2319C95.7829 65.3001 96.2017 61.305 97.5114 57.5622C98.8211 53.8193 100.986 50.431 103.835 47.6648C106.684 44.8986 110.139 42.8302 113.928 41.6229C117.717 40.4156 121.735 40.1024 125.666 40.708L125.601 41.1292C121.713 40.5321 117.738 40.8488 113.995 42.054C110.251 43.2592 106.842 45.3196 104.039 48.0708C101.236 50.822 99.1176 54.1878 97.8518 57.8998C96.5861 61.6118 96.2085 65.5672 96.749 69.4504L96.8934 70.371C97.1319 71.7035 97.4778 73.0146 97.9276 74.2917L105.359 102.44C105.585 103.298 106.058 104.072 106.719 104.665C107.38 105.259 108.201 105.648 109.081 105.783L124.226 108.118C125.161 108.261 126.118 108.112 126.965 107.691C127.812 107.27 128.507 106.598 128.954 105.767L129.331 105.968C128.903 106.762 128.267 107.426 127.491 107.889C126.715 108.352 125.827 108.597 124.922 108.598Z" fill="#D0CDE1"/>
<path d="M128.768 75.7925L119.552 100.866L120.072 101.055L129.287 75.982L128.768 75.7925Z" fill="#D0CDE1"/>
<path d="M113.72 73.4715L113.167 73.4957L114.343 100.172L114.896 100.148L113.72 73.4715Z" fill="#D0CDE1"/>
<path d="M123.643 121.355L104.237 118.363C104.093 118.34 103.964 118.261 103.878 118.143C103.792 118.025 103.756 117.878 103.778 117.734C103.801 117.59 103.879 117.461 103.997 117.375C104.115 117.288 104.262 117.252 104.406 117.273L123.813 120.265C123.885 120.276 123.954 120.301 124.016 120.338C124.079 120.375 124.133 120.425 124.177 120.483C124.22 120.542 124.251 120.608 124.268 120.679C124.286 120.749 124.289 120.823 124.278 120.895C124.267 120.966 124.241 121.035 124.203 121.097C124.165 121.159 124.116 121.213 124.057 121.256C123.998 121.299 123.931 121.329 123.86 121.346C123.789 121.363 123.715 121.366 123.643 121.355Z" fill="#3F3D56"/>
<path d="M124.138 117.245L104.731 114.253C104.659 114.243 104.59 114.218 104.527 114.181C104.465 114.143 104.411 114.094 104.367 114.035C104.324 113.977 104.293 113.91 104.275 113.84C104.258 113.769 104.255 113.696 104.266 113.624C104.277 113.552 104.302 113.483 104.34 113.421C104.378 113.359 104.428 113.305 104.487 113.262C104.546 113.22 104.613 113.189 104.684 113.172C104.755 113.155 104.828 113.152 104.9 113.164L124.307 116.156C124.379 116.166 124.448 116.191 124.511 116.229C124.573 116.266 124.627 116.316 124.671 116.374C124.714 116.433 124.745 116.499 124.763 116.57C124.78 116.64 124.783 116.713 124.772 116.785C124.761 116.857 124.736 116.926 124.698 116.988C124.66 117.05 124.61 117.104 124.551 117.147C124.492 117.189 124.425 117.22 124.354 117.237C124.283 117.254 124.21 117.257 124.138 117.245Z" fill="#3F3D56"/>
<path d="M124.638 113.138L105.232 110.147C105.088 110.123 104.958 110.044 104.872 109.927C104.786 109.809 104.751 109.662 104.773 109.518C104.795 109.374 104.874 109.245 104.992 109.158C105.109 109.072 105.257 109.036 105.401 109.057L124.807 112.049C124.952 112.072 125.081 112.151 125.167 112.269C125.253 112.387 125.289 112.533 125.266 112.677C125.244 112.821 125.165 112.951 125.048 113.037C124.93 113.123 124.783 113.16 124.638 113.138H124.638Z" fill="#3F3D56"/>
<path d="M113.339 123.743C117.188 124.336 120.64 122.68 121.05 120.042L107.11 117.893C106.701 120.531 109.489 123.15 113.339 123.743Z" fill="#3F3D56"/>
<path d="M120.31 70.5104C119.482 70.3829 118.797 69.7306 118.421 69.2935C118.298 69.1502 118.178 69.0015 118.058 68.8525C117.621 68.3099 117.208 67.7976 116.633 67.5304C115.363 66.9402 113.867 67.7645 112.572 68.649L112.26 68.1944C113.683 67.2217 115.344 66.3231 116.867 67.0307C117.558 67.3522 118.032 67.9394 118.489 68.5072C118.606 68.6518 118.722 68.7959 118.841 68.935C119.232 69.3894 120.011 70.1259 120.845 69.956C121.197 69.8539 121.524 69.6813 121.807 69.4489C122.022 69.2889 122.249 69.1459 122.487 69.0212C122.969 68.7909 123.508 68.7078 124.037 68.7824C124.566 68.8569 125.062 69.0857 125.461 69.44C125.603 69.5743 125.737 69.7162 125.864 69.8652C126.113 70.1479 126.348 70.4147 126.654 70.5117C127.106 70.6557 127.584 70.3982 128.09 70.1261C128.612 69.8453 129.152 69.5549 129.764 69.6265C129.784 69.6289 129.804 69.6316 129.824 69.6346C130.913 69.8026 131.416 71.0034 131.7 71.8996L131.172 72.0655C130.786 70.8474 130.316 70.2416 129.699 70.1741C129.261 70.1226 128.82 70.36 128.353 70.6111C127.767 70.9261 127.161 71.2518 126.486 71.0369C126.033 70.8935 125.736 70.5556 125.448 70.2289C125.335 70.0951 125.214 69.9676 125.087 69.8468C124.769 69.5695 124.378 69.3905 123.959 69.3316C123.541 69.2727 123.115 69.3364 122.732 69.5151C122.521 69.6273 122.318 69.7556 122.126 69.8989C121.783 70.1779 121.384 70.3814 120.956 70.4961C120.744 70.5393 120.525 70.5441 120.31 70.5104Z" fill="#D0CDE1"/>
</svg>
