<svg width="308" height="227" viewBox="0 0 308 227" fill="none" xmlns="http://www.w3.org/2000/svg">
<path opacity="0.1" d="M8.87076 142.403C5.19189 143 0.577983 144.711 0.620903 148.687C0.642363 150.705 1.98208 152.424 3.28501 153.899C8.823 160.209 15.141 165.79 22.0871 170.506C25.4042 172.753 28.9696 174.902 31.1739 178.376C33.3781 181.849 33.933 186.27 34.1078 190.476C34.5376 200.435 33.3638 210.398 30.6312 219.984C41.4318 222.041 53.477 223.844 62.4779 217.347C67.8675 213.457 71.5126 206.939 77.5184 204.241C81.5283 202.439 86.0686 202.598 90.4404 202.828C111.134 203.917 131.777 205.961 152.368 208.959C160.992 210.216 169.781 211.639 178.313 210.014C186.845 208.389 195.239 203.089 198.384 194.495C198.869 193.171 199.304 191.693 200.389 190.896C201.37 190.185 202.655 190.2 203.848 190.243L275.916 192.72C279.865 192.855 283.952 192.966 287.566 191.341C291.07 189.768 293.765 186.742 296.359 183.778C302.291 177.015 308.671 168.694 306.926 159.516C305.531 152.158 299.296 147.017 293.112 143.417C286.929 139.818 280.107 136.872 275.564 131.118C268.651 122.359 268.924 109.823 268.494 98.4586C268.103 88.168 266.837 77.9293 264.708 67.8535C262.835 58.9967 260.226 50.1276 255.349 42.6472C250.471 35.1668 243.012 29.1764 234.575 28.0789C223.557 26.6441 212.481 33.5175 201.702 30.5989C192.596 28.1463 186.33 19.4305 178.785 13.391C165.385 2.661 147.8 0.413828 131.175 0.208425C113.547 -0.0153727 95.4528 1.76888 79.741 10.0463C76.1419 11.9409 72.6224 14.2341 70.13 17.5819C66.3101 22.7169 65.3842 29.6148 62.8857 35.6175C52.8148 59.7876 20.0606 64.9994 9.42872 88.912C5.65482 97.3948 5.6916 107.288 8.44156 116.197C11.4 125.783 19.7265 131.078 23.0283 139.435C19.4751 141.722 13.1781 141.701 8.87076 142.403Z" fill="#080B24"/>
<g opacity="0.2">
<path opacity="0.2" d="M271.875 113.901C271.875 113.901 273.347 94.3506 284.396 83.7279C289.059 79.3023 292.16 73.4836 293.234 67.1454C293.717 64.1324 293.922 61.0815 293.847 58.031" stroke="#535461" stroke-width="2" stroke-miterlimit="10"/>
<path opacity="0.2" d="M300.782 51.2956C299.967 53.4416 293.701 58.2272 293.701 58.2272C293.701 58.2272 292.168 50.4985 292.977 48.3433C293.171 47.8306 293.464 47.3611 293.839 46.9616C294.215 46.5621 294.665 46.2404 295.164 46.015C295.664 45.7895 296.203 45.6647 296.751 45.6475C297.299 45.6304 297.845 45.7214 298.357 45.9152C298.87 46.1091 299.34 46.402 299.739 46.7773C300.139 47.1526 300.46 47.6029 300.686 48.1026C300.911 48.6022 301.036 49.1413 301.053 49.6892C301.07 50.237 300.979 50.7829 300.786 51.2956H300.782Z" fill="#080B24"/>
<path opacity="0.2" d="M302.72 65.6768C300.865 67.0441 293.008 67.645 293.008 67.645C293.008 67.645 295.917 60.321 297.772 58.9537C298.213 58.6288 298.714 58.394 299.246 58.2627C299.778 58.1314 300.331 58.1061 300.872 58.1884C301.414 58.2707 301.934 58.4589 302.403 58.7422C302.872 59.0255 303.281 59.3984 303.606 59.8397C303.931 60.2809 304.166 60.7819 304.297 61.3138C304.428 61.8458 304.454 62.3985 304.371 62.9402C304.289 63.482 304.101 64.0022 303.818 64.4712C303.534 64.9402 303.161 65.3489 302.72 65.6738V65.6768Z" fill="#080B24"/>
<path opacity="0.2" d="M294.721 85.9778C292.428 86.22 285.343 82.7742 285.343 82.7742C285.343 82.7742 291.551 77.9211 293.841 77.6758C294.942 77.5592 296.045 77.8846 296.906 78.5806C297.766 79.2765 298.316 80.286 298.432 81.3869C298.549 82.4878 298.224 83.59 297.528 84.451C296.832 85.3119 295.822 85.8612 294.721 85.9778Z" fill="#080B24"/>
<path opacity="0.2" d="M285.212 99.9762C282.992 100.589 275.426 98.4035 275.426 98.4035C275.426 98.4035 280.723 92.5786 282.943 91.944C283.47 91.795 284.022 91.7514 284.566 91.8156C285.11 91.8798 285.637 92.0506 286.115 92.3182C286.593 92.5858 287.014 92.945 287.354 93.3752C287.693 93.8055 287.944 94.2984 288.093 94.8258C288.242 95.3532 288.286 95.9047 288.222 96.449C288.158 96.9933 287.987 97.5195 287.719 97.9978C287.452 98.4761 287.092 98.8969 286.662 99.2364C286.232 99.5758 285.739 99.8272 285.212 99.9762Z" fill="#080B24"/>
<path opacity="0.2" d="M284.654 64.9656C285.632 67.0534 292.247 71.3331 292.247 71.3331C292.247 71.3331 293.189 63.5094 292.211 61.4216C291.978 60.9254 291.65 60.4799 291.245 60.1106C290.84 59.7412 290.366 59.4552 289.851 59.2688C289.336 59.0825 288.788 58.9995 288.241 59.0246C287.694 59.0497 287.156 59.1824 286.66 59.4151C286.164 59.6478 285.718 59.976 285.349 60.3809C284.98 60.7857 284.694 61.2594 284.507 61.7748C284.321 62.2902 284.238 62.8373 284.263 63.3848C284.288 63.9323 284.421 64.4694 284.654 64.9656Z" fill="#080B24"/>
<path opacity="0.2" d="M273.737 81.4775C275.294 83.176 282.888 85.2821 282.888 85.2821C282.888 85.2821 281.444 77.535 279.886 75.8366C279.138 75.0207 278.097 74.5353 276.991 74.4873C275.885 74.4393 274.805 74.8326 273.989 75.5806C273.174 76.3287 272.688 77.3702 272.64 78.4761C272.592 79.582 272.985 80.6616 273.733 81.4775H273.737Z" fill="#080B24"/>
<path opacity="0.2" d="M265.33 98.9797C266.578 100.917 273.709 104.274 273.709 104.274C273.709 104.274 273.596 96.3953 272.348 94.4639C271.748 93.5334 270.803 92.8791 269.721 92.6451C268.639 92.4111 267.509 92.6165 266.578 93.2162C265.648 93.8158 264.993 94.7606 264.759 95.8426C264.525 96.9246 264.731 98.0553 265.33 98.9859V98.9797Z" fill="#080B24"/>
</g>
<path d="M50.7119 27.113V38.1404V168.443H277.82V38.1404V27.113H50.7119Z" fill="url(#paint0_linear)"/>
<path d="M275.423 28.6062H53.1123V39.4006H275.423V28.6062Z" fill="#F6F7F9"/>
<g opacity="0.2">
<path opacity="0.2" d="M275.423 28.6062H53.1123V39.4006H275.423V28.6062Z" fill="#080B24"/>
</g>
<path d="M275.423 39.4006H53.1123V166.95H275.423V39.4006Z" fill="#F6F7F9"/>
<path d="M58.4434 36.3378C59.7692 36.3378 60.8439 35.2631 60.8439 33.9373C60.8439 32.6116 59.7692 31.5369 58.4434 31.5369C57.1177 31.5369 56.043 32.6116 56.043 33.9373C56.043 35.2631 57.1177 36.3378 58.4434 36.3378Z" fill="#F6F7F9"/>
<path d="M64.8389 36.3378C66.1647 36.3378 67.2394 35.2631 67.2394 33.9373C67.2394 32.6116 66.1647 31.5369 64.8389 31.5369C63.5132 31.5369 62.4385 32.6116 62.4385 33.9373C62.4385 35.2631 63.5132 36.3378 64.8389 36.3378Z" fill="#F6F7F9"/>
<path d="M71.2369 36.3378C72.5626 36.3378 73.6373 35.2631 73.6373 33.9373C73.6373 32.6116 72.5626 31.5369 71.2369 31.5369C69.9111 31.5369 68.8364 32.6116 68.8364 33.9373C68.8364 35.2631 69.9111 36.3378 71.2369 36.3378Z" fill="#F6F7F9"/>
<g opacity="0.2">
<path opacity="0.2" d="M175.195 55.2627H60.8408V63.5248H175.195V55.2627Z" fill="#080B24"/>
</g>
<g opacity="0.2">
<path opacity="0.2" d="M264.49 55.2627H204.516V63.5248H264.49V55.2627Z" fill="#080B24"/>
</g>
<g opacity="0.2">
<path opacity="0.2" d="M91.0935 133.365H83.0981V159.755H91.0935V133.365Z" fill="#080B24"/>
<path opacity="0.2" d="M106.554 114.437H98.5586V159.752H106.554V114.437Z" fill="#080B24"/>
<path opacity="0.2" d="M122.014 95.5125H114.019V159.752H122.014V95.5125Z" fill="#080B24"/>
<path opacity="0.2" d="M137.475 101.644H129.479V159.755H137.475V101.644Z" fill="#080B24"/>
<path opacity="0.2" d="M152.935 119.769H144.94V159.752H152.935V119.769Z" fill="#080B24"/>
</g>
<g opacity="0.2">
<path opacity="0.2" d="M264.358 81.6523H204.384V155.355H264.358V81.6523Z" fill="#080B24"/>
</g>
<path d="M306.304 134.098C305.921 132.148 305.185 130.241 305.166 128.254C305.139 125.029 306.856 121.283 304.599 118.901C304.084 118.358 303.394 117.953 303.011 117.319C302.722 116.77 302.584 116.154 302.613 115.535C302.576 111.773 304.648 107.953 303.407 104.388C303.164 103.588 302.664 102.89 301.984 102.404C301.267 101.938 300.451 101.849 299.572 101.865C298.777 101.865 297.941 101.953 297.119 101.969C296.654 101.969 296.191 101.908 295.742 101.788C294.792 101.518 293.986 100.896 293.045 100.589C292.55 100.429 292.031 100.357 291.512 100.378C289.452 100.31 287.569 101.681 286.104 103.008C285.373 103.623 284.6 104.186 283.789 104.691C283.912 104.605 280.929 106.653 282.051 106.675C282.853 106.698 283.627 106.968 284.27 107.447C283.592 108.494 283.257 109.726 283.312 110.973C283.367 112.219 283.809 113.417 284.577 114.4C284.09 113.922 283.55 113.398 282.998 112.867C281.355 111.252 279.059 109.084 277.98 108.493C276.205 107.539 273.669 105.467 273.669 105.467C273.669 105.467 270.374 107.306 271.388 109.86C271.872 110.01 272.345 110.195 272.802 110.415C272.802 110.754 272.867 111.09 272.995 111.405C274.037 111.734 275.024 112.218 275.923 112.84C276.024 112.981 276.118 113.127 276.205 113.278C276.643 114.045 278.007 115.44 279.675 116.991C280.846 118.165 282.388 119.569 283.924 120.921C283.461 121.841 282.974 122.76 282.888 123.68C282.769 123.634 282.654 123.58 282.541 123.521C280.261 122.295 274.938 122.423 274.938 122.423C274.938 122.423 270.502 120.106 269.616 114.86C269.616 114.86 268.73 111.687 268.982 110.835H268.966L269.08 110.81L270.144 108.882C270.211 108.756 270.245 108.615 270.243 108.473C270.242 108.33 270.205 108.19 270.135 108.066C270.066 107.942 269.966 107.837 269.845 107.761C269.725 107.685 269.587 107.64 269.445 107.631C264.257 107.165 264.012 111.923 264.012 111.923H264.058L264.043 111.963C264.677 115.013 265.183 114.768 265.058 117.208L267.084 122.577C267.084 122.577 267.21 124.416 270.886 126.847C274.561 129.278 278.743 133.071 278.743 133.071C278.743 133.071 276.526 134.229 277.348 139.536C278.354 146.023 276.842 155.276 276.842 155.276V161.254L277.124 161.177C277.088 161.376 277.054 161.588 277.017 161.818C276.549 164.822 276.49 167.875 276.842 170.895C277.603 177.241 280.644 185.917 280.644 185.917C280.644 185.917 281.784 188.968 282.039 191.408C282.079 191.891 282.188 192.366 282.364 192.818C282.935 194.158 283.237 195.596 283.253 197.052C283.242 200.709 283.904 204.337 285.206 207.755C286.49 211.016 286.968 212.929 287.109 214.045C286.19 215.235 285.006 216.532 284.065 216.66C282.29 216.906 278.869 217.148 281.15 220.076C281.229 220.177 281.317 220.27 281.413 220.355C279.681 220.631 277.777 221.238 279.629 223.613C281.91 226.541 295.341 225.198 295.341 225.198C295.341 225.198 295.427 223.571 295.341 221.783C296.282 221.719 296.874 221.661 296.874 221.661C296.874 221.661 297.254 214.585 295.608 213.73C295.303 213.763 295.004 213.835 294.718 213.944C294.541 212.966 294.412 211.749 294.32 210.851L294.973 210.802V210.753H295.013V200.09C295.013 200.09 294.253 193.502 291.466 190.586C291.107 190.219 290.798 189.807 290.546 189.36L290.509 189.284C290.528 188.45 290.528 187.325 290.509 186.034L290.549 185.963C290.598 185.884 290.647 185.813 290.693 185.749C290.758 185.663 290.827 185.581 290.902 185.504L290.941 185.451C290.941 185.451 292.474 183.612 297.659 172.03C300.825 164.96 299.988 160.993 298.854 158.948C298.615 158.029 298.115 155.968 297.49 152.44C297.234 150.942 297.111 149.425 297.125 147.906C297.911 148.102 298.719 148.193 299.529 148.175C300.799 148.204 302.059 147.935 303.207 147.39C302.38 146.183 301.515 144.766 301.932 143.377C302.404 141.796 304.274 141.069 305.353 139.794C306.653 138.252 306.687 136.05 306.304 134.098Z" fill="url(#paint1_linear)"/>
<path d="M274.194 106.77C274.194 106.77 271.048 108.585 272.017 111.126C272.017 111.126 275.285 112.095 276.615 114.514C277.946 116.933 288.231 125.645 288.231 125.645L295.742 121.896C295.742 121.896 293.134 118.413 284.881 115.979C284.881 115.979 280.015 110.767 278.32 109.796C276.625 108.824 274.194 106.77 274.194 106.77Z" fill="#797C9C"/>
<path opacity="0.05" d="M275.726 108.303C275.726 108.303 272.581 110.118 273.55 112.659C273.55 112.659 276.818 113.628 278.148 116.047C279.479 118.466 289.764 127.178 289.764 127.178L297.275 123.429C297.275 123.429 294.666 119.946 286.413 117.512C286.413 117.512 281.548 112.3 279.853 111.329C278.157 110.357 275.726 108.303 275.726 108.303Z" fill="black"/>
<path d="M5.17978 197.564C5.17978 197.564 -12.4972 208.23 20.0884 224.65C20.0884 224.65 27.2683 211.32 19.3311 200.452C17.79 198.334 15.5255 196.854 12.9666 196.294C10.4076 195.733 7.73199 196.131 5.4465 197.411L5.17978 197.564Z" fill="#080B24"/>
<path d="M5.38232 197.337C5.38232 197.337 20.5117 208.91 20.0978 224.647" stroke="#535461" stroke-miterlimit="10"/>
<path d="M20.9438 224.843C20.9438 224.843 15.4041 206.023 21.9739 192.193C24.7705 186.405 25.6139 179.865 24.3775 173.557C23.7665 170.567 22.883 167.639 21.7379 164.81" stroke="#535461" stroke-width="2" stroke-miterlimit="10"/>
<path d="M25.8395 156.051C25.8395 158.357 21.6671 165.04 21.6671 165.04C21.6671 165.04 17.4946 158.357 17.4946 156.051C17.4946 154.944 17.9344 153.882 18.7172 153.1C19.4999 152.317 20.5616 151.877 21.6686 151.877C22.7756 151.877 23.8373 152.317 24.6201 153.1C25.4028 153.882 25.8426 154.944 25.8426 156.051H25.8395Z" fill="#080B24"/>
<path d="M32.7374 168.829C31.4835 170.764 24.3496 174.105 24.3496 174.105C24.3496 174.105 24.4784 166.227 25.7322 164.295C26.0302 163.835 26.4158 163.438 26.867 163.127C27.3183 162.816 27.8264 162.597 28.3623 162.483C28.8982 162.368 29.4514 162.36 29.9904 162.46C30.5294 162.559 31.0435 162.763 31.5035 163.061C31.9634 163.359 32.3602 163.745 32.6712 164.196C32.9821 164.647 33.2011 165.155 33.3157 165.691C33.4303 166.227 33.4382 166.78 33.339 167.319C33.2397 167.858 33.0353 168.372 32.7374 168.832V168.829Z" fill="#080B24"/>
<path d="M32.4371 190.645C30.38 191.684 22.5317 190.951 22.5317 190.951C22.5317 190.951 26.6214 184.207 28.6785 183.177C29.6668 182.678 30.8126 182.593 31.8639 182.939C32.9152 183.286 33.7858 184.036 34.2842 185.024C34.7826 186.012 34.868 187.158 34.5216 188.209C34.1752 189.261 33.4254 190.131 32.4371 190.63V190.645Z" fill="#080B24"/>
<path d="M28.4914 207.102C26.6519 208.472 18.7822 209.091 18.7822 209.091C18.7822 209.091 21.6732 201.761 23.528 200.391C23.9686 200.065 24.4691 199.829 25.0009 199.696C25.5328 199.564 26.0855 199.538 26.6275 199.619C27.1695 199.7 27.6903 199.887 28.16 200.169C28.6297 200.452 29.0392 200.824 29.3651 201.265C29.691 201.705 29.9269 202.206 30.0594 202.737C30.1919 203.269 30.2183 203.822 30.1371 204.364C30.056 204.906 29.8689 205.427 29.5865 205.897C29.3041 206.366 28.932 206.776 28.4914 207.102Z" fill="#080B24"/>
<path d="M15.5879 174.553C17.2403 176.159 24.9444 177.824 24.9444 177.824C24.9444 177.824 23.059 170.159 21.4035 168.565C21.0104 168.183 20.5458 167.882 20.0362 167.679C19.5266 167.476 18.9821 167.375 18.4337 167.383C17.8852 167.39 17.3436 167.506 16.8398 167.723C16.336 167.939 15.8799 168.253 15.4974 168.647C15.115 169.04 14.8137 169.504 14.6108 170.014C14.4079 170.523 14.3073 171.068 14.3148 171.616C14.3224 172.165 14.4379 172.706 14.6547 173.21C14.8716 173.714 15.1855 174.17 15.5787 174.553H15.5879Z" fill="#080B24"/>
<path d="M11.216 193.858C13.2731 194.897 21.1214 194.164 21.1214 194.164C21.1214 194.164 17.0317 187.42 14.9746 186.389C13.9863 185.891 12.8405 185.806 11.7892 186.152C10.738 186.498 9.86736 187.248 9.36894 188.237C8.87052 189.225 8.78512 190.371 9.13152 191.422C9.47792 192.473 10.2277 193.344 11.216 193.842V193.858Z" fill="#080B24"/>
<path d="M9.54529 213.202C11.3847 214.573 19.2544 215.192 19.2544 215.192C19.2544 215.192 16.3634 207.862 14.5087 206.491C13.6188 205.833 12.5038 205.555 11.4092 205.719C10.3145 205.883 9.32975 206.475 8.67156 207.365C8.01337 208.255 7.73566 209.37 7.89952 210.465C8.06337 211.559 8.65538 212.544 9.54529 213.202Z" fill="#080B24"/>
<path opacity="0.25" d="M25.8395 156.051C25.8395 158.357 21.6671 165.04 21.6671 165.04C21.6671 165.04 17.4946 158.357 17.4946 156.051C17.4946 154.944 17.9344 153.882 18.7172 153.1C19.4999 152.317 20.5616 151.877 21.6686 151.877C22.7756 151.877 23.8373 152.317 24.6201 153.1C25.4028 153.882 25.8426 154.944 25.8426 156.051H25.8395Z" fill="black"/>
<path opacity="0.25" d="M32.7374 168.829C31.4835 170.764 24.3496 174.105 24.3496 174.105C24.3496 174.105 24.4784 166.227 25.7322 164.295C26.0302 163.835 26.4158 163.438 26.867 163.127C27.3183 162.816 27.8264 162.597 28.3623 162.483C28.8982 162.368 29.4514 162.36 29.9904 162.46C30.5294 162.559 31.0435 162.763 31.5035 163.061C31.9634 163.359 32.3602 163.745 32.6712 164.196C32.9821 164.647 33.2011 165.155 33.3157 165.691C33.4303 166.227 33.4382 166.78 33.339 167.319C33.2397 167.858 33.0353 168.372 32.7374 168.832V168.829Z" fill="black"/>
<path opacity="0.25" d="M32.4371 190.645C30.38 191.684 22.5317 190.951 22.5317 190.951C22.5317 190.951 26.6214 184.207 28.6785 183.177C29.6668 182.678 30.8126 182.593 31.8639 182.939C32.9152 183.286 33.7858 184.036 34.2842 185.024C34.7826 186.012 34.868 187.158 34.5216 188.209C34.1752 189.261 33.4254 190.131 32.4371 190.63V190.645Z" fill="black"/>
<path opacity="0.25" d="M28.4914 207.102C26.6519 208.472 18.7822 209.091 18.7822 209.091C18.7822 209.091 21.6732 201.761 23.528 200.391C23.9686 200.065 24.4691 199.829 25.0009 199.696C25.5328 199.564 26.0855 199.538 26.6275 199.619C27.1695 199.7 27.6903 199.887 28.16 200.169C28.6297 200.452 29.0392 200.824 29.3651 201.265C29.691 201.705 29.9269 202.206 30.0594 202.737C30.1919 203.269 30.2183 203.822 30.1371 204.364C30.056 204.906 29.8689 205.427 29.5865 205.897C29.3041 206.366 28.932 206.776 28.4914 207.102Z" fill="black"/>
<path opacity="0.25" d="M15.5879 174.553C17.2403 176.159 24.9444 177.824 24.9444 177.824C24.9444 177.824 23.059 170.159 21.4035 168.565C21.0104 168.183 20.5458 167.882 20.0362 167.679C19.5266 167.476 18.9821 167.375 18.4337 167.383C17.8852 167.39 17.3436 167.506 16.8398 167.723C16.336 167.939 15.8799 168.253 15.4974 168.647C15.115 169.04 14.8137 169.504 14.6108 170.014C14.4079 170.523 14.3073 171.068 14.3148 171.616C14.3224 172.165 14.4379 172.706 14.6547 173.21C14.8716 173.714 15.1855 174.17 15.5787 174.553H15.5879Z" fill="black"/>
<path opacity="0.25" d="M11.216 193.858C13.2731 194.897 21.1214 194.164 21.1214 194.164C21.1214 194.164 17.0317 187.42 14.9746 186.389C13.9863 185.891 12.8405 185.806 11.7892 186.152C10.738 186.498 9.86736 187.248 9.36894 188.237C8.87052 189.225 8.78512 190.371 9.13152 191.422C9.47792 192.473 10.2277 193.344 11.216 193.842V193.858Z" fill="black"/>
<path opacity="0.25" d="M9.54529 213.202C11.3847 214.573 19.2544 215.192 19.2544 215.192C19.2544 215.192 16.3634 207.862 14.5087 206.491C13.6188 205.833 12.5038 205.555 11.4092 205.719C10.3145 205.883 9.32975 206.475 8.67156 207.365C8.01337 208.255 7.73566 209.37 7.89952 210.465C8.06337 211.559 8.65538 212.544 9.54529 213.202Z" fill="black"/>
<path d="M33.7614 225.202C33.7614 225.202 28.2216 206.394 34.8007 192.552C37.5972 186.763 38.4406 180.224 37.2042 173.915C36.5933 170.925 35.7097 167.998 34.5646 165.169" stroke="#535461" stroke-width="2" stroke-miterlimit="10"/>
<path d="M38.6574 156.419C38.6574 158.725 34.4849 165.408 34.4849 165.408C34.4849 165.408 30.3125 158.725 30.3125 156.419C30.3125 155.312 30.7523 154.25 31.535 153.468C32.3178 152.685 33.3795 152.245 34.4865 152.245C35.5935 152.245 36.6552 152.685 37.4379 153.468C38.2207 154.25 38.6605 155.312 38.6605 156.419H38.6574Z" fill="#080B24"/>
<path d="M45.5582 169.185C44.3043 171.119 37.1704 174.461 37.1704 174.461C37.1704 174.461 37.2992 166.582 38.553 164.651C39.1547 163.722 40.1008 163.07 41.1831 162.838C42.2654 162.607 43.3953 162.815 44.3243 163.417C45.2532 164.018 45.9051 164.964 46.1365 166.047C46.3679 167.129 46.1599 168.259 45.5582 169.188V169.185Z" fill="#080B24"/>
<path d="M45.2545 191C43.1974 192.04 35.3491 191.307 35.3491 191.307C35.3491 191.307 39.4388 184.562 41.4959 183.532C41.9863 183.285 42.5204 183.138 43.0679 183.097C43.6154 183.057 44.1654 183.125 44.6867 183.297C45.2079 183.469 45.6902 183.742 46.1058 184.101C46.5215 184.46 46.8624 184.897 47.1092 185.387C47.356 185.877 47.5038 186.411 47.5442 186.959C47.5845 187.506 47.5166 188.057 47.3444 188.578C47.1722 189.099 46.899 189.581 46.5404 189.997C46.1818 190.413 45.7448 190.753 45.2545 191Z" fill="#080B24"/>
<path d="M41.3092 207.461C39.4698 208.831 31.6001 209.45 31.6001 209.45C31.6001 209.45 34.4911 202.12 36.3458 200.75C36.7865 200.424 37.287 200.188 37.8188 200.055C38.3506 199.923 38.9033 199.896 39.4454 199.978C39.9874 200.059 40.5081 200.246 40.9778 200.528C41.4476 200.811 41.8571 201.183 42.183 201.623C42.5089 202.064 42.7448 202.565 42.8772 203.096C43.0097 203.628 43.0361 204.181 42.955 204.723C42.8739 205.265 42.6868 205.786 42.4044 206.255C42.122 206.725 41.7499 207.135 41.3092 207.461Z" fill="#080B24"/>
<path d="M28.4116 174.908C30.064 176.515 37.7682 178.179 37.7682 178.179C37.7682 178.179 35.8828 170.515 34.2273 168.921C33.8341 168.539 33.3695 168.237 32.8599 168.034C32.3504 167.831 31.8058 167.731 31.2574 167.738C30.7089 167.746 30.1674 167.861 29.6636 168.078C29.1598 168.295 28.7036 168.609 28.3212 169.002C27.9387 169.395 27.6374 169.86 27.4345 170.37C27.2316 170.879 27.131 171.424 27.1386 171.972C27.1461 172.521 27.2616 173.062 27.4785 173.566C27.6953 174.07 28.0093 174.526 28.4024 174.908H28.4116Z" fill="#080B24"/>
<path d="M24.0339 194.213C26.091 195.253 33.9393 194.52 33.9393 194.52C33.9393 194.52 29.8496 187.775 27.7925 186.745C26.8042 186.247 25.6584 186.162 24.6071 186.508C23.5558 186.854 22.6852 187.604 22.1868 188.593C21.6884 189.581 21.603 190.727 21.9494 191.778C22.2958 192.829 23.0456 193.7 24.0339 194.198V194.213Z" fill="#080B24"/>
<path d="M22.3632 213.561C24.2026 214.932 32.0723 215.551 32.0723 215.551C32.0723 215.551 29.1813 208.221 27.3266 206.85C26.4366 206.192 25.3217 205.914 24.227 206.078C23.1324 206.242 22.1476 206.834 21.4894 207.724C20.8312 208.614 20.5535 209.729 20.7174 210.824C20.8812 211.918 21.4732 212.903 22.3632 213.561Z" fill="#080B24"/>
<path d="M300.077 224.546H7.91406V226.692H300.077V224.546Z" fill="#080B24"/>
<path d="M276.367 104.676H214.449V180.767H276.367V104.676Z" fill="url(#paint2_linear)"/>
<path d="M275.395 105.872H215.42V179.575H275.395V105.872Z" fill="#080B24"/>
<path d="M231.712 112.34H219.449V124.603H231.712V112.34Z" fill="#E8EAF1"/>
<path d="M269.114 131.961H225.581V134.414H269.114V131.961Z" fill="#E8EAF1"/>
<path d="M269.114 137.172H225.581V139.625H269.114V137.172Z" fill="#E8EAF1"/>
<path d="M269.114 142.384H225.581V144.837H269.114V142.384Z" fill="#E8EAF1"/>
<path d="M269.114 147.596H225.581V150.049H269.114V147.596Z" fill="#E8EAF1"/>
<path d="M269.114 152.808H225.581V155.26H269.114V152.808Z" fill="#E8EAF1"/>
<path d="M269.114 158.02H225.581V160.472H269.114V158.02Z" fill="#E8EAF1"/>
<path d="M269.114 163.231H225.581V165.684H269.114V163.231Z" fill="#E8EAF1"/>
<path d="M293.796 209.974C293.796 209.974 294.158 215.296 294.765 215.903C295.372 216.51 289.32 216.872 289.32 216.872L290.166 209.974H293.796Z" fill="#FFB9B9"/>
<path opacity="0.05" d="M293.796 209.974C293.796 209.974 294.158 215.296 294.765 215.903C295.372 216.51 289.32 216.872 289.32 216.872L290.166 209.974H293.796Z" fill="black"/>
<path d="M295.13 214.089C295.13 214.089 294.283 214.089 291.258 215.661C291.258 215.661 289.2 215.3 288.354 212.393C288.354 212.393 285.813 216.75 284.121 216.992C282.428 217.234 279.16 217.476 281.337 220.379C283.514 223.283 296.341 221.952 296.341 221.952C296.341 221.952 296.699 214.935 295.13 214.089Z" fill="#E4E2F3"/>
<path opacity="0.05" d="M295.13 214.089C295.13 214.089 294.283 214.089 291.258 215.661C291.258 215.661 289.2 215.3 288.354 212.393C288.354 212.393 285.813 216.75 284.121 216.992C282.428 217.234 279.16 217.476 281.337 220.379C283.514 223.283 296.341 221.952 296.341 221.952C296.341 221.952 296.699 214.935 295.13 214.089Z" fill="black"/>
<path d="M293.311 218.203L292.465 220.502L286.901 218.929L287.207 216.648L287.284 216.096L287.496 214.564C287.496 214.564 292.214 213.353 292.214 213.95C292.276 214.449 292.379 214.943 292.52 215.425C292.713 216.17 292.956 217.016 293.133 217.571C293.238 217.96 293.311 218.203 293.311 218.203Z" fill="#FFB9B9"/>
<path d="M290.273 186.647C289.971 187.158 289.811 187.74 289.811 188.333C289.811 188.927 289.971 189.509 290.273 190.019C290.511 190.456 290.804 190.861 291.144 191.224C293.805 194.127 294.531 200.661 294.531 200.661V211.185L292.717 211.323L289.813 211.547L285.457 193.64C285.457 193.64 282.915 180.574 284.126 178.275C285.337 175.975 286.426 161.579 286.426 161.579L287.431 160.539L289.813 158.072H296.711C297.263 158.467 297.722 158.979 298.054 159.571C299.213 161.487 300.252 165.472 297.076 172.83C292.116 184.323 290.663 186.138 290.663 186.138C290.514 186.292 290.383 186.463 290.273 186.647Z" fill="#4C4C78"/>
<path opacity="0.05" d="M290.313 186.595C290.011 187.106 289.851 187.688 289.851 188.281C289.851 188.875 290.011 189.457 290.313 189.967C290.551 190.404 290.844 190.809 291.184 191.172C293.845 194.075 294.572 200.609 294.572 200.609V211.133L292.757 211.271L289.853 211.495L285.497 193.588C285.497 193.588 282.955 180.522 284.166 178.223C285.377 175.923 286.466 161.527 286.466 161.527L287.471 160.487L289.853 158.02H296.751C297.303 158.415 297.762 158.927 298.094 159.519C299.253 161.435 300.292 165.42 297.116 172.778C292.156 184.271 290.703 186.086 290.703 186.086C290.554 186.24 290.423 186.411 290.313 186.595Z" fill="black"/>
<path opacity="0.1" d="M292.533 215.44L287.293 216.096L287.505 214.564C287.505 214.564 292.223 213.353 292.223 213.95C292.286 214.455 292.389 214.953 292.533 215.44Z" fill="black"/>
<path d="M289.917 171.138C289.917 171.138 290.224 180.663 290.267 186.647C290.267 188.002 290.267 189.173 290.267 190.02C290.274 190.464 290.241 190.908 290.169 191.347C289.807 192.435 290.531 194.854 290.531 194.854C292.346 199.636 293.089 204.758 292.707 209.858V215.18L286.901 215.906C286.901 215.906 287.869 215.18 285.205 208.162C283.96 204.763 283.328 201.169 283.338 197.549C283.324 196.108 283.036 194.682 282.489 193.349C282.323 192.899 282.22 192.429 282.183 191.951C281.94 189.532 280.852 186.506 280.852 186.506C280.852 186.506 277.949 177.922 277.222 171.625C276.887 168.63 276.943 165.604 277.391 162.624C277.498 161.867 277.643 161.116 277.826 160.374C277.826 160.374 289.654 152.93 294.12 158.075C294.551 158.578 294.892 159.152 295.129 159.77C295.374 160.381 295.565 161.011 295.699 161.655C297.088 168.477 289.917 171.138 289.917 171.138Z" fill="#4C4C78"/>
<path d="M289.559 118.147C292.967 118.147 295.73 115.384 295.73 111.975C295.73 108.567 292.967 105.804 289.559 105.804C286.151 105.804 283.388 108.567 283.388 111.975C283.388 115.384 286.151 118.147 289.559 118.147Z" fill="#FFB9B9"/>
<path d="M286.171 115.845C286.171 115.845 288.713 122.982 286.171 126.734C283.63 130.486 294.277 129.275 294.277 129.275L298.391 124.315C298.391 124.315 293.551 124.315 293.308 115.845C293.066 107.374 286.171 115.845 286.171 115.845Z" fill="#FFB9B9"/>
<path opacity="0.1" d="M298.391 160.975C297.514 161.278 296.613 161.504 295.696 161.649C294.191 161.882 292.413 161.891 291.374 160.975C290.76 160.432 289.228 160.362 287.416 160.539C283.574 160.907 278.378 162.339 277.385 162.621C277.491 161.864 277.637 161.113 277.82 160.371C277.82 160.371 289.648 152.927 294.114 158.072H296.696C297.248 158.467 297.706 158.979 298.039 159.571C298.262 160.533 298.391 160.975 298.391 160.975Z" fill="black"/>
<path opacity="0.1" d="M293.311 218.203L292.465 220.502L286.901 218.929L287.207 216.648C288.164 218.764 289.795 219.052 289.795 219.052C290.857 218.464 291.972 217.975 293.124 217.592C293.238 217.96 293.311 218.203 293.311 218.203Z" fill="black"/>
<path d="M293.673 217.599C293.673 217.599 292.827 217.599 289.801 219.171C289.801 219.171 287.744 218.81 286.898 215.903C286.898 215.903 284.356 220.26 282.664 220.502C280.972 220.744 277.704 220.986 279.88 223.89C282.057 226.793 294.884 225.462 294.884 225.462C294.884 225.462 295.246 218.445 293.673 217.599Z" fill="#E4E2F3"/>
<path d="M264.969 113.156C264.969 113.156 265.205 108.444 270.156 108.903C270.293 108.917 270.424 108.964 270.539 109.04C270.653 109.117 270.748 109.22 270.813 109.34C270.879 109.461 270.915 109.596 270.917 109.734C270.918 109.871 270.887 110.007 270.824 110.13L269.81 112.04L264.969 113.156Z" fill="#FFB9B9"/>
<path d="M293.554 125.765C293.554 125.765 287.624 124.796 286.052 123.588C286.052 123.588 284.841 125.888 282.664 124.677C280.487 123.466 275.404 123.588 275.404 123.588C274.072 122.772 272.929 121.68 272.052 120.387C271.176 119.093 270.586 117.627 270.322 116.086C270.322 116.086 269.475 112.941 269.708 112.101C269.708 112.101 266.563 108.833 264.99 113.189C265.603 116.215 266.079 115.973 265.959 118.401L267.893 123.723C267.893 123.723 268.013 125.538 271.523 127.957C275.034 130.376 279.025 134.128 279.025 134.128C279.025 134.128 276.907 135.278 277.695 140.542C278.657 146.98 277.21 156.149 277.21 156.149V162.078C277.21 162.078 289.311 158.571 291.365 160.383C293.419 162.195 298.382 160.383 298.382 160.383C298.382 160.383 297.769 158.326 296.929 153.366C296.089 148.405 297.048 143.555 297.048 143.555C297.048 143.555 300.194 135.207 301.647 131.82C303.1 128.432 300.559 123.849 298.017 122.141C295.476 120.434 294.532 121.464 294.532 121.464C294.532 121.464 298.998 124.677 293.554 125.765Z" fill="#797C9C"/>
<path opacity="0.05" d="M278.007 143.243C278.007 143.243 278.973 143.01 283.811 142.283C288.648 141.556 297.119 143.252 297.119 143.252" fill="black"/>
<path opacity="0.1" d="M282.189 107.978C284.948 108.036 286.99 111.439 285.767 113.895C285.23 114.974 284.191 115.924 284.298 117.123C284.347 117.668 284.638 118.162 284.764 118.695C285.344 121.148 282.41 123.444 283.081 125.866C283.31 126.516 283.667 127.113 284.13 127.623L289.225 134.042C289.534 134.396 289.79 134.792 289.985 135.22C290.179 135.828 290.254 136.468 290.206 137.105C290.181 140.171 290.381 143.46 292.189 145.947C294.363 148.933 298.793 150.006 302.088 148.341C301.298 147.142 300.473 145.738 300.862 144.356C301.313 142.789 303.097 142.065 304.127 140.802C305.372 139.269 305.403 137.093 305.047 135.158C304.691 133.224 303.977 131.332 303.962 129.364C303.937 126.167 305.574 122.451 303.419 120.09C302.925 119.551 302.269 119.152 301.901 118.521C301.624 117.973 301.493 117.362 301.521 116.749C301.488 113.021 303.465 109.228 302.279 105.694C302.052 104.907 301.576 104.216 300.92 103.726C299.24 102.594 296.91 103.692 294.967 103.112C294.047 102.846 293.29 102.226 292.392 101.923C289.97 101.104 287.729 102.748 286.055 104.323C285.359 104.931 284.62 105.489 283.844 105.991C283.964 105.927 281.116 107.956 282.189 107.978Z" fill="black"/>
<path d="M282.496 107.978C285.255 108.036 287.296 111.439 286.073 113.895C285.537 114.974 284.497 115.924 284.605 117.123C284.654 117.668 284.945 118.162 285.071 118.695C285.65 121.148 282.716 123.444 283.388 125.866C283.617 126.516 283.973 127.113 284.436 127.623L289.531 134.042C289.841 134.396 290.097 134.792 290.292 135.22C290.486 135.828 290.561 136.468 290.512 137.105C290.488 140.171 290.687 143.46 292.496 145.947C294.67 148.933 299.099 150.006 302.395 148.341C301.604 147.142 300.779 145.738 301.169 144.356C301.62 142.789 303.404 142.065 304.434 140.802C305.679 139.269 305.709 137.093 305.354 135.158C304.998 133.224 304.284 131.332 304.268 129.364C304.244 126.167 305.881 122.451 303.726 120.09C303.232 119.551 302.576 119.152 302.208 118.521C301.931 117.973 301.8 117.362 301.828 116.749C301.794 113.021 303.772 109.228 302.585 105.694C302.359 104.907 301.882 104.216 301.227 103.726C299.547 102.594 297.217 103.692 295.273 103.112C294.354 102.846 293.597 102.226 292.698 101.923C290.276 101.104 288.035 102.748 286.361 104.323C285.665 104.931 284.927 105.489 284.151 105.991C284.271 105.927 281.423 107.956 282.496 107.978Z" fill="#B36362"/>
<path d="M189.877 166.334C189.175 165.678 188.566 164.93 188.065 164.111C187.004 162.443 185.229 161.545 184.012 161.098V160.555H184.086L184.052 160.052H184.086L184 158.722L183.568 152.075C183.568 152.075 182.004 147.621 184.763 143.543C187.522 139.466 184.935 135.554 182.341 134.024C182.341 134.024 181.115 127.565 182.17 126.035C180.76 125.217 179.307 124.477 177.816 123.818C177.794 123.739 177.772 123.657 177.752 123.573C177.724 122.96 177.688 122.368 177.654 121.767C177.689 121.457 177.747 121.15 177.826 120.848C177.859 120.722 177.896 120.593 177.936 120.461C179.178 119.98 180.245 119.136 181.001 118.039C181.756 116.942 182.163 115.643 182.17 114.312C182.17 113.533 182.031 112.76 181.759 112.031C181.893 111.805 181.997 111.561 182.065 111.307C182.202 110.574 182.055 109.816 181.655 109.186C180.968 107.653 179.236 106.252 177.976 105.74C176.176 105.004 173.466 105.179 171.593 105.403C170.541 105.528 169.34 105.884 168.96 106.856C168.859 107.224 168.779 107.598 168.72 107.975C168.328 109.459 166.626 110.151 165.575 111.286C164.655 112.288 164.238 113.643 163.938 114.965C163.075 118.751 162.867 122.657 163.325 126.513C163.432 127.402 163.573 128.285 163.723 129.168C163.092 130.057 162.521 131.621 162.782 134.38L160.707 144.239L159.842 150.018C159.725 150.826 159.806 151.65 160.077 152.42C160.348 153.19 160.802 153.883 161.399 154.439C162.724 155.739 164.33 157.937 165.321 159.362C164.889 160.623 164.675 161.948 164.689 163.28C164.71 163.893 164.744 164.473 164.787 165.031C164.876 166.207 165.098 167.369 165.449 168.495C165.691 170.868 166.173 173.903 167.111 175.853L167.457 186.221C167.457 186.221 166.939 195.74 165.9 197.61C164.861 199.48 168.15 215.29 168.15 215.29V217.501L167.595 219.119L167.457 219.015C164.861 222.246 167.457 223.436 167.457 223.436C167.457 223.436 168.162 223.47 169.297 223.513C169.2 223.965 169.257 224.436 169.457 224.853C169.657 225.269 169.99 225.608 170.403 225.815C170.403 225.815 185.119 226.496 187.713 225.815C190.306 225.134 189.616 222.749 188.231 222.924C187.529 222.948 186.829 222.856 186.158 222.651C186.968 221.704 186.321 220.419 185.291 220.545C183.905 220.714 180.79 219.481 180.79 219.481V219.503C180.69 219.465 180.588 219.434 180.484 219.411C179.326 219.147 178.183 218.825 177.059 218.445C176.391 217.013 174.852 213.163 175.956 210.167C176.455 208.819 176.618 207.022 176.618 205.281C176.644 200.031 177.411 194.81 178.896 189.774L180.971 182.64C180.971 182.64 183.914 173.971 184.086 171.604L184.061 168.133C186.495 169.7 188.427 169.225 189.662 168.498C189.847 168.393 190.004 168.244 190.12 168.066C190.236 167.887 190.308 167.683 190.329 167.471C190.35 167.26 190.32 167.046 190.241 166.848C190.162 166.65 190.038 166.474 189.877 166.334ZM166.777 148.301C166.835 148.053 166.884 147.78 166.927 147.495C167.336 147.495 167.744 147.495 168.153 147.495C168.66 148.533 168.872 149.69 168.766 150.84C167.828 150.533 166.424 149.803 166.777 148.301Z" fill="url(#paint3_linear)"/>
<path d="M168.423 216.706L167.758 218.705L169.922 220.87L177.084 222.534L182.246 222.035L181.912 220.195C181.813 219.802 181.608 219.443 181.318 219.159C181.029 218.874 180.667 218.675 180.272 218.583C178.151 218.083 174.104 216.949 173.252 215.367L168.423 216.706Z" fill="#DB8B8B"/>
<path opacity="0.1" d="M168.423 216.706L167.758 218.705L169.922 220.87L177.084 222.534L182.246 222.035L181.912 220.195C181.813 219.802 181.608 219.443 181.318 219.159C181.029 218.874 180.667 218.675 180.272 218.583C178.151 218.083 174.104 216.949 173.252 215.367L168.423 216.706Z" fill="black"/>
<path d="M180.582 221.538L179.583 220.205L180.582 218.672C180.582 218.672 183.58 219.883 184.911 219.714C186.241 219.545 186.91 221.879 184.411 222.547C181.912 223.215 167.755 222.547 167.755 222.547C167.755 222.547 165.256 221.382 167.755 218.218L169.919 219.883C169.919 219.883 173.598 221.882 175.416 221.547L180.582 221.538Z" fill="#474463"/>
<path d="M185.07 224.368L179.907 224.867L172.752 223.19L170.587 221.044L170.765 220.514L171.014 219.772L171.256 219.045L176.084 217.712C176.329 218.111 176.664 218.447 177.062 218.693C178.632 219.766 181.449 220.532 183.102 220.928C183.171 220.944 183.24 220.964 183.307 220.989C183.657 221.107 183.972 221.31 184.223 221.581C184.473 221.852 184.652 222.182 184.742 222.54L185.07 224.368Z" fill="#DB8B8B"/>
<path opacity="0.1" d="M185.07 224.368L179.907 224.867L172.752 223.191L170.587 221.045L170.765 220.514L172.755 222.047C172.755 222.047 176.434 224.046 178.252 223.712H183.414L182.415 222.378L183.313 220.992C183.663 221.11 183.978 221.314 184.229 221.585C184.48 221.856 184.658 222.186 184.748 222.544L185.07 224.368Z" fill="black"/>
<path d="M183.412 223.868L182.412 222.534L183.412 221.002C183.412 221.002 186.41 222.213 187.74 222.044C189.071 221.875 189.739 224.208 187.241 224.877C184.742 225.545 170.585 224.877 170.585 224.877C170.585 224.877 168.086 223.712 170.585 220.548L172.749 222.213C172.749 222.213 176.428 224.211 178.246 223.877L183.412 223.868Z" fill="#474463"/>
<path d="M179.245 127.27C179.245 127.27 171.25 128.104 172.418 124.772C172.743 123.827 172.828 122.817 172.663 121.832C172.456 120.61 171.973 119.451 171.25 118.444L178.746 119.609C178.297 120.36 177.955 121.17 177.731 122.016C176.839 125.55 179.245 127.27 179.245 127.27Z" fill="#DB8B8B"/>
<path d="M165.59 165.248C165.59 165.248 165.756 172.41 167.43 175.908L167.764 186.068C167.764 186.068 167.264 195.394 166.265 197.227C165.265 199.06 168.429 214.548 168.429 214.548V217.212C168.429 217.212 173.751 219.205 175.26 216.875L173.76 197.055L174.426 169.574L165.59 165.248Z" fill="#474463"/>
<path opacity="0.1" d="M165.59 165.248C165.59 165.248 165.756 172.41 167.43 175.908L167.764 186.068C167.764 186.068 167.264 195.394 166.265 197.227C165.265 199.06 168.429 214.548 168.429 214.548V217.212C168.429 217.212 173.751 219.205 175.26 216.875L173.76 197.055L174.426 169.574L165.59 165.248Z" fill="black"/>
<path d="M162.261 142.256L161.261 144.92L160.428 150.582C160.315 151.371 160.393 152.175 160.653 152.928C160.914 153.681 161.351 154.361 161.927 154.911C163.926 156.91 166.59 161.073 166.59 161.073L169.753 151.569C169.753 151.569 166.59 151.07 167.089 148.905C167.589 146.741 167.423 142.743 167.423 142.743L162.261 142.256Z" fill="#CBCDDA"/>
<path opacity="0.05" d="M162.261 141.949L161.261 144.613L160.428 150.275C160.315 151.064 160.393 151.868 160.653 152.621C160.914 153.374 161.351 154.054 161.927 154.604C163.926 156.603 166.59 160.766 166.59 160.766L169.753 151.262C169.753 151.262 166.59 150.763 167.089 148.598C167.589 146.434 167.423 142.436 167.423 142.436L162.261 141.949Z" fill="black"/>
<path opacity="0.1" d="M177.062 218.687C174.916 222.059 171.602 220.143 171.011 219.763L171.253 219.036L176.081 217.703C176.327 218.103 176.663 218.44 177.062 218.687Z" fill="black"/>
<path d="M183.746 171.738C183.58 174.071 180.748 182.564 180.748 182.564L178.752 189.553C177.32 194.496 176.581 199.614 176.557 204.759C176.557 206.464 176.4 208.224 175.919 209.545C174.585 213.224 177.253 218.206 177.253 218.206C174.92 222.369 170.925 219.539 170.925 219.539V216.875C170.925 216.875 167.761 202.386 168.592 199.554C169.423 196.721 169.757 189.06 169.757 189.06V175.236C167.089 172.578 165.466 169.048 165.186 165.291C165.146 164.746 165.115 164.172 165.094 163.578C164.959 159.819 167.528 155.414 168.531 153.844C168.773 153.464 168.923 153.252 168.923 153.252L183.639 159.077H183.672V159.647V160.907L183.746 171.738Z" fill="#474463"/>
<path opacity="0.1" d="M178.749 119.609C178.3 120.36 177.958 121.17 177.734 122.016C176.92 122.325 176.052 122.468 175.181 122.437C174.311 122.405 173.456 122.199 172.666 121.832C172.459 120.61 171.975 119.451 171.253 118.444L178.749 119.609Z" fill="black"/>
<path d="M175.416 122.108C179.004 122.108 181.912 119.199 181.912 115.611C181.912 112.023 179.004 109.115 175.416 109.115C171.828 109.115 168.92 112.023 168.92 115.611C168.92 119.199 171.828 122.108 175.416 122.108Z" fill="#DB8B8B"/>
<path opacity="0.1" d="M183.746 160.913H183.675C176.692 162.348 167.924 155.07 167.924 155.07C168.16 154.678 168.365 154.268 168.537 153.844C168.779 153.464 168.929 153.252 168.929 153.252L183.645 159.077L183.682 159.66L183.746 160.913Z" fill="black"/>
<path d="M181.912 127.101C181.912 127.101 172.586 121.439 169.588 123.769L165.425 129.097C165.425 129.097 162.761 129.931 163.261 135.259L161.262 144.919L167.258 146.419C167.258 146.419 170.756 149.751 167.924 154.579C167.924 154.579 176.75 161.907 183.746 160.404L183.231 152.584C183.231 152.584 181.732 148.255 184.396 144.257C187.06 140.259 184.561 136.43 182.063 134.931C182.081 134.931 180.913 128.601 181.912 127.101Z" fill="#CBCDDA"/>
<path d="M182.412 161.079C182.412 161.079 185.91 161.744 187.575 164.412C188.056 165.212 188.642 165.944 189.319 166.588C189.471 166.727 189.588 166.899 189.662 167.09C189.736 167.282 189.764 167.488 189.744 167.693C189.724 167.897 189.657 168.094 189.547 168.268C189.438 168.442 189.289 168.588 189.114 168.694C187.792 169.488 185.637 169.979 182.915 167.741C178.249 163.912 182.412 161.079 182.412 161.079Z" fill="#DB8B8B"/>
<path opacity="0.1" d="M177.249 130.269C177.249 130.269 173.917 129.934 173.086 138.595C172.255 147.256 170.922 149.255 170.922 149.255C170.922 149.255 170.088 153.752 172.087 156.416C174.085 159.08 177.911 164.743 177.911 164.743C177.911 164.743 182.075 165.908 182.909 161.744L177.746 152.084C177.746 152.084 176.912 148.752 178.911 146.422C180.91 144.092 182.412 128.601 177.249 130.269Z" fill="black"/>
<path d="M177.584 129.769C177.584 129.769 174.251 129.435 173.42 138.095C172.59 146.756 171.256 148.755 171.256 148.755C171.256 148.755 170.422 153.252 172.421 155.916C174.42 158.58 178.246 164.243 178.246 164.243C178.246 164.243 182.409 165.408 183.243 161.244L178.08 151.584C178.08 151.584 177.25 148.255 179.245 145.934C181.241 143.613 182.746 128.101 177.584 129.769Z" fill="#CBCDDA"/>
<path opacity="0.1" d="M180.33 136.014C180.33 136.014 180.665 141.176 179.165 144.009C177.666 146.842 177.666 150.505 179.165 152.504" fill="black"/>
<path opacity="0.1" d="M181.164 129.686C181.164 129.686 179.831 128.353 176.002 128.187C172.173 128.022 170.505 126.854 170.505 126.854" fill="black"/>
<path opacity="0.1" d="M171.888 107.218C170.876 107.343 169.72 107.69 169.355 108.64C169.258 109.001 169.182 109.368 169.125 109.738C168.748 111.194 167.111 111.884 166.1 112.981C165.207 113.962 164.815 115.29 164.524 116.586C163.695 120.299 163.497 124.124 163.938 127.902C164.263 130.661 164.928 133.383 165.112 136.158C165.296 138.932 164.959 141.851 163.442 144.181C162.789 145.183 161.93 146.063 161.467 147.167C162.424 147.943 163.739 148.053 164.971 148.087C166.402 148.136 167.833 148.136 169.263 148.087C170.015 148.062 170.796 148.013 171.449 147.633C171.929 147.327 172.323 146.906 172.596 146.407C173.414 145.015 173.623 143.341 173.586 141.731C173.549 140.122 173.295 138.515 173.279 136.9C173.264 136.02 173.332 135.088 173.837 134.368C174.202 133.846 174.757 133.497 175.232 133.077C177.017 131.498 177.627 128.963 177.685 126.581C177.743 124.199 177.351 121.813 177.553 119.441C177.633 118.521 177.979 117.396 178.893 117.215C179.186 117.203 179.477 117.166 179.763 117.104C180.496 116.822 180.426 115.789 180.634 115.032C180.87 114.183 181.594 113.527 181.799 112.668C182.277 110.654 179.714 108.248 178.034 107.546C176.308 106.825 173.703 107 171.888 107.218Z" fill="black"/>
<path d="M171.734 106.883C170.723 107.009 169.567 107.355 169.202 108.306C169.105 108.667 169.028 109.033 168.972 109.403C168.595 110.86 166.958 111.549 165.946 112.647C165.054 113.628 164.662 114.955 164.37 116.252C163.541 119.964 163.343 123.79 163.785 127.568C164.11 130.327 164.775 133.049 164.959 135.824C165.143 138.598 164.806 141.517 163.288 143.847C162.635 144.849 161.777 145.729 161.314 146.833C162.27 147.608 163.586 147.719 164.818 147.752C166.249 147.801 167.679 147.801 169.11 147.752C169.861 147.728 170.643 147.679 171.296 147.299C171.775 146.993 172.17 146.571 172.443 146.072C173.261 144.681 173.47 143.007 173.433 141.397C173.396 139.788 173.142 138.181 173.126 136.566C173.111 135.686 173.178 134.754 173.684 134.033C174.049 133.512 174.604 133.163 175.079 132.743C176.863 131.164 177.473 128.628 177.532 126.246C177.59 123.864 177.197 121.479 177.4 119.106C177.479 118.187 177.826 117.062 178.74 116.881C179.032 116.869 179.324 116.832 179.61 116.77C180.343 116.488 180.272 115.455 180.481 114.698C180.717 113.849 181.44 113.193 181.646 112.334C182.124 110.32 179.561 107.913 177.881 107.211C176.143 106.491 173.537 106.663 171.734 106.883Z" fill="#472727"/>
<defs>
<linearGradient id="paint0_linear" x1="164.266" y1="168.443" x2="164.266" y2="27.113" gradientUnits="userSpaceOnUse">
<stop stop-color="#808080" stop-opacity="0.25"/>
<stop offset="0.54" stop-color="#808080" stop-opacity="0.12"/>
<stop offset="1" stop-color="#808080" stop-opacity="0.1"/>
</linearGradient>
<linearGradient id="paint1_linear" x1="43993.5" y1="102134" x2="43993.5" y2="51080.2" gradientUnits="userSpaceOnUse">
<stop stop-color="#808080" stop-opacity="0.25"/>
<stop offset="0.54" stop-color="#808080" stop-opacity="0.12"/>
<stop offset="1" stop-color="#808080" stop-opacity="0.1"/>
</linearGradient>
<linearGradient id="paint2_linear" x1="49700.2" y1="44924.7" x2="49700.2" y2="26038.8" gradientUnits="userSpaceOnUse">
<stop stop-color="#808080" stop-opacity="0.25"/>
<stop offset="0.54" stop-color="#808080" stop-opacity="0.12"/>
<stop offset="1" stop-color="#808080" stop-opacity="0.1"/>
</linearGradient>
<linearGradient id="paint3_linear" x1="67656.3" y1="98954.1" x2="67656.3" y2="51265.3" gradientUnits="userSpaceOnUse">
<stop stop-color="#808080" stop-opacity="0.25"/>
<stop offset="0.54" stop-color="#808080" stop-opacity="0.12"/>
<stop offset="1" stop-color="#808080" stop-opacity="0.1"/>
</linearGradient>
</defs>
</svg>
